G04 #@! TF.GenerationSoftware,KiCad,Pcbnew,5.1.5+dfsg1-2build2*
G04 #@! TF.CreationDate,2021-09-03T15:31:20+02:00*
G04 #@! TF.ProjectId,Nixie clock tubes driver,4e697869-6520-4636-9c6f-636b20747562,rev?*
G04 #@! TF.SameCoordinates,Original*
G04 #@! TF.FileFunction,Legend,Top*
G04 #@! TF.FilePolarity,Positive*
%FSLAX46Y46*%
G04 Gerber Fmt 4.6, Leading zero omitted, Abs format (unit mm)*
G04 Created by KiCad (PCBNEW 5.1.5+dfsg1-2build2) date 2021-09-03 15:31:20*
%MOMM*%
%LPD*%
G04 APERTURE LIST*
%ADD10C,0.120000*%
%ADD11C,0.150000*%
G04 APERTURE END LIST*
D10*
X46535355Y-40580940D02*
X49080939Y-38035356D01*
X46500001Y-40600000D02*
G75*
G02X44661522Y-36161523I-1J2600000D01*
G01*
X49100000Y-37999999D02*
G75*
G03X44661522Y-36161523I-2600000J-1D01*
G01*
X72520000Y-83885000D02*
X72520000Y-85550000D01*
X72240000Y-83885000D02*
X72520000Y-83885000D01*
X72240000Y-81500000D02*
X72240000Y-83885000D01*
X72240000Y-79115000D02*
X72520000Y-79115000D01*
X72240000Y-81500000D02*
X72240000Y-79115000D01*
X82760000Y-83885000D02*
X82480000Y-83885000D01*
X82760000Y-81500000D02*
X82760000Y-83885000D01*
X82760000Y-79115000D02*
X82480000Y-79115000D01*
X82760000Y-81500000D02*
X82760000Y-79115000D01*
X141535355Y-65080940D02*
X144080939Y-62535356D01*
X141500001Y-65100000D02*
G75*
G02X139661522Y-60661523I-1J2600000D01*
G01*
X144100000Y-62499999D02*
G75*
G03X139661522Y-60661523I-2600000J-1D01*
G01*
X166035355Y-58080940D02*
X168580939Y-55535356D01*
X166000001Y-58100000D02*
G75*
G02X164161522Y-53661523I-1J2600000D01*
G01*
X168600000Y-55499999D02*
G75*
G03X164161522Y-53661523I-2600000J-1D01*
G01*
X176535355Y-58080940D02*
X179080939Y-55535356D01*
X176500001Y-58100000D02*
G75*
G02X174661522Y-53661523I-1J2600000D01*
G01*
X179100000Y-55499999D02*
G75*
G03X174661522Y-53661523I-2600000J-1D01*
G01*
X155535355Y-58080940D02*
X158080939Y-55535356D01*
X155500001Y-58100000D02*
G75*
G02X153661522Y-53661523I-1J2600000D01*
G01*
X158100000Y-55499999D02*
G75*
G03X153661522Y-53661523I-2600000J-1D01*
G01*
X151100000Y-58999999D02*
G75*
G03X146661522Y-57161523I-2600000J-1D01*
G01*
X148500001Y-61600000D02*
G75*
G02X146661522Y-57161523I-1J2600000D01*
G01*
X148535355Y-61580940D02*
X151080939Y-59035356D01*
X143998026Y-52101973D02*
G75*
G03X139559548Y-50263497I-2600000J-1D01*
G01*
X141398027Y-54701974D02*
G75*
G02X139559548Y-50263497I-1J2600000D01*
G01*
X141433381Y-54682914D02*
X143978965Y-52137330D01*
X126600000Y-55499999D02*
G75*
G03X122161522Y-53661523I-2600000J-1D01*
G01*
X124000001Y-58100000D02*
G75*
G02X122161522Y-53661523I-1J2600000D01*
G01*
X124035355Y-58080940D02*
X126580939Y-55535356D01*
X91498026Y-52101973D02*
G75*
G03X87059548Y-50263497I-2600000J-1D01*
G01*
X88898027Y-54701974D02*
G75*
G02X87059548Y-50263497I-1J2600000D01*
G01*
X88933381Y-54682914D02*
X91478965Y-52137330D01*
X49498026Y-62601973D02*
G75*
G03X45059548Y-60763497I-2600000J-1D01*
G01*
X46898027Y-65201974D02*
G75*
G02X45059548Y-60763497I-1J2600000D01*
G01*
X46933381Y-65182914D02*
X49478965Y-62637330D01*
X60830000Y-25170000D02*
X60830000Y-26500000D01*
X59500000Y-25170000D02*
X60830000Y-25170000D01*
X58230000Y-25170000D02*
X58230000Y-27830000D01*
X58230000Y-27830000D02*
X55630000Y-27830000D01*
X58230000Y-25170000D02*
X55630000Y-25170000D01*
X55630000Y-25170000D02*
X55630000Y-27830000D01*
X38790000Y-79241422D02*
X38790000Y-79758578D01*
X40210000Y-79241422D02*
X40210000Y-79758578D01*
X55258578Y-99460000D02*
X54741422Y-99460000D01*
X55258578Y-98040000D02*
X54741422Y-98040000D01*
X71710000Y-79241422D02*
X71710000Y-79758578D01*
X70290000Y-79241422D02*
X70290000Y-79758578D01*
X101790000Y-79241422D02*
X101790000Y-79758578D01*
X103210000Y-79241422D02*
X103210000Y-79758578D01*
X118258578Y-98040000D02*
X117741422Y-98040000D01*
X118258578Y-99460000D02*
X117741422Y-99460000D01*
X134710000Y-79241422D02*
X134710000Y-79758578D01*
X133290000Y-79241422D02*
X133290000Y-79758578D01*
X164790000Y-79241422D02*
X164790000Y-79758578D01*
X166210000Y-79241422D02*
X166210000Y-79758578D01*
X181258578Y-99460000D02*
X180741422Y-99460000D01*
X181258578Y-98040000D02*
X180741422Y-98040000D01*
X197710000Y-79241422D02*
X197710000Y-79758578D01*
X196290000Y-79241422D02*
X196290000Y-79758578D01*
X36535355Y-54580940D02*
X39080939Y-52035356D01*
X36500001Y-54600000D02*
G75*
G02X34661522Y-50161523I-1J2600000D01*
G01*
X39100000Y-51999999D02*
G75*
G03X34661522Y-50161523I-2600000J-1D01*
G01*
X42600000Y-55499999D02*
G75*
G03X38161522Y-53661523I-2600000J-1D01*
G01*
X40000001Y-58100000D02*
G75*
G02X38161522Y-53661523I-1J2600000D01*
G01*
X40035355Y-58080940D02*
X42580939Y-55535356D01*
X43535355Y-61580940D02*
X46080939Y-59035356D01*
X43500001Y-61600000D02*
G75*
G02X41661522Y-57161523I-1J2600000D01*
G01*
X46100000Y-58999999D02*
G75*
G03X41661522Y-57161523I-2600000J-1D01*
G01*
X47035355Y-54580940D02*
X49580939Y-52035356D01*
X47000001Y-54600000D02*
G75*
G02X45161522Y-50161523I-1J2600000D01*
G01*
X49600000Y-51999999D02*
G75*
G03X45161522Y-50161523I-2600000J-1D01*
G01*
X53100000Y-55499999D02*
G75*
G03X48661522Y-53661523I-2600000J-1D01*
G01*
X50500001Y-58100000D02*
G75*
G02X48661522Y-53661523I-1J2600000D01*
G01*
X50535355Y-58080940D02*
X53080939Y-55535356D01*
X56600000Y-58999999D02*
G75*
G03X52161522Y-57161523I-2600000J-1D01*
G01*
X54000001Y-61600000D02*
G75*
G02X52161522Y-57161523I-1J2600000D01*
G01*
X54035355Y-61580940D02*
X56580939Y-59035356D01*
X57535355Y-65080940D02*
X60080939Y-62535356D01*
X57500001Y-65100000D02*
G75*
G02X55661522Y-60661523I-1J2600000D01*
G01*
X60100000Y-62499999D02*
G75*
G03X55661522Y-60661523I-2600000J-1D01*
G01*
X59998026Y-52101973D02*
G75*
G03X55559548Y-50263497I-2600000J-1D01*
G01*
X57398027Y-54701974D02*
G75*
G02X55559548Y-50263497I-1J2600000D01*
G01*
X57433381Y-54682914D02*
X59978965Y-52137330D01*
X61035355Y-58080940D02*
X63580939Y-55535356D01*
X61000001Y-58100000D02*
G75*
G02X59161522Y-53661523I-1J2600000D01*
G01*
X63600000Y-55499999D02*
G75*
G03X59161522Y-53661523I-2600000J-1D01*
G01*
X70600000Y-51999999D02*
G75*
G03X66161522Y-50161523I-2600000J-1D01*
G01*
X68000001Y-54600000D02*
G75*
G02X66161522Y-50161523I-1J2600000D01*
G01*
X68035355Y-54580940D02*
X70580939Y-52035356D01*
X71535355Y-58080940D02*
X74080939Y-55535356D01*
X71500001Y-58100000D02*
G75*
G02X69661522Y-53661523I-1J2600000D01*
G01*
X74100000Y-55499999D02*
G75*
G03X69661522Y-53661523I-2600000J-1D01*
G01*
X77600000Y-58999999D02*
G75*
G03X73161522Y-57161523I-2600000J-1D01*
G01*
X75000001Y-61600000D02*
G75*
G02X73161522Y-57161523I-1J2600000D01*
G01*
X75035355Y-61580940D02*
X77580939Y-59035356D01*
X78535355Y-65080940D02*
X81080939Y-62535356D01*
X78500001Y-65100000D02*
G75*
G02X76661522Y-60661523I-1J2600000D01*
G01*
X81100000Y-62499999D02*
G75*
G03X76661522Y-60661523I-2600000J-1D01*
G01*
X81100000Y-51999999D02*
G75*
G03X76661522Y-50161523I-2600000J-1D01*
G01*
X78500001Y-54600000D02*
G75*
G02X76661522Y-50161523I-1J2600000D01*
G01*
X78535355Y-54580940D02*
X81080939Y-52035356D01*
X84600000Y-55499999D02*
G75*
G03X80161522Y-53661523I-2600000J-1D01*
G01*
X82000001Y-58100000D02*
G75*
G02X80161522Y-53661523I-1J2600000D01*
G01*
X82035355Y-58080940D02*
X84580939Y-55535356D01*
X85535355Y-61580940D02*
X88080939Y-59035356D01*
X85500001Y-61600000D02*
G75*
G02X83661522Y-57161523I-1J2600000D01*
G01*
X88100000Y-58999999D02*
G75*
G03X83661522Y-57161523I-2600000J-1D01*
G01*
X89035355Y-65080940D02*
X91580939Y-62535356D01*
X89000001Y-65100000D02*
G75*
G02X87161522Y-60661523I-1J2600000D01*
G01*
X91600000Y-62499999D02*
G75*
G03X87161522Y-60661523I-2600000J-1D01*
G01*
X95100000Y-55499999D02*
G75*
G03X90661522Y-53661523I-2600000J-1D01*
G01*
X92500001Y-58100000D02*
G75*
G02X90661522Y-53661523I-1J2600000D01*
G01*
X92535355Y-58080940D02*
X95080939Y-55535356D01*
X101998026Y-52101973D02*
G75*
G03X97559548Y-50263497I-2600000J-1D01*
G01*
X99398027Y-54701974D02*
G75*
G02X97559548Y-50263497I-1J2600000D01*
G01*
X99433381Y-54682914D02*
X101978965Y-52137330D01*
X103035355Y-58080940D02*
X105580939Y-55535356D01*
X103000001Y-58100000D02*
G75*
G02X101161522Y-53661523I-1J2600000D01*
G01*
X105600000Y-55499999D02*
G75*
G03X101161522Y-53661523I-2600000J-1D01*
G01*
X108998026Y-59101973D02*
G75*
G03X104559548Y-57263497I-2600000J-1D01*
G01*
X106398027Y-61701974D02*
G75*
G02X104559548Y-57263497I-1J2600000D01*
G01*
X106433381Y-61682914D02*
X108978965Y-59137330D01*
X110035355Y-65080940D02*
X112580939Y-62535356D01*
X110000001Y-65100000D02*
G75*
G02X108161522Y-60661523I-1J2600000D01*
G01*
X112600000Y-62499999D02*
G75*
G03X108161522Y-60661523I-2600000J-1D01*
G01*
X110035355Y-54580940D02*
X112580939Y-52035356D01*
X110000001Y-54600000D02*
G75*
G02X108161522Y-50161523I-1J2600000D01*
G01*
X112600000Y-51999999D02*
G75*
G03X108161522Y-50161523I-2600000J-1D01*
G01*
X116100000Y-55499999D02*
G75*
G03X111661522Y-53661523I-2600000J-1D01*
G01*
X113500001Y-58100000D02*
G75*
G02X111661522Y-53661523I-1J2600000D01*
G01*
X113535355Y-58080940D02*
X116080939Y-55535356D01*
X119498026Y-59101973D02*
G75*
G03X115059548Y-57263497I-2600000J-1D01*
G01*
X116898027Y-61701974D02*
G75*
G02X115059548Y-57263497I-1J2600000D01*
G01*
X116933381Y-61682914D02*
X119478965Y-59137330D01*
X123100000Y-62499999D02*
G75*
G03X118661522Y-60661523I-2600000J-1D01*
G01*
X120500001Y-65100000D02*
G75*
G02X118661522Y-60661523I-1J2600000D01*
G01*
X120535355Y-65080940D02*
X123080939Y-62535356D01*
X120535355Y-54580940D02*
X123080939Y-52035356D01*
X120500001Y-54600000D02*
G75*
G02X118661522Y-50161523I-1J2600000D01*
G01*
X123100000Y-51999999D02*
G75*
G03X118661522Y-50161523I-2600000J-1D01*
G01*
X131035355Y-54580940D02*
X133580939Y-52035356D01*
X131000001Y-54600000D02*
G75*
G02X129161522Y-50161523I-1J2600000D01*
G01*
X133600000Y-51999999D02*
G75*
G03X129161522Y-50161523I-2600000J-1D01*
G01*
X136998026Y-55601973D02*
G75*
G03X132559548Y-53763497I-2600000J-1D01*
G01*
X134398027Y-58201974D02*
G75*
G02X132559548Y-53763497I-1J2600000D01*
G01*
X134433381Y-58182914D02*
X136978965Y-55637330D01*
X140600000Y-58999999D02*
G75*
G03X136161522Y-57161523I-2600000J-1D01*
G01*
X138000001Y-61600000D02*
G75*
G02X136161522Y-57161523I-1J2600000D01*
G01*
X138035355Y-61580940D02*
X140580939Y-59035356D01*
X145035355Y-58080940D02*
X147580939Y-55535356D01*
X145000001Y-58100000D02*
G75*
G02X143161522Y-53661523I-1J2600000D01*
G01*
X147600000Y-55499999D02*
G75*
G03X143161522Y-53661523I-2600000J-1D01*
G01*
X152035355Y-65080940D02*
X154580939Y-62535356D01*
X152000001Y-65100000D02*
G75*
G02X150161522Y-60661523I-1J2600000D01*
G01*
X154600000Y-62499999D02*
G75*
G03X150161522Y-60661523I-2600000J-1D01*
G01*
X154498026Y-52101973D02*
G75*
G03X150059548Y-50263497I-2600000J-1D01*
G01*
X151898027Y-54701974D02*
G75*
G02X150059548Y-50263497I-1J2600000D01*
G01*
X151933381Y-54682914D02*
X154478965Y-52137330D01*
X164998026Y-52101973D02*
G75*
G03X160559548Y-50263497I-2600000J-1D01*
G01*
X162398027Y-54701974D02*
G75*
G02X160559548Y-50263497I-1J2600000D01*
G01*
X162433381Y-54682914D02*
X164978965Y-52137330D01*
X171998026Y-59101973D02*
G75*
G03X167559548Y-57263497I-2600000J-1D01*
G01*
X169398027Y-61701974D02*
G75*
G02X167559548Y-57263497I-1J2600000D01*
G01*
X169433381Y-61682914D02*
X171978965Y-59137330D01*
X173035355Y-65080940D02*
X175580939Y-62535356D01*
X173000001Y-65100000D02*
G75*
G02X171161522Y-60661523I-1J2600000D01*
G01*
X175600000Y-62499999D02*
G75*
G03X171161522Y-60661523I-2600000J-1D01*
G01*
X175600000Y-51999999D02*
G75*
G03X171161522Y-50161523I-2600000J-1D01*
G01*
X173000001Y-54600000D02*
G75*
G02X171161522Y-50161523I-1J2600000D01*
G01*
X173035355Y-54580940D02*
X175580939Y-52035356D01*
X180035355Y-61580940D02*
X182580939Y-59035356D01*
X180000001Y-61600000D02*
G75*
G02X178161522Y-57161523I-1J2600000D01*
G01*
X182600000Y-58999999D02*
G75*
G03X178161522Y-57161523I-2600000J-1D01*
G01*
X183535355Y-65080940D02*
X186080939Y-62535356D01*
X183500001Y-65100000D02*
G75*
G02X181661522Y-60661523I-1J2600000D01*
G01*
X186100000Y-62499999D02*
G75*
G03X181661522Y-60661523I-2600000J-1D01*
G01*
X185998026Y-52101973D02*
G75*
G03X181559548Y-50263497I-2600000J-1D01*
G01*
X183398027Y-54701974D02*
G75*
G02X181559548Y-50263497I-1J2600000D01*
G01*
X183433381Y-54682914D02*
X185978965Y-52137330D01*
X187035355Y-58080940D02*
X189580939Y-55535356D01*
X187000001Y-58100000D02*
G75*
G02X185161522Y-53661523I-1J2600000D01*
G01*
X189600000Y-55499999D02*
G75*
G03X185161522Y-53661523I-2600000J-1D01*
G01*
X196600000Y-51999999D02*
G75*
G03X192161522Y-50161523I-2600000J-1D01*
G01*
X194000001Y-54600000D02*
G75*
G02X192161522Y-50161523I-1J2600000D01*
G01*
X194035355Y-54580940D02*
X196580939Y-52035356D01*
X197535355Y-58080940D02*
X200080939Y-55535356D01*
X197500001Y-58100000D02*
G75*
G02X195661522Y-53661523I-1J2600000D01*
G01*
X200100000Y-55499999D02*
G75*
G03X195661522Y-53661523I-2600000J-1D01*
G01*
X203498026Y-59101973D02*
G75*
G03X199059548Y-57263497I-2600000J-1D01*
G01*
X200898027Y-61701974D02*
G75*
G02X199059548Y-57263497I-1J2600000D01*
G01*
X200933381Y-61682914D02*
X203478965Y-59137330D01*
X204535355Y-65080940D02*
X207080939Y-62535356D01*
X204500001Y-65100000D02*
G75*
G02X202661522Y-60661523I-1J2600000D01*
G01*
X207100000Y-62499999D02*
G75*
G03X202661522Y-60661523I-2600000J-1D01*
G01*
X206998026Y-52101973D02*
G75*
G03X202559548Y-50263497I-2600000J-1D01*
G01*
X204398027Y-54701974D02*
G75*
G02X202559548Y-50263497I-1J2600000D01*
G01*
X204433381Y-54682914D02*
X206978965Y-52137330D01*
X208035355Y-58080940D02*
X210580939Y-55535356D01*
X208000001Y-58100000D02*
G75*
G02X206161522Y-53661523I-1J2600000D01*
G01*
X210600000Y-55499999D02*
G75*
G03X206161522Y-53661523I-2600000J-1D01*
G01*
X214100000Y-58999999D02*
G75*
G03X209661522Y-57161523I-2600000J-1D01*
G01*
X211500001Y-61600000D02*
G75*
G02X209661522Y-57161523I-1J2600000D01*
G01*
X211535355Y-61580940D02*
X214080939Y-59035356D01*
X215035355Y-65080940D02*
X217580939Y-62535356D01*
X215000001Y-65100000D02*
G75*
G02X213161522Y-60661523I-1J2600000D01*
G01*
X217600000Y-62499999D02*
G75*
G03X213161522Y-60661523I-2600000J-1D01*
G01*
X217600000Y-51999999D02*
G75*
G03X213161522Y-50161523I-2600000J-1D01*
G01*
X215000001Y-54600000D02*
G75*
G02X213161522Y-50161523I-1J2600000D01*
G01*
X215035355Y-54580940D02*
X217580939Y-52035356D01*
X218535355Y-58080940D02*
X221080939Y-55535356D01*
X218500001Y-58100000D02*
G75*
G02X216661522Y-53661523I-1J2600000D01*
G01*
X221100000Y-55499999D02*
G75*
G03X216661522Y-53661523I-2600000J-1D01*
G01*
X40900000Y-26500001D02*
G75*
G03X45338478Y-28338477I2600000J1D01*
G01*
X43499999Y-23900000D02*
G75*
G02X45338478Y-28338477I1J-2600000D01*
G01*
X43464645Y-23919060D02*
X40919061Y-26464644D01*
X34290000Y-68241422D02*
X34290000Y-68758578D01*
X35710000Y-68241422D02*
X35710000Y-68758578D01*
X38210000Y-68241422D02*
X38210000Y-68758578D01*
X36790000Y-68241422D02*
X36790000Y-68758578D01*
X39290000Y-68241422D02*
X39290000Y-68758578D01*
X40710000Y-68241422D02*
X40710000Y-68758578D01*
X43210000Y-68241422D02*
X43210000Y-68758578D01*
X41790000Y-68241422D02*
X41790000Y-68758578D01*
X44290000Y-68241422D02*
X44290000Y-68758578D01*
X45710000Y-68241422D02*
X45710000Y-68758578D01*
X48210000Y-68241422D02*
X48210000Y-68758578D01*
X46790000Y-68241422D02*
X46790000Y-68758578D01*
X49290000Y-68241422D02*
X49290000Y-68758578D01*
X50710000Y-68241422D02*
X50710000Y-68758578D01*
X53210000Y-68241422D02*
X53210000Y-68758578D01*
X51790000Y-68241422D02*
X51790000Y-68758578D01*
X54290000Y-68241422D02*
X54290000Y-68758578D01*
X55710000Y-68241422D02*
X55710000Y-68758578D01*
X58210000Y-68241422D02*
X58210000Y-68758578D01*
X56790000Y-68241422D02*
X56790000Y-68758578D01*
X64090000Y-37897936D02*
X64090000Y-39102064D01*
X65910000Y-37897936D02*
X65910000Y-39102064D01*
X65710000Y-95258578D02*
X65710000Y-94741422D01*
X64290000Y-95258578D02*
X64290000Y-94741422D01*
X65790000Y-68241422D02*
X65790000Y-68758578D01*
X67210000Y-68241422D02*
X67210000Y-68758578D01*
X69710000Y-68241422D02*
X69710000Y-68758578D01*
X68290000Y-68241422D02*
X68290000Y-68758578D01*
X70790000Y-68241422D02*
X70790000Y-68758578D01*
X72210000Y-68241422D02*
X72210000Y-68758578D01*
X74710000Y-68241422D02*
X74710000Y-68758578D01*
X73290000Y-68241422D02*
X73290000Y-68758578D01*
X75790000Y-68241422D02*
X75790000Y-68758578D01*
X77210000Y-68241422D02*
X77210000Y-68758578D01*
X79710000Y-68241422D02*
X79710000Y-68758578D01*
X78290000Y-68241422D02*
X78290000Y-68758578D01*
X80790000Y-68241422D02*
X80790000Y-68758578D01*
X82210000Y-68241422D02*
X82210000Y-68758578D01*
X84710000Y-68241422D02*
X84710000Y-68758578D01*
X83290000Y-68241422D02*
X83290000Y-68758578D01*
X85790000Y-68241422D02*
X85790000Y-68758578D01*
X87210000Y-68241422D02*
X87210000Y-68758578D01*
X88290000Y-68241422D02*
X88290000Y-68758578D01*
X89710000Y-68241422D02*
X89710000Y-68758578D01*
X96910000Y-37897936D02*
X96910000Y-39102064D01*
X95090000Y-37897936D02*
X95090000Y-39102064D01*
X98710000Y-68241422D02*
X98710000Y-68758578D01*
X97290000Y-68241422D02*
X97290000Y-68758578D01*
X99790000Y-68241422D02*
X99790000Y-68758578D01*
X101210000Y-68241422D02*
X101210000Y-68758578D01*
X103710000Y-68241422D02*
X103710000Y-68758578D01*
X102290000Y-68241422D02*
X102290000Y-68758578D01*
X104790000Y-68241422D02*
X104790000Y-68758578D01*
X106210000Y-68241422D02*
X106210000Y-68758578D01*
X108710000Y-68241422D02*
X108710000Y-68758578D01*
X107290000Y-68241422D02*
X107290000Y-68758578D01*
X111210000Y-68241422D02*
X111210000Y-68758578D01*
X109790000Y-68241422D02*
X109790000Y-68758578D01*
X113710000Y-68241422D02*
X113710000Y-68758578D01*
X112290000Y-68241422D02*
X112290000Y-68758578D01*
X114790000Y-68241422D02*
X114790000Y-68758578D01*
X116210000Y-68241422D02*
X116210000Y-68758578D01*
X118710000Y-68241422D02*
X118710000Y-68758578D01*
X117290000Y-68241422D02*
X117290000Y-68758578D01*
X119790000Y-68241422D02*
X119790000Y-68758578D01*
X121210000Y-68241422D02*
X121210000Y-68758578D01*
X126090000Y-37897936D02*
X126090000Y-39102064D01*
X127910000Y-37897936D02*
X127910000Y-39102064D01*
X127290000Y-95258578D02*
X127290000Y-94741422D01*
X128710000Y-95258578D02*
X128710000Y-94741422D01*
X128790000Y-68241422D02*
X128790000Y-68758578D01*
X130210000Y-68241422D02*
X130210000Y-68758578D01*
X132710000Y-68241422D02*
X132710000Y-68758578D01*
X131290000Y-68241422D02*
X131290000Y-68758578D01*
X133790000Y-68241422D02*
X133790000Y-68758578D01*
X135210000Y-68241422D02*
X135210000Y-68758578D01*
X136290000Y-68241422D02*
X136290000Y-68758578D01*
X137710000Y-68241422D02*
X137710000Y-68758578D01*
X140210000Y-68241422D02*
X140210000Y-68758578D01*
X138790000Y-68241422D02*
X138790000Y-68758578D01*
X141290000Y-68241422D02*
X141290000Y-68758578D01*
X142710000Y-68241422D02*
X142710000Y-68758578D01*
X145210000Y-68241422D02*
X145210000Y-68758578D01*
X143790000Y-68241422D02*
X143790000Y-68758578D01*
X146290000Y-68241422D02*
X146290000Y-68758578D01*
X147710000Y-68241422D02*
X147710000Y-68758578D01*
X150210000Y-68241422D02*
X150210000Y-68758578D01*
X148790000Y-68241422D02*
X148790000Y-68758578D01*
X151290000Y-68241422D02*
X151290000Y-68758578D01*
X152710000Y-68241422D02*
X152710000Y-68758578D01*
X158910000Y-37897936D02*
X158910000Y-39102064D01*
X157090000Y-37897936D02*
X157090000Y-39102064D01*
X161710000Y-68241422D02*
X161710000Y-68758578D01*
X160290000Y-68241422D02*
X160290000Y-68758578D01*
X162790000Y-68241422D02*
X162790000Y-68758578D01*
X164210000Y-68241422D02*
X164210000Y-68758578D01*
X166710000Y-68241422D02*
X166710000Y-68758578D01*
X165290000Y-68241422D02*
X165290000Y-68758578D01*
X167790000Y-68241422D02*
X167790000Y-68758578D01*
X169210000Y-68241422D02*
X169210000Y-68758578D01*
X171710000Y-68241422D02*
X171710000Y-68758578D01*
X170290000Y-68241422D02*
X170290000Y-68758578D01*
X172790000Y-68241422D02*
X172790000Y-68758578D01*
X174210000Y-68241422D02*
X174210000Y-68758578D01*
X176710000Y-68241422D02*
X176710000Y-68758578D01*
X175290000Y-68241422D02*
X175290000Y-68758578D01*
X177790000Y-68241422D02*
X177790000Y-68758578D01*
X179210000Y-68241422D02*
X179210000Y-68758578D01*
X181710000Y-68241422D02*
X181710000Y-68758578D01*
X180290000Y-68241422D02*
X180290000Y-68758578D01*
X182790000Y-68241422D02*
X182790000Y-68758578D01*
X184210000Y-68241422D02*
X184210000Y-68758578D01*
X188090000Y-37897936D02*
X188090000Y-39102064D01*
X189910000Y-37897936D02*
X189910000Y-39102064D01*
X190290000Y-95258578D02*
X190290000Y-94741422D01*
X191710000Y-95258578D02*
X191710000Y-94741422D01*
X193210000Y-68241422D02*
X193210000Y-68758578D01*
X191790000Y-68241422D02*
X191790000Y-68758578D01*
X194290000Y-68241422D02*
X194290000Y-68758578D01*
X195710000Y-68241422D02*
X195710000Y-68758578D01*
X198210000Y-68241422D02*
X198210000Y-68758578D01*
X196790000Y-68241422D02*
X196790000Y-68758578D01*
X199290000Y-68241422D02*
X199290000Y-68758578D01*
X200710000Y-68241422D02*
X200710000Y-68758578D01*
X203210000Y-68241422D02*
X203210000Y-68758578D01*
X201790000Y-68241422D02*
X201790000Y-68758578D01*
X204290000Y-68241422D02*
X204290000Y-68758578D01*
X205710000Y-68241422D02*
X205710000Y-68758578D01*
X208210000Y-68241422D02*
X208210000Y-68758578D01*
X206790000Y-68241422D02*
X206790000Y-68758578D01*
X209290000Y-68241422D02*
X209290000Y-68758578D01*
X210710000Y-68241422D02*
X210710000Y-68758578D01*
X213210000Y-68241422D02*
X213210000Y-68758578D01*
X211790000Y-68241422D02*
X211790000Y-68758578D01*
X214290000Y-68241422D02*
X214290000Y-68758578D01*
X215710000Y-68241422D02*
X215710000Y-68758578D01*
X220910000Y-37897936D02*
X220910000Y-39102064D01*
X219090000Y-37897936D02*
X219090000Y-39102064D01*
X39258578Y-26210000D02*
X38741422Y-26210000D01*
X39258578Y-24790000D02*
X38741422Y-24790000D01*
X41340000Y-38602064D02*
X41340000Y-37397936D01*
X43160000Y-38602064D02*
X43160000Y-37397936D01*
X43160000Y-33102064D02*
X43160000Y-31897936D01*
X41340000Y-33102064D02*
X41340000Y-31897936D01*
X62240000Y-46830000D02*
X62240000Y-44170000D01*
X39320000Y-46830000D02*
X62240000Y-46830000D01*
X39320000Y-44170000D02*
X62240000Y-44170000D01*
X39320000Y-46830000D02*
X39320000Y-44170000D01*
X38050000Y-46830000D02*
X36720000Y-46830000D01*
X36720000Y-46830000D02*
X36720000Y-45500000D01*
X63670000Y-46830000D02*
X63670000Y-45500000D01*
X65000000Y-46830000D02*
X63670000Y-46830000D01*
X66270000Y-46830000D02*
X66270000Y-44170000D01*
X66270000Y-44170000D02*
X66330000Y-44170000D01*
X66270000Y-46830000D02*
X66330000Y-46830000D01*
X66330000Y-46830000D02*
X66330000Y-44170000D01*
X67740000Y-46830000D02*
X67740000Y-45500000D01*
X69070000Y-46830000D02*
X67740000Y-46830000D01*
X70340000Y-46830000D02*
X70340000Y-44170000D01*
X70340000Y-44170000D02*
X93260000Y-44170000D01*
X70340000Y-46830000D02*
X93260000Y-46830000D01*
X93260000Y-46830000D02*
X93260000Y-44170000D01*
X97330000Y-46780000D02*
X97330000Y-44120000D01*
X97270000Y-46780000D02*
X97330000Y-46780000D01*
X97270000Y-44120000D02*
X97330000Y-44120000D01*
X97270000Y-46780000D02*
X97270000Y-44120000D01*
X96000000Y-46780000D02*
X94670000Y-46780000D01*
X94670000Y-46780000D02*
X94670000Y-45450000D01*
X98720000Y-46830000D02*
X98720000Y-45500000D01*
X100050000Y-46830000D02*
X98720000Y-46830000D01*
X101320000Y-46830000D02*
X101320000Y-44170000D01*
X101320000Y-44170000D02*
X124240000Y-44170000D01*
X101320000Y-46830000D02*
X124240000Y-46830000D01*
X124240000Y-46830000D02*
X124240000Y-44170000D01*
X125670000Y-46830000D02*
X125670000Y-45500000D01*
X127000000Y-46830000D02*
X125670000Y-46830000D01*
X128270000Y-46830000D02*
X128270000Y-44170000D01*
X128270000Y-44170000D02*
X128330000Y-44170000D01*
X128270000Y-46830000D02*
X128330000Y-46830000D01*
X128330000Y-46830000D02*
X128330000Y-44170000D01*
X155240000Y-46830000D02*
X155240000Y-44170000D01*
X132320000Y-46830000D02*
X155240000Y-46830000D01*
X132320000Y-44170000D02*
X155240000Y-44170000D01*
X132320000Y-46830000D02*
X132320000Y-44170000D01*
X131050000Y-46830000D02*
X129720000Y-46830000D01*
X129720000Y-46830000D02*
X129720000Y-45500000D01*
X159330000Y-46830000D02*
X159330000Y-44170000D01*
X159270000Y-46830000D02*
X159330000Y-46830000D01*
X159270000Y-44170000D02*
X159330000Y-44170000D01*
X159270000Y-46830000D02*
X159270000Y-44170000D01*
X158000000Y-46830000D02*
X156670000Y-46830000D01*
X156670000Y-46830000D02*
X156670000Y-45500000D01*
X160720000Y-46830000D02*
X160720000Y-45500000D01*
X162050000Y-46830000D02*
X160720000Y-46830000D01*
X163320000Y-46830000D02*
X163320000Y-44170000D01*
X163320000Y-44170000D02*
X186240000Y-44170000D01*
X163320000Y-46830000D02*
X186240000Y-46830000D01*
X186240000Y-46830000D02*
X186240000Y-44170000D01*
X190330000Y-46830000D02*
X190330000Y-44170000D01*
X190270000Y-46830000D02*
X190330000Y-46830000D01*
X190270000Y-44170000D02*
X190330000Y-44170000D01*
X190270000Y-46830000D02*
X190270000Y-44170000D01*
X189000000Y-46830000D02*
X187670000Y-46830000D01*
X187670000Y-46830000D02*
X187670000Y-45500000D01*
X217240000Y-46830000D02*
X217240000Y-44170000D01*
X194320000Y-46830000D02*
X217240000Y-46830000D01*
X194320000Y-44170000D02*
X217240000Y-44170000D01*
X194320000Y-46830000D02*
X194320000Y-44170000D01*
X193050000Y-46830000D02*
X191720000Y-46830000D01*
X191720000Y-46830000D02*
X191720000Y-45500000D01*
X218670000Y-46830000D02*
X218670000Y-45500000D01*
X220000000Y-46830000D02*
X218670000Y-46830000D01*
X221270000Y-46830000D02*
X221270000Y-44170000D01*
X221270000Y-44170000D02*
X221330000Y-44170000D01*
X221270000Y-46830000D02*
X221330000Y-46830000D01*
X221330000Y-46830000D02*
X221330000Y-44170000D01*
X51260000Y-81500000D02*
X51260000Y-79115000D01*
X51260000Y-79115000D02*
X50980000Y-79115000D01*
X51260000Y-81500000D02*
X51260000Y-83885000D01*
X51260000Y-83885000D02*
X50980000Y-83885000D01*
X40740000Y-81500000D02*
X40740000Y-79115000D01*
X40740000Y-79115000D02*
X41020000Y-79115000D01*
X40740000Y-81500000D02*
X40740000Y-83885000D01*
X40740000Y-83885000D02*
X41020000Y-83885000D01*
X41020000Y-83885000D02*
X41020000Y-85550000D01*
X104020000Y-83885000D02*
X104020000Y-85550000D01*
X103740000Y-83885000D02*
X104020000Y-83885000D01*
X103740000Y-81500000D02*
X103740000Y-83885000D01*
X103740000Y-79115000D02*
X104020000Y-79115000D01*
X103740000Y-81500000D02*
X103740000Y-79115000D01*
X114260000Y-83885000D02*
X113980000Y-83885000D01*
X114260000Y-81500000D02*
X114260000Y-83885000D01*
X114260000Y-79115000D02*
X113980000Y-79115000D01*
X114260000Y-81500000D02*
X114260000Y-79115000D01*
X145760000Y-81500000D02*
X145760000Y-79115000D01*
X145760000Y-79115000D02*
X145480000Y-79115000D01*
X145760000Y-81500000D02*
X145760000Y-83885000D01*
X145760000Y-83885000D02*
X145480000Y-83885000D01*
X135240000Y-81500000D02*
X135240000Y-79115000D01*
X135240000Y-79115000D02*
X135520000Y-79115000D01*
X135240000Y-81500000D02*
X135240000Y-83885000D01*
X135240000Y-83885000D02*
X135520000Y-83885000D01*
X135520000Y-83885000D02*
X135520000Y-85550000D01*
X177260000Y-81500000D02*
X177260000Y-79115000D01*
X177260000Y-79115000D02*
X176980000Y-79115000D01*
X177260000Y-81500000D02*
X177260000Y-83885000D01*
X177260000Y-83885000D02*
X176980000Y-83885000D01*
X166740000Y-81500000D02*
X166740000Y-79115000D01*
X166740000Y-79115000D02*
X167020000Y-79115000D01*
X166740000Y-81500000D02*
X166740000Y-83885000D01*
X166740000Y-83885000D02*
X167020000Y-83885000D01*
X167020000Y-83885000D02*
X167020000Y-85550000D01*
X198520000Y-83885000D02*
X198520000Y-85550000D01*
X198240000Y-83885000D02*
X198520000Y-83885000D01*
X198240000Y-81500000D02*
X198240000Y-83885000D01*
X198240000Y-79115000D02*
X198520000Y-79115000D01*
X198240000Y-81500000D02*
X198240000Y-79115000D01*
X208760000Y-83885000D02*
X208480000Y-83885000D01*
X208760000Y-81500000D02*
X208760000Y-83885000D01*
X208760000Y-79115000D02*
X208480000Y-79115000D01*
X208760000Y-81500000D02*
X208760000Y-79115000D01*
X67260000Y-101500000D02*
X67260000Y-99115000D01*
X67260000Y-99115000D02*
X66980000Y-99115000D01*
X67260000Y-101500000D02*
X67260000Y-103885000D01*
X67260000Y-103885000D02*
X66980000Y-103885000D01*
X56740000Y-101500000D02*
X56740000Y-99115000D01*
X56740000Y-99115000D02*
X57020000Y-99115000D01*
X56740000Y-101500000D02*
X56740000Y-103885000D01*
X56740000Y-103885000D02*
X57020000Y-103885000D01*
X57020000Y-103885000D02*
X57020000Y-105550000D01*
X130260000Y-101500000D02*
X130260000Y-99115000D01*
X130260000Y-99115000D02*
X129980000Y-99115000D01*
X130260000Y-101500000D02*
X130260000Y-103885000D01*
X130260000Y-103885000D02*
X129980000Y-103885000D01*
X119740000Y-101500000D02*
X119740000Y-99115000D01*
X119740000Y-99115000D02*
X120020000Y-99115000D01*
X119740000Y-101500000D02*
X119740000Y-103885000D01*
X119740000Y-103885000D02*
X120020000Y-103885000D01*
X120020000Y-103885000D02*
X120020000Y-105550000D01*
X183020000Y-103885000D02*
X183020000Y-105550000D01*
X182740000Y-103885000D02*
X183020000Y-103885000D01*
X182740000Y-101500000D02*
X182740000Y-103885000D01*
X182740000Y-99115000D02*
X183020000Y-99115000D01*
X182740000Y-101500000D02*
X182740000Y-99115000D01*
X193260000Y-103885000D02*
X192980000Y-103885000D01*
X193260000Y-101500000D02*
X193260000Y-103885000D01*
X193260000Y-99115000D02*
X192980000Y-99115000D01*
X193260000Y-101500000D02*
X193260000Y-99115000D01*
D11*
X44483164Y-35791286D02*
X44382148Y-35824957D01*
X44247461Y-35824957D01*
X44045431Y-35824957D01*
X43944416Y-35858629D01*
X43877072Y-35925973D01*
X44079103Y-36060660D02*
X43978087Y-36094331D01*
X43843400Y-36094331D01*
X43675042Y-35993316D01*
X43439339Y-35757614D01*
X43338324Y-35589255D01*
X43338324Y-35454568D01*
X43371996Y-35353553D01*
X43506683Y-35218866D01*
X43607698Y-35185194D01*
X43742385Y-35185194D01*
X43910744Y-35286209D01*
X44146446Y-35521912D01*
X44247461Y-35690270D01*
X44247461Y-35824957D01*
X44213790Y-35925973D01*
X44079103Y-36060660D01*
X44281133Y-34444416D02*
X44146446Y-34579103D01*
X44112774Y-34680118D01*
X44112774Y-34747461D01*
X44146446Y-34915820D01*
X44247461Y-35084179D01*
X44516835Y-35353553D01*
X44617851Y-35387225D01*
X44685194Y-35387225D01*
X44786209Y-35353553D01*
X44920896Y-35218866D01*
X44954568Y-35117851D01*
X44954568Y-35050507D01*
X44920896Y-34949492D01*
X44752538Y-34781133D01*
X44651522Y-34747461D01*
X44584179Y-34747461D01*
X44483164Y-34781133D01*
X44348477Y-34915820D01*
X44314805Y-35016835D01*
X44314805Y-35084179D01*
X44348477Y-35185194D01*
X44685194Y-34175042D02*
X44685194Y-34107698D01*
X44718866Y-34006683D01*
X44887225Y-33838324D01*
X44988240Y-33804652D01*
X45055583Y-33804652D01*
X45156599Y-33838324D01*
X45223942Y-33905668D01*
X45291286Y-34040355D01*
X45291286Y-34848477D01*
X45729018Y-34410744D01*
X70952380Y-83761904D02*
X71761904Y-83761904D01*
X71857142Y-83714285D01*
X71904761Y-83666666D01*
X71952380Y-83571428D01*
X71952380Y-83380952D01*
X71904761Y-83285714D01*
X71857142Y-83238095D01*
X71761904Y-83190476D01*
X70952380Y-83190476D01*
X70952380Y-82809523D02*
X70952380Y-82190476D01*
X71333333Y-82523809D01*
X71333333Y-82380952D01*
X71380952Y-82285714D01*
X71428571Y-82238095D01*
X71523809Y-82190476D01*
X71761904Y-82190476D01*
X71857142Y-82238095D01*
X71904761Y-82285714D01*
X71952380Y-82380952D01*
X71952380Y-82666666D01*
X71904761Y-82761904D01*
X71857142Y-82809523D01*
X138583164Y-66191286D02*
X138482148Y-66224957D01*
X138347461Y-66224957D01*
X138145431Y-66224957D01*
X138044416Y-66258629D01*
X137977072Y-66325973D01*
X138179103Y-66460660D02*
X138078087Y-66494331D01*
X137943400Y-66494331D01*
X137775042Y-66393316D01*
X137539339Y-66157614D01*
X137438324Y-65989255D01*
X137438324Y-65854568D01*
X137471996Y-65753553D01*
X137606683Y-65618866D01*
X137707698Y-65585194D01*
X137842385Y-65585194D01*
X138010744Y-65686209D01*
X138246446Y-65921912D01*
X138347461Y-66090270D01*
X138347461Y-66224957D01*
X138313790Y-66325973D01*
X138179103Y-66460660D01*
X138010744Y-65214805D02*
X138448477Y-64777072D01*
X138482148Y-65282148D01*
X138583164Y-65181133D01*
X138684179Y-65147461D01*
X138751522Y-65147461D01*
X138852538Y-65181133D01*
X139020896Y-65349492D01*
X139054568Y-65450507D01*
X139054568Y-65517851D01*
X139020896Y-65618866D01*
X138818866Y-65820896D01*
X138717851Y-65854568D01*
X138650507Y-65854568D01*
X139290270Y-64406683D02*
X139761675Y-64878087D01*
X138852538Y-64305668D02*
X139189255Y-64979103D01*
X139626988Y-64541370D01*
X163083164Y-59191286D02*
X162982148Y-59224957D01*
X162847461Y-59224957D01*
X162645431Y-59224957D01*
X162544416Y-59258629D01*
X162477072Y-59325973D01*
X162679103Y-59460660D02*
X162578087Y-59494331D01*
X162443400Y-59494331D01*
X162275042Y-59393316D01*
X162039339Y-59157614D01*
X161938324Y-58989255D01*
X161938324Y-58854568D01*
X161971996Y-58753553D01*
X162106683Y-58618866D01*
X162207698Y-58585194D01*
X162342385Y-58585194D01*
X162510744Y-58686209D01*
X162746446Y-58921912D01*
X162847461Y-59090270D01*
X162847461Y-59224957D01*
X162813790Y-59325973D01*
X162679103Y-59460660D01*
X163116835Y-58080118D02*
X163588240Y-58551522D01*
X162679103Y-57979103D02*
X163015820Y-58652538D01*
X163453553Y-58214805D01*
X163285194Y-57575042D02*
X163285194Y-57507698D01*
X163318866Y-57406683D01*
X163487225Y-57238324D01*
X163588240Y-57204652D01*
X163655583Y-57204652D01*
X163756599Y-57238324D01*
X163823942Y-57305668D01*
X163891286Y-57440355D01*
X163891286Y-58248477D01*
X164329018Y-57810744D01*
X173583164Y-59191286D02*
X173482148Y-59224957D01*
X173347461Y-59224957D01*
X173145431Y-59224957D01*
X173044416Y-59258629D01*
X172977072Y-59325973D01*
X173179103Y-59460660D02*
X173078087Y-59494331D01*
X172943400Y-59494331D01*
X172775042Y-59393316D01*
X172539339Y-59157614D01*
X172438324Y-58989255D01*
X172438324Y-58854568D01*
X172471996Y-58753553D01*
X172606683Y-58618866D01*
X172707698Y-58585194D01*
X172842385Y-58585194D01*
X173010744Y-58686209D01*
X173246446Y-58921912D01*
X173347461Y-59090270D01*
X173347461Y-59224957D01*
X173313790Y-59325973D01*
X173179103Y-59460660D01*
X173616835Y-58080118D02*
X174088240Y-58551522D01*
X173179103Y-57979103D02*
X173515820Y-58652538D01*
X173953553Y-58214805D01*
X174054568Y-57170981D02*
X173919881Y-57305668D01*
X173886209Y-57406683D01*
X173886209Y-57474026D01*
X173919881Y-57642385D01*
X174020896Y-57810744D01*
X174290270Y-58080118D01*
X174391286Y-58113790D01*
X174458629Y-58113790D01*
X174559644Y-58080118D01*
X174694331Y-57945431D01*
X174728003Y-57844416D01*
X174728003Y-57777072D01*
X174694331Y-57676057D01*
X174525973Y-57507698D01*
X174424957Y-57474026D01*
X174357614Y-57474026D01*
X174256599Y-57507698D01*
X174121912Y-57642385D01*
X174088240Y-57743400D01*
X174088240Y-57810744D01*
X174121912Y-57911759D01*
X152583164Y-59191286D02*
X152482148Y-59224957D01*
X152347461Y-59224957D01*
X152145431Y-59224957D01*
X152044416Y-59258629D01*
X151977072Y-59325973D01*
X152179103Y-59460660D02*
X152078087Y-59494331D01*
X151943400Y-59494331D01*
X151775042Y-59393316D01*
X151539339Y-59157614D01*
X151438324Y-58989255D01*
X151438324Y-58854568D01*
X151471996Y-58753553D01*
X151606683Y-58618866D01*
X151707698Y-58585194D01*
X151842385Y-58585194D01*
X152010744Y-58686209D01*
X152246446Y-58921912D01*
X152347461Y-59090270D01*
X152347461Y-59224957D01*
X152313790Y-59325973D01*
X152179103Y-59460660D01*
X152616835Y-58080118D02*
X153088240Y-58551522D01*
X152179103Y-57979103D02*
X152515820Y-58652538D01*
X152953553Y-58214805D01*
X152886209Y-57339339D02*
X152953553Y-57271996D01*
X153054568Y-57238324D01*
X153121912Y-57238324D01*
X153222927Y-57271996D01*
X153391286Y-57373011D01*
X153559644Y-57541370D01*
X153660660Y-57709729D01*
X153694331Y-57810744D01*
X153694331Y-57878087D01*
X153660660Y-57979103D01*
X153593316Y-58046446D01*
X153492301Y-58080118D01*
X153424957Y-58080118D01*
X153323942Y-58046446D01*
X153155583Y-57945431D01*
X152987225Y-57777072D01*
X152886209Y-57608713D01*
X152852538Y-57507698D01*
X152852538Y-57440355D01*
X152886209Y-57339339D01*
X145583164Y-62691286D02*
X145482148Y-62724957D01*
X145347461Y-62724957D01*
X145145431Y-62724957D01*
X145044416Y-62758629D01*
X144977072Y-62825973D01*
X145179103Y-62960660D02*
X145078087Y-62994331D01*
X144943400Y-62994331D01*
X144775042Y-62893316D01*
X144539339Y-62657614D01*
X144438324Y-62489255D01*
X144438324Y-62354568D01*
X144471996Y-62253553D01*
X144606683Y-62118866D01*
X144707698Y-62085194D01*
X144842385Y-62085194D01*
X145010744Y-62186209D01*
X145246446Y-62421912D01*
X145347461Y-62590270D01*
X145347461Y-62724957D01*
X145313790Y-62825973D01*
X145179103Y-62960660D01*
X145010744Y-61714805D02*
X145448477Y-61277072D01*
X145482148Y-61782148D01*
X145583164Y-61681133D01*
X145684179Y-61647461D01*
X145751522Y-61647461D01*
X145852538Y-61681133D01*
X146020896Y-61849492D01*
X146054568Y-61950507D01*
X146054568Y-62017851D01*
X146020896Y-62118866D01*
X145818866Y-62320896D01*
X145717851Y-62354568D01*
X145650507Y-62354568D01*
X145684179Y-61041370D02*
X146155583Y-60569965D01*
X146559644Y-61580118D01*
X138483164Y-55791286D02*
X138382148Y-55824957D01*
X138247461Y-55824957D01*
X138045431Y-55824957D01*
X137944416Y-55858629D01*
X137877072Y-55925973D01*
X138079103Y-56060660D02*
X137978087Y-56094331D01*
X137843400Y-56094331D01*
X137675042Y-55993316D01*
X137439339Y-55757614D01*
X137338324Y-55589255D01*
X137338324Y-55454568D01*
X137371996Y-55353553D01*
X137506683Y-55218866D01*
X137607698Y-55185194D01*
X137742385Y-55185194D01*
X137910744Y-55286209D01*
X138146446Y-55521912D01*
X138247461Y-55690270D01*
X138247461Y-55824957D01*
X138213790Y-55925973D01*
X138079103Y-56060660D01*
X137910744Y-54814805D02*
X138348477Y-54377072D01*
X138382148Y-54882148D01*
X138483164Y-54781133D01*
X138584179Y-54747461D01*
X138651522Y-54747461D01*
X138752538Y-54781133D01*
X138920896Y-54949492D01*
X138954568Y-55050507D01*
X138954568Y-55117851D01*
X138920896Y-55218866D01*
X138718866Y-55420896D01*
X138617851Y-55454568D01*
X138550507Y-55454568D01*
X138988240Y-53737309D02*
X138651522Y-54074026D01*
X138954568Y-54444416D01*
X138954568Y-54377072D01*
X138988240Y-54276057D01*
X139156599Y-54107698D01*
X139257614Y-54074026D01*
X139324957Y-54074026D01*
X139425973Y-54107698D01*
X139594331Y-54276057D01*
X139628003Y-54377072D01*
X139628003Y-54444416D01*
X139594331Y-54545431D01*
X139425973Y-54713790D01*
X139324957Y-54747461D01*
X139257614Y-54747461D01*
X121083164Y-59191286D02*
X120982148Y-59224957D01*
X120847461Y-59224957D01*
X120645431Y-59224957D01*
X120544416Y-59258629D01*
X120477072Y-59325973D01*
X120679103Y-59460660D02*
X120578087Y-59494331D01*
X120443400Y-59494331D01*
X120275042Y-59393316D01*
X120039339Y-59157614D01*
X119938324Y-58989255D01*
X119938324Y-58854568D01*
X119971996Y-58753553D01*
X120106683Y-58618866D01*
X120207698Y-58585194D01*
X120342385Y-58585194D01*
X120510744Y-58686209D01*
X120746446Y-58921912D01*
X120847461Y-59090270D01*
X120847461Y-59224957D01*
X120813790Y-59325973D01*
X120679103Y-59460660D01*
X120510744Y-58214805D02*
X120948477Y-57777072D01*
X120982148Y-58282148D01*
X121083164Y-58181133D01*
X121184179Y-58147461D01*
X121251522Y-58147461D01*
X121352538Y-58181133D01*
X121520896Y-58349492D01*
X121554568Y-58450507D01*
X121554568Y-58517851D01*
X121520896Y-58618866D01*
X121318866Y-58820896D01*
X121217851Y-58854568D01*
X121150507Y-58854568D01*
X121386209Y-57339339D02*
X121453553Y-57271996D01*
X121554568Y-57238324D01*
X121621912Y-57238324D01*
X121722927Y-57271996D01*
X121891286Y-57373011D01*
X122059644Y-57541370D01*
X122160660Y-57709729D01*
X122194331Y-57810744D01*
X122194331Y-57878087D01*
X122160660Y-57979103D01*
X122093316Y-58046446D01*
X121992301Y-58080118D01*
X121924957Y-58080118D01*
X121823942Y-58046446D01*
X121655583Y-57945431D01*
X121487225Y-57777072D01*
X121386209Y-57608713D01*
X121352538Y-57507698D01*
X121352538Y-57440355D01*
X121386209Y-57339339D01*
X85983164Y-55791286D02*
X85882148Y-55824957D01*
X85747461Y-55824957D01*
X85545431Y-55824957D01*
X85444416Y-55858629D01*
X85377072Y-55925973D01*
X85579103Y-56060660D02*
X85478087Y-56094331D01*
X85343400Y-56094331D01*
X85175042Y-55993316D01*
X84939339Y-55757614D01*
X84838324Y-55589255D01*
X84838324Y-55454568D01*
X84871996Y-55353553D01*
X85006683Y-55218866D01*
X85107698Y-55185194D01*
X85242385Y-55185194D01*
X85410744Y-55286209D01*
X85646446Y-55521912D01*
X85747461Y-55690270D01*
X85747461Y-55824957D01*
X85713790Y-55925973D01*
X85579103Y-56060660D01*
X86555583Y-55084179D02*
X86151522Y-55488240D01*
X86353553Y-55286209D02*
X85646446Y-54579103D01*
X85680118Y-54747461D01*
X85680118Y-54882148D01*
X85646446Y-54983164D01*
X86892301Y-54747461D02*
X87026988Y-54612774D01*
X87060660Y-54511759D01*
X87060660Y-54444416D01*
X87026988Y-54276057D01*
X86925973Y-54107698D01*
X86656599Y-53838324D01*
X86555583Y-53804652D01*
X86488240Y-53804652D01*
X86387225Y-53838324D01*
X86252538Y-53973011D01*
X86218866Y-54074026D01*
X86218866Y-54141370D01*
X86252538Y-54242385D01*
X86420896Y-54410744D01*
X86521912Y-54444416D01*
X86589255Y-54444416D01*
X86690270Y-54410744D01*
X86824957Y-54276057D01*
X86858629Y-54175042D01*
X86858629Y-54107698D01*
X86824957Y-54006683D01*
X44619881Y-65654568D02*
X44518866Y-65688240D01*
X44384179Y-65688240D01*
X44182148Y-65688240D01*
X44081133Y-65721912D01*
X44013790Y-65789255D01*
X44215820Y-65923942D02*
X44114805Y-65957614D01*
X43980118Y-65957614D01*
X43811759Y-65856599D01*
X43576057Y-65620896D01*
X43475042Y-65452538D01*
X43475042Y-65317851D01*
X43508713Y-65216835D01*
X43643400Y-65082148D01*
X43744416Y-65048477D01*
X43879103Y-65048477D01*
X44047461Y-65149492D01*
X44283164Y-65385194D01*
X44384179Y-65553553D01*
X44384179Y-65688240D01*
X44350507Y-65789255D01*
X44215820Y-65923942D01*
X44653553Y-64543400D02*
X45124957Y-65014805D01*
X44215820Y-64442385D02*
X44552538Y-65115820D01*
X44990270Y-64678087D01*
X57490476Y-28552380D02*
X57490476Y-29266666D01*
X57442857Y-29409523D01*
X57347619Y-29504761D01*
X57204761Y-29552380D01*
X57109523Y-29552380D01*
X58490476Y-29552380D02*
X57919047Y-29552380D01*
X58204761Y-29552380D02*
X58204761Y-28552380D01*
X58109523Y-28695238D01*
X58014285Y-28790476D01*
X57919047Y-28838095D01*
X58823809Y-28552380D02*
X59442857Y-28552380D01*
X59109523Y-28933333D01*
X59252380Y-28933333D01*
X59347619Y-28980952D01*
X59395238Y-29028571D01*
X59442857Y-29123809D01*
X59442857Y-29361904D01*
X59395238Y-29457142D01*
X59347619Y-29504761D01*
X59252380Y-29552380D01*
X58966666Y-29552380D01*
X58871428Y-29504761D01*
X58823809Y-29457142D01*
X38357142Y-80666666D02*
X38404761Y-80714285D01*
X38452380Y-80857142D01*
X38452380Y-80952380D01*
X38404761Y-81095238D01*
X38309523Y-81190476D01*
X38214285Y-81238095D01*
X38023809Y-81285714D01*
X37880952Y-81285714D01*
X37690476Y-81238095D01*
X37595238Y-81190476D01*
X37500000Y-81095238D01*
X37452380Y-80952380D01*
X37452380Y-80857142D01*
X37500000Y-80714285D01*
X37547619Y-80666666D01*
X38452380Y-79714285D02*
X38452380Y-80285714D01*
X38452380Y-80000000D02*
X37452380Y-80000000D01*
X37595238Y-80095238D01*
X37690476Y-80190476D01*
X37738095Y-80285714D01*
X54833333Y-100757142D02*
X54785714Y-100804761D01*
X54642857Y-100852380D01*
X54547619Y-100852380D01*
X54404761Y-100804761D01*
X54309523Y-100709523D01*
X54261904Y-100614285D01*
X54214285Y-100423809D01*
X54214285Y-100280952D01*
X54261904Y-100090476D01*
X54309523Y-99995238D01*
X54404761Y-99900000D01*
X54547619Y-99852380D01*
X54642857Y-99852380D01*
X54785714Y-99900000D01*
X54833333Y-99947619D01*
X55214285Y-99947619D02*
X55261904Y-99900000D01*
X55357142Y-99852380D01*
X55595238Y-99852380D01*
X55690476Y-99900000D01*
X55738095Y-99947619D01*
X55785714Y-100042857D01*
X55785714Y-100138095D01*
X55738095Y-100280952D01*
X55166666Y-100852380D01*
X55785714Y-100852380D01*
X69857142Y-80666666D02*
X69904761Y-80714285D01*
X69952380Y-80857142D01*
X69952380Y-80952380D01*
X69904761Y-81095238D01*
X69809523Y-81190476D01*
X69714285Y-81238095D01*
X69523809Y-81285714D01*
X69380952Y-81285714D01*
X69190476Y-81238095D01*
X69095238Y-81190476D01*
X69000000Y-81095238D01*
X68952380Y-80952380D01*
X68952380Y-80857142D01*
X69000000Y-80714285D01*
X69047619Y-80666666D01*
X68952380Y-80333333D02*
X68952380Y-79714285D01*
X69333333Y-80047619D01*
X69333333Y-79904761D01*
X69380952Y-79809523D01*
X69428571Y-79761904D01*
X69523809Y-79714285D01*
X69761904Y-79714285D01*
X69857142Y-79761904D01*
X69904761Y-79809523D01*
X69952380Y-79904761D01*
X69952380Y-80190476D01*
X69904761Y-80285714D01*
X69857142Y-80333333D01*
X101357142Y-80666666D02*
X101404761Y-80714285D01*
X101452380Y-80857142D01*
X101452380Y-80952380D01*
X101404761Y-81095238D01*
X101309523Y-81190476D01*
X101214285Y-81238095D01*
X101023809Y-81285714D01*
X100880952Y-81285714D01*
X100690476Y-81238095D01*
X100595238Y-81190476D01*
X100500000Y-81095238D01*
X100452380Y-80952380D01*
X100452380Y-80857142D01*
X100500000Y-80714285D01*
X100547619Y-80666666D01*
X100785714Y-79809523D02*
X101452380Y-79809523D01*
X100404761Y-80047619D02*
X101119047Y-80285714D01*
X101119047Y-79666666D01*
X117833333Y-100757142D02*
X117785714Y-100804761D01*
X117642857Y-100852380D01*
X117547619Y-100852380D01*
X117404761Y-100804761D01*
X117309523Y-100709523D01*
X117261904Y-100614285D01*
X117214285Y-100423809D01*
X117214285Y-100280952D01*
X117261904Y-100090476D01*
X117309523Y-99995238D01*
X117404761Y-99900000D01*
X117547619Y-99852380D01*
X117642857Y-99852380D01*
X117785714Y-99900000D01*
X117833333Y-99947619D01*
X118738095Y-99852380D02*
X118261904Y-99852380D01*
X118214285Y-100328571D01*
X118261904Y-100280952D01*
X118357142Y-100233333D01*
X118595238Y-100233333D01*
X118690476Y-100280952D01*
X118738095Y-100328571D01*
X118785714Y-100423809D01*
X118785714Y-100661904D01*
X118738095Y-100757142D01*
X118690476Y-100804761D01*
X118595238Y-100852380D01*
X118357142Y-100852380D01*
X118261904Y-100804761D01*
X118214285Y-100757142D01*
X132857142Y-80666666D02*
X132904761Y-80714285D01*
X132952380Y-80857142D01*
X132952380Y-80952380D01*
X132904761Y-81095238D01*
X132809523Y-81190476D01*
X132714285Y-81238095D01*
X132523809Y-81285714D01*
X132380952Y-81285714D01*
X132190476Y-81238095D01*
X132095238Y-81190476D01*
X132000000Y-81095238D01*
X131952380Y-80952380D01*
X131952380Y-80857142D01*
X132000000Y-80714285D01*
X132047619Y-80666666D01*
X131952380Y-79809523D02*
X131952380Y-80000000D01*
X132000000Y-80095238D01*
X132047619Y-80142857D01*
X132190476Y-80238095D01*
X132380952Y-80285714D01*
X132761904Y-80285714D01*
X132857142Y-80238095D01*
X132904761Y-80190476D01*
X132952380Y-80095238D01*
X132952380Y-79904761D01*
X132904761Y-79809523D01*
X132857142Y-79761904D01*
X132761904Y-79714285D01*
X132523809Y-79714285D01*
X132428571Y-79761904D01*
X132380952Y-79809523D01*
X132333333Y-79904761D01*
X132333333Y-80095238D01*
X132380952Y-80190476D01*
X132428571Y-80238095D01*
X132523809Y-80285714D01*
X164357142Y-80666666D02*
X164404761Y-80714285D01*
X164452380Y-80857142D01*
X164452380Y-80952380D01*
X164404761Y-81095238D01*
X164309523Y-81190476D01*
X164214285Y-81238095D01*
X164023809Y-81285714D01*
X163880952Y-81285714D01*
X163690476Y-81238095D01*
X163595238Y-81190476D01*
X163500000Y-81095238D01*
X163452380Y-80952380D01*
X163452380Y-80857142D01*
X163500000Y-80714285D01*
X163547619Y-80666666D01*
X163452380Y-80333333D02*
X163452380Y-79666666D01*
X164452380Y-80095238D01*
X180833333Y-100757142D02*
X180785714Y-100804761D01*
X180642857Y-100852380D01*
X180547619Y-100852380D01*
X180404761Y-100804761D01*
X180309523Y-100709523D01*
X180261904Y-100614285D01*
X180214285Y-100423809D01*
X180214285Y-100280952D01*
X180261904Y-100090476D01*
X180309523Y-99995238D01*
X180404761Y-99900000D01*
X180547619Y-99852380D01*
X180642857Y-99852380D01*
X180785714Y-99900000D01*
X180833333Y-99947619D01*
X181404761Y-100280952D02*
X181309523Y-100233333D01*
X181261904Y-100185714D01*
X181214285Y-100090476D01*
X181214285Y-100042857D01*
X181261904Y-99947619D01*
X181309523Y-99900000D01*
X181404761Y-99852380D01*
X181595238Y-99852380D01*
X181690476Y-99900000D01*
X181738095Y-99947619D01*
X181785714Y-100042857D01*
X181785714Y-100090476D01*
X181738095Y-100185714D01*
X181690476Y-100233333D01*
X181595238Y-100280952D01*
X181404761Y-100280952D01*
X181309523Y-100328571D01*
X181261904Y-100376190D01*
X181214285Y-100471428D01*
X181214285Y-100661904D01*
X181261904Y-100757142D01*
X181309523Y-100804761D01*
X181404761Y-100852380D01*
X181595238Y-100852380D01*
X181690476Y-100804761D01*
X181738095Y-100757142D01*
X181785714Y-100661904D01*
X181785714Y-100471428D01*
X181738095Y-100376190D01*
X181690476Y-100328571D01*
X181595238Y-100280952D01*
X195857142Y-80666666D02*
X195904761Y-80714285D01*
X195952380Y-80857142D01*
X195952380Y-80952380D01*
X195904761Y-81095238D01*
X195809523Y-81190476D01*
X195714285Y-81238095D01*
X195523809Y-81285714D01*
X195380952Y-81285714D01*
X195190476Y-81238095D01*
X195095238Y-81190476D01*
X195000000Y-81095238D01*
X194952380Y-80952380D01*
X194952380Y-80857142D01*
X195000000Y-80714285D01*
X195047619Y-80666666D01*
X195952380Y-80190476D02*
X195952380Y-80000000D01*
X195904761Y-79904761D01*
X195857142Y-79857142D01*
X195714285Y-79761904D01*
X195523809Y-79714285D01*
X195142857Y-79714285D01*
X195047619Y-79761904D01*
X195000000Y-79809523D01*
X194952380Y-79904761D01*
X194952380Y-80095238D01*
X195000000Y-80190476D01*
X195047619Y-80238095D01*
X195142857Y-80285714D01*
X195380952Y-80285714D01*
X195476190Y-80238095D01*
X195523809Y-80190476D01*
X195571428Y-80095238D01*
X195571428Y-79904761D01*
X195523809Y-79809523D01*
X195476190Y-79761904D01*
X195380952Y-79714285D01*
X34319881Y-54954568D02*
X34218866Y-54988240D01*
X34084179Y-54988240D01*
X33882148Y-54988240D01*
X33781133Y-55021912D01*
X33713790Y-55089255D01*
X33915820Y-55223942D02*
X33814805Y-55257614D01*
X33680118Y-55257614D01*
X33511759Y-55156599D01*
X33276057Y-54920896D01*
X33175042Y-54752538D01*
X33175042Y-54617851D01*
X33208713Y-54516835D01*
X33343400Y-54382148D01*
X33444416Y-54348477D01*
X33579103Y-54348477D01*
X33747461Y-54449492D01*
X33983164Y-54685194D01*
X34084179Y-54853553D01*
X34084179Y-54988240D01*
X34050507Y-55089255D01*
X33915820Y-55223942D01*
X34892301Y-54247461D02*
X34488240Y-54651522D01*
X34690270Y-54449492D02*
X33983164Y-53742385D01*
X34016835Y-53910744D01*
X34016835Y-54045431D01*
X33983164Y-54146446D01*
X37719881Y-58554568D02*
X37618866Y-58588240D01*
X37484179Y-58588240D01*
X37282148Y-58588240D01*
X37181133Y-58621912D01*
X37113790Y-58689255D01*
X37315820Y-58823942D02*
X37214805Y-58857614D01*
X37080118Y-58857614D01*
X36911759Y-58756599D01*
X36676057Y-58520896D01*
X36575042Y-58352538D01*
X36575042Y-58217851D01*
X36608713Y-58116835D01*
X36743400Y-57982148D01*
X36844416Y-57948477D01*
X36979103Y-57948477D01*
X37147461Y-58049492D01*
X37383164Y-58285194D01*
X37484179Y-58453553D01*
X37484179Y-58588240D01*
X37450507Y-58689255D01*
X37315820Y-58823942D01*
X37248477Y-57611759D02*
X37248477Y-57544416D01*
X37282148Y-57443400D01*
X37450507Y-57275042D01*
X37551522Y-57241370D01*
X37618866Y-57241370D01*
X37719881Y-57275042D01*
X37787225Y-57342385D01*
X37854568Y-57477072D01*
X37854568Y-58285194D01*
X38292301Y-57847461D01*
X41219881Y-62054568D02*
X41118866Y-62088240D01*
X40984179Y-62088240D01*
X40782148Y-62088240D01*
X40681133Y-62121912D01*
X40613790Y-62189255D01*
X40815820Y-62323942D02*
X40714805Y-62357614D01*
X40580118Y-62357614D01*
X40411759Y-62256599D01*
X40176057Y-62020896D01*
X40075042Y-61852538D01*
X40075042Y-61717851D01*
X40108713Y-61616835D01*
X40243400Y-61482148D01*
X40344416Y-61448477D01*
X40479103Y-61448477D01*
X40647461Y-61549492D01*
X40883164Y-61785194D01*
X40984179Y-61953553D01*
X40984179Y-62088240D01*
X40950507Y-62189255D01*
X40815820Y-62323942D01*
X40647461Y-61078087D02*
X41085194Y-60640355D01*
X41118866Y-61145431D01*
X41219881Y-61044416D01*
X41320896Y-61010744D01*
X41388240Y-61010744D01*
X41489255Y-61044416D01*
X41657614Y-61212774D01*
X41691286Y-61313790D01*
X41691286Y-61381133D01*
X41657614Y-61482148D01*
X41455583Y-61684179D01*
X41354568Y-61717851D01*
X41287225Y-61717851D01*
X44719881Y-55054568D02*
X44618866Y-55088240D01*
X44484179Y-55088240D01*
X44282148Y-55088240D01*
X44181133Y-55121912D01*
X44113790Y-55189255D01*
X44315820Y-55323942D02*
X44214805Y-55357614D01*
X44080118Y-55357614D01*
X43911759Y-55256599D01*
X43676057Y-55020896D01*
X43575042Y-54852538D01*
X43575042Y-54717851D01*
X43608713Y-54616835D01*
X43743400Y-54482148D01*
X43844416Y-54448477D01*
X43979103Y-54448477D01*
X44147461Y-54549492D01*
X44383164Y-54785194D01*
X44484179Y-54953553D01*
X44484179Y-55088240D01*
X44450507Y-55189255D01*
X44315820Y-55323942D01*
X44551522Y-53674026D02*
X44214805Y-54010744D01*
X44517851Y-54381133D01*
X44517851Y-54313790D01*
X44551522Y-54212774D01*
X44719881Y-54044416D01*
X44820896Y-54010744D01*
X44888240Y-54010744D01*
X44989255Y-54044416D01*
X45157614Y-54212774D01*
X45191286Y-54313790D01*
X45191286Y-54381133D01*
X45157614Y-54482148D01*
X44989255Y-54650507D01*
X44888240Y-54684179D01*
X44820896Y-54684179D01*
X48219881Y-58554568D02*
X48118866Y-58588240D01*
X47984179Y-58588240D01*
X47782148Y-58588240D01*
X47681133Y-58621912D01*
X47613790Y-58689255D01*
X47815820Y-58823942D02*
X47714805Y-58857614D01*
X47580118Y-58857614D01*
X47411759Y-58756599D01*
X47176057Y-58520896D01*
X47075042Y-58352538D01*
X47075042Y-58217851D01*
X47108713Y-58116835D01*
X47243400Y-57982148D01*
X47344416Y-57948477D01*
X47479103Y-57948477D01*
X47647461Y-58049492D01*
X47883164Y-58285194D01*
X47984179Y-58453553D01*
X47984179Y-58588240D01*
X47950507Y-58689255D01*
X47815820Y-58823942D01*
X48017851Y-57207698D02*
X47883164Y-57342385D01*
X47849492Y-57443400D01*
X47849492Y-57510744D01*
X47883164Y-57679103D01*
X47984179Y-57847461D01*
X48253553Y-58116835D01*
X48354568Y-58150507D01*
X48421912Y-58150507D01*
X48522927Y-58116835D01*
X48657614Y-57982148D01*
X48691286Y-57881133D01*
X48691286Y-57813790D01*
X48657614Y-57712774D01*
X48489255Y-57544416D01*
X48388240Y-57510744D01*
X48320896Y-57510744D01*
X48219881Y-57544416D01*
X48085194Y-57679103D01*
X48051522Y-57780118D01*
X48051522Y-57847461D01*
X48085194Y-57948477D01*
X51719881Y-61954568D02*
X51618866Y-61988240D01*
X51484179Y-61988240D01*
X51282148Y-61988240D01*
X51181133Y-62021912D01*
X51113790Y-62089255D01*
X51315820Y-62223942D02*
X51214805Y-62257614D01*
X51080118Y-62257614D01*
X50911759Y-62156599D01*
X50676057Y-61920896D01*
X50575042Y-61752538D01*
X50575042Y-61617851D01*
X50608713Y-61516835D01*
X50743400Y-61382148D01*
X50844416Y-61348477D01*
X50979103Y-61348477D01*
X51147461Y-61449492D01*
X51383164Y-61685194D01*
X51484179Y-61853553D01*
X51484179Y-61988240D01*
X51450507Y-62089255D01*
X51315820Y-62223942D01*
X51147461Y-60978087D02*
X51618866Y-60506683D01*
X52022927Y-61516835D01*
X55219881Y-65554568D02*
X55118866Y-65588240D01*
X54984179Y-65588240D01*
X54782148Y-65588240D01*
X54681133Y-65621912D01*
X54613790Y-65689255D01*
X54815820Y-65823942D02*
X54714805Y-65857614D01*
X54580118Y-65857614D01*
X54411759Y-65756599D01*
X54176057Y-65520896D01*
X54075042Y-65352538D01*
X54075042Y-65217851D01*
X54108713Y-65116835D01*
X54243400Y-64982148D01*
X54344416Y-64948477D01*
X54479103Y-64948477D01*
X54647461Y-65049492D01*
X54883164Y-65285194D01*
X54984179Y-65453553D01*
X54984179Y-65588240D01*
X54950507Y-65689255D01*
X54815820Y-65823942D01*
X55118866Y-64712774D02*
X55017851Y-64746446D01*
X54950507Y-64746446D01*
X54849492Y-64712774D01*
X54815820Y-64679103D01*
X54782148Y-64578087D01*
X54782148Y-64510744D01*
X54815820Y-64409729D01*
X54950507Y-64275042D01*
X55051522Y-64241370D01*
X55118866Y-64241370D01*
X55219881Y-64275042D01*
X55253553Y-64308713D01*
X55287225Y-64409729D01*
X55287225Y-64477072D01*
X55253553Y-64578087D01*
X55118866Y-64712774D01*
X55085194Y-64813790D01*
X55085194Y-64881133D01*
X55118866Y-64982148D01*
X55253553Y-65116835D01*
X55354568Y-65150507D01*
X55421912Y-65150507D01*
X55522927Y-65116835D01*
X55657614Y-64982148D01*
X55691286Y-64881133D01*
X55691286Y-64813790D01*
X55657614Y-64712774D01*
X55522927Y-64578087D01*
X55421912Y-64544416D01*
X55354568Y-64544416D01*
X55253553Y-64578087D01*
X55119881Y-55154568D02*
X55018866Y-55188240D01*
X54884179Y-55188240D01*
X54682148Y-55188240D01*
X54581133Y-55221912D01*
X54513790Y-55289255D01*
X54715820Y-55423942D02*
X54614805Y-55457614D01*
X54480118Y-55457614D01*
X54311759Y-55356599D01*
X54076057Y-55120896D01*
X53975042Y-54952538D01*
X53975042Y-54817851D01*
X54008713Y-54716835D01*
X54143400Y-54582148D01*
X54244416Y-54548477D01*
X54379103Y-54548477D01*
X54547461Y-54649492D01*
X54783164Y-54885194D01*
X54884179Y-55053553D01*
X54884179Y-55188240D01*
X54850507Y-55289255D01*
X54715820Y-55423942D01*
X55355583Y-54784179D02*
X55490270Y-54649492D01*
X55523942Y-54548477D01*
X55523942Y-54481133D01*
X55490270Y-54312774D01*
X55389255Y-54144416D01*
X55119881Y-53875042D01*
X55018866Y-53841370D01*
X54951522Y-53841370D01*
X54850507Y-53875042D01*
X54715820Y-54009729D01*
X54682148Y-54110744D01*
X54682148Y-54178087D01*
X54715820Y-54279103D01*
X54884179Y-54447461D01*
X54985194Y-54481133D01*
X55052538Y-54481133D01*
X55153553Y-54447461D01*
X55288240Y-54312774D01*
X55321912Y-54211759D01*
X55321912Y-54144416D01*
X55288240Y-54043400D01*
X58083164Y-59191286D02*
X57982148Y-59224957D01*
X57847461Y-59224957D01*
X57645431Y-59224957D01*
X57544416Y-59258629D01*
X57477072Y-59325973D01*
X57679103Y-59460660D02*
X57578087Y-59494331D01*
X57443400Y-59494331D01*
X57275042Y-59393316D01*
X57039339Y-59157614D01*
X56938324Y-58989255D01*
X56938324Y-58854568D01*
X56971996Y-58753553D01*
X57106683Y-58618866D01*
X57207698Y-58585194D01*
X57342385Y-58585194D01*
X57510744Y-58686209D01*
X57746446Y-58921912D01*
X57847461Y-59090270D01*
X57847461Y-59224957D01*
X57813790Y-59325973D01*
X57679103Y-59460660D01*
X58655583Y-58484179D02*
X58251522Y-58888240D01*
X58453553Y-58686209D02*
X57746446Y-57979103D01*
X57780118Y-58147461D01*
X57780118Y-58282148D01*
X57746446Y-58383164D01*
X58386209Y-57339339D02*
X58453553Y-57271996D01*
X58554568Y-57238324D01*
X58621912Y-57238324D01*
X58722927Y-57271996D01*
X58891286Y-57373011D01*
X59059644Y-57541370D01*
X59160660Y-57709729D01*
X59194331Y-57810744D01*
X59194331Y-57878087D01*
X59160660Y-57979103D01*
X59093316Y-58046446D01*
X58992301Y-58080118D01*
X58924957Y-58080118D01*
X58823942Y-58046446D01*
X58655583Y-57945431D01*
X58487225Y-57777072D01*
X58386209Y-57608713D01*
X58352538Y-57507698D01*
X58352538Y-57440355D01*
X58386209Y-57339339D01*
X65083164Y-55691286D02*
X64982148Y-55724957D01*
X64847461Y-55724957D01*
X64645431Y-55724957D01*
X64544416Y-55758629D01*
X64477072Y-55825973D01*
X64679103Y-55960660D02*
X64578087Y-55994331D01*
X64443400Y-55994331D01*
X64275042Y-55893316D01*
X64039339Y-55657614D01*
X63938324Y-55489255D01*
X63938324Y-55354568D01*
X63971996Y-55253553D01*
X64106683Y-55118866D01*
X64207698Y-55085194D01*
X64342385Y-55085194D01*
X64510744Y-55186209D01*
X64746446Y-55421912D01*
X64847461Y-55590270D01*
X64847461Y-55724957D01*
X64813790Y-55825973D01*
X64679103Y-55960660D01*
X65655583Y-54984179D02*
X65251522Y-55388240D01*
X65453553Y-55186209D02*
X64746446Y-54479103D01*
X64780118Y-54647461D01*
X64780118Y-54782148D01*
X64746446Y-54883164D01*
X66329018Y-54310744D02*
X65924957Y-54714805D01*
X66126988Y-54512774D02*
X65419881Y-53805668D01*
X65453553Y-53974026D01*
X65453553Y-54108713D01*
X65419881Y-54209729D01*
X68583164Y-59191286D02*
X68482148Y-59224957D01*
X68347461Y-59224957D01*
X68145431Y-59224957D01*
X68044416Y-59258629D01*
X67977072Y-59325973D01*
X68179103Y-59460660D02*
X68078087Y-59494331D01*
X67943400Y-59494331D01*
X67775042Y-59393316D01*
X67539339Y-59157614D01*
X67438324Y-58989255D01*
X67438324Y-58854568D01*
X67471996Y-58753553D01*
X67606683Y-58618866D01*
X67707698Y-58585194D01*
X67842385Y-58585194D01*
X68010744Y-58686209D01*
X68246446Y-58921912D01*
X68347461Y-59090270D01*
X68347461Y-59224957D01*
X68313790Y-59325973D01*
X68179103Y-59460660D01*
X69155583Y-58484179D02*
X68751522Y-58888240D01*
X68953553Y-58686209D02*
X68246446Y-57979103D01*
X68280118Y-58147461D01*
X68280118Y-58282148D01*
X68246446Y-58383164D01*
X68785194Y-57575042D02*
X68785194Y-57507698D01*
X68818866Y-57406683D01*
X68987225Y-57238324D01*
X69088240Y-57204652D01*
X69155583Y-57204652D01*
X69256599Y-57238324D01*
X69323942Y-57305668D01*
X69391286Y-57440355D01*
X69391286Y-58248477D01*
X69829018Y-57810744D01*
X72083164Y-62691286D02*
X71982148Y-62724957D01*
X71847461Y-62724957D01*
X71645431Y-62724957D01*
X71544416Y-62758629D01*
X71477072Y-62825973D01*
X71679103Y-62960660D02*
X71578087Y-62994331D01*
X71443400Y-62994331D01*
X71275042Y-62893316D01*
X71039339Y-62657614D01*
X70938324Y-62489255D01*
X70938324Y-62354568D01*
X70971996Y-62253553D01*
X71106683Y-62118866D01*
X71207698Y-62085194D01*
X71342385Y-62085194D01*
X71510744Y-62186209D01*
X71746446Y-62421912D01*
X71847461Y-62590270D01*
X71847461Y-62724957D01*
X71813790Y-62825973D01*
X71679103Y-62960660D01*
X72655583Y-61984179D02*
X72251522Y-62388240D01*
X72453553Y-62186209D02*
X71746446Y-61479103D01*
X71780118Y-61647461D01*
X71780118Y-61782148D01*
X71746446Y-61883164D01*
X72184179Y-61041370D02*
X72621912Y-60603637D01*
X72655583Y-61108713D01*
X72756599Y-61007698D01*
X72857614Y-60974026D01*
X72924957Y-60974026D01*
X73025973Y-61007698D01*
X73194331Y-61176057D01*
X73228003Y-61277072D01*
X73228003Y-61344416D01*
X73194331Y-61445431D01*
X72992301Y-61647461D01*
X72891286Y-61681133D01*
X72823942Y-61681133D01*
X75583164Y-66191286D02*
X75482148Y-66224957D01*
X75347461Y-66224957D01*
X75145431Y-66224957D01*
X75044416Y-66258629D01*
X74977072Y-66325973D01*
X75179103Y-66460660D02*
X75078087Y-66494331D01*
X74943400Y-66494331D01*
X74775042Y-66393316D01*
X74539339Y-66157614D01*
X74438324Y-65989255D01*
X74438324Y-65854568D01*
X74471996Y-65753553D01*
X74606683Y-65618866D01*
X74707698Y-65585194D01*
X74842385Y-65585194D01*
X75010744Y-65686209D01*
X75246446Y-65921912D01*
X75347461Y-66090270D01*
X75347461Y-66224957D01*
X75313790Y-66325973D01*
X75179103Y-66460660D01*
X76155583Y-65484179D02*
X75751522Y-65888240D01*
X75953553Y-65686209D02*
X75246446Y-64979103D01*
X75280118Y-65147461D01*
X75280118Y-65282148D01*
X75246446Y-65383164D01*
X76290270Y-64406683D02*
X76761675Y-64878087D01*
X75852538Y-64305668D02*
X76189255Y-64979103D01*
X76626988Y-64541370D01*
X75583164Y-55691286D02*
X75482148Y-55724957D01*
X75347461Y-55724957D01*
X75145431Y-55724957D01*
X75044416Y-55758629D01*
X74977072Y-55825973D01*
X75179103Y-55960660D02*
X75078087Y-55994331D01*
X74943400Y-55994331D01*
X74775042Y-55893316D01*
X74539339Y-55657614D01*
X74438324Y-55489255D01*
X74438324Y-55354568D01*
X74471996Y-55253553D01*
X74606683Y-55118866D01*
X74707698Y-55085194D01*
X74842385Y-55085194D01*
X75010744Y-55186209D01*
X75246446Y-55421912D01*
X75347461Y-55590270D01*
X75347461Y-55724957D01*
X75313790Y-55825973D01*
X75179103Y-55960660D01*
X76155583Y-54984179D02*
X75751522Y-55388240D01*
X75953553Y-55186209D02*
X75246446Y-54479103D01*
X75280118Y-54647461D01*
X75280118Y-54782148D01*
X75246446Y-54883164D01*
X76088240Y-53637309D02*
X75751522Y-53974026D01*
X76054568Y-54344416D01*
X76054568Y-54277072D01*
X76088240Y-54176057D01*
X76256599Y-54007698D01*
X76357614Y-53974026D01*
X76424957Y-53974026D01*
X76525973Y-54007698D01*
X76694331Y-54176057D01*
X76728003Y-54277072D01*
X76728003Y-54344416D01*
X76694331Y-54445431D01*
X76525973Y-54613790D01*
X76424957Y-54647461D01*
X76357614Y-54647461D01*
X79083164Y-59191286D02*
X78982148Y-59224957D01*
X78847461Y-59224957D01*
X78645431Y-59224957D01*
X78544416Y-59258629D01*
X78477072Y-59325973D01*
X78679103Y-59460660D02*
X78578087Y-59494331D01*
X78443400Y-59494331D01*
X78275042Y-59393316D01*
X78039339Y-59157614D01*
X77938324Y-58989255D01*
X77938324Y-58854568D01*
X77971996Y-58753553D01*
X78106683Y-58618866D01*
X78207698Y-58585194D01*
X78342385Y-58585194D01*
X78510744Y-58686209D01*
X78746446Y-58921912D01*
X78847461Y-59090270D01*
X78847461Y-59224957D01*
X78813790Y-59325973D01*
X78679103Y-59460660D01*
X79655583Y-58484179D02*
X79251522Y-58888240D01*
X79453553Y-58686209D02*
X78746446Y-57979103D01*
X78780118Y-58147461D01*
X78780118Y-58282148D01*
X78746446Y-58383164D01*
X79554568Y-57170981D02*
X79419881Y-57305668D01*
X79386209Y-57406683D01*
X79386209Y-57474026D01*
X79419881Y-57642385D01*
X79520896Y-57810744D01*
X79790270Y-58080118D01*
X79891286Y-58113790D01*
X79958629Y-58113790D01*
X80059644Y-58080118D01*
X80194331Y-57945431D01*
X80228003Y-57844416D01*
X80228003Y-57777072D01*
X80194331Y-57676057D01*
X80025973Y-57507698D01*
X79924957Y-57474026D01*
X79857614Y-57474026D01*
X79756599Y-57507698D01*
X79621912Y-57642385D01*
X79588240Y-57743400D01*
X79588240Y-57810744D01*
X79621912Y-57911759D01*
X82583164Y-62691286D02*
X82482148Y-62724957D01*
X82347461Y-62724957D01*
X82145431Y-62724957D01*
X82044416Y-62758629D01*
X81977072Y-62825973D01*
X82179103Y-62960660D02*
X82078087Y-62994331D01*
X81943400Y-62994331D01*
X81775042Y-62893316D01*
X81539339Y-62657614D01*
X81438324Y-62489255D01*
X81438324Y-62354568D01*
X81471996Y-62253553D01*
X81606683Y-62118866D01*
X81707698Y-62085194D01*
X81842385Y-62085194D01*
X82010744Y-62186209D01*
X82246446Y-62421912D01*
X82347461Y-62590270D01*
X82347461Y-62724957D01*
X82313790Y-62825973D01*
X82179103Y-62960660D01*
X83155583Y-61984179D02*
X82751522Y-62388240D01*
X82953553Y-62186209D02*
X82246446Y-61479103D01*
X82280118Y-61647461D01*
X82280118Y-61782148D01*
X82246446Y-61883164D01*
X82684179Y-61041370D02*
X83155583Y-60569965D01*
X83559644Y-61580118D01*
X86083164Y-66191286D02*
X85982148Y-66224957D01*
X85847461Y-66224957D01*
X85645431Y-66224957D01*
X85544416Y-66258629D01*
X85477072Y-66325973D01*
X85679103Y-66460660D02*
X85578087Y-66494331D01*
X85443400Y-66494331D01*
X85275042Y-66393316D01*
X85039339Y-66157614D01*
X84938324Y-65989255D01*
X84938324Y-65854568D01*
X84971996Y-65753553D01*
X85106683Y-65618866D01*
X85207698Y-65585194D01*
X85342385Y-65585194D01*
X85510744Y-65686209D01*
X85746446Y-65921912D01*
X85847461Y-66090270D01*
X85847461Y-66224957D01*
X85813790Y-66325973D01*
X85679103Y-66460660D01*
X86655583Y-65484179D02*
X86251522Y-65888240D01*
X86453553Y-65686209D02*
X85746446Y-64979103D01*
X85780118Y-65147461D01*
X85780118Y-65282148D01*
X85746446Y-65383164D01*
X86655583Y-64676057D02*
X86554568Y-64709729D01*
X86487225Y-64709729D01*
X86386209Y-64676057D01*
X86352538Y-64642385D01*
X86318866Y-64541370D01*
X86318866Y-64474026D01*
X86352538Y-64373011D01*
X86487225Y-64238324D01*
X86588240Y-64204652D01*
X86655583Y-64204652D01*
X86756599Y-64238324D01*
X86790270Y-64271996D01*
X86823942Y-64373011D01*
X86823942Y-64440355D01*
X86790270Y-64541370D01*
X86655583Y-64676057D01*
X86621912Y-64777072D01*
X86621912Y-64844416D01*
X86655583Y-64945431D01*
X86790270Y-65080118D01*
X86891286Y-65113790D01*
X86958629Y-65113790D01*
X87059644Y-65080118D01*
X87194331Y-64945431D01*
X87228003Y-64844416D01*
X87228003Y-64777072D01*
X87194331Y-64676057D01*
X87059644Y-64541370D01*
X86958629Y-64507698D01*
X86891286Y-64507698D01*
X86790270Y-64541370D01*
X89583164Y-59191286D02*
X89482148Y-59224957D01*
X89347461Y-59224957D01*
X89145431Y-59224957D01*
X89044416Y-59258629D01*
X88977072Y-59325973D01*
X89179103Y-59460660D02*
X89078087Y-59494331D01*
X88943400Y-59494331D01*
X88775042Y-59393316D01*
X88539339Y-59157614D01*
X88438324Y-58989255D01*
X88438324Y-58854568D01*
X88471996Y-58753553D01*
X88606683Y-58618866D01*
X88707698Y-58585194D01*
X88842385Y-58585194D01*
X89010744Y-58686209D01*
X89246446Y-58921912D01*
X89347461Y-59090270D01*
X89347461Y-59224957D01*
X89313790Y-59325973D01*
X89179103Y-59460660D01*
X89111759Y-58248477D02*
X89111759Y-58181133D01*
X89145431Y-58080118D01*
X89313790Y-57911759D01*
X89414805Y-57878087D01*
X89482148Y-57878087D01*
X89583164Y-57911759D01*
X89650507Y-57979103D01*
X89717851Y-58113790D01*
X89717851Y-58921912D01*
X90155583Y-58484179D01*
X89886209Y-57339339D02*
X89953553Y-57271996D01*
X90054568Y-57238324D01*
X90121912Y-57238324D01*
X90222927Y-57271996D01*
X90391286Y-57373011D01*
X90559644Y-57541370D01*
X90660660Y-57709729D01*
X90694331Y-57810744D01*
X90694331Y-57878087D01*
X90660660Y-57979103D01*
X90593316Y-58046446D01*
X90492301Y-58080118D01*
X90424957Y-58080118D01*
X90323942Y-58046446D01*
X90155583Y-57945431D01*
X89987225Y-57777072D01*
X89886209Y-57608713D01*
X89852538Y-57507698D01*
X89852538Y-57440355D01*
X89886209Y-57339339D01*
X96483164Y-55791286D02*
X96382148Y-55824957D01*
X96247461Y-55824957D01*
X96045431Y-55824957D01*
X95944416Y-55858629D01*
X95877072Y-55925973D01*
X96079103Y-56060660D02*
X95978087Y-56094331D01*
X95843400Y-56094331D01*
X95675042Y-55993316D01*
X95439339Y-55757614D01*
X95338324Y-55589255D01*
X95338324Y-55454568D01*
X95371996Y-55353553D01*
X95506683Y-55218866D01*
X95607698Y-55185194D01*
X95742385Y-55185194D01*
X95910744Y-55286209D01*
X96146446Y-55521912D01*
X96247461Y-55690270D01*
X96247461Y-55824957D01*
X96213790Y-55925973D01*
X96079103Y-56060660D01*
X96011759Y-54848477D02*
X96011759Y-54781133D01*
X96045431Y-54680118D01*
X96213790Y-54511759D01*
X96314805Y-54478087D01*
X96382148Y-54478087D01*
X96483164Y-54511759D01*
X96550507Y-54579103D01*
X96617851Y-54713790D01*
X96617851Y-55521912D01*
X97055583Y-55084179D01*
X97729018Y-54410744D02*
X97324957Y-54814805D01*
X97526988Y-54612774D02*
X96819881Y-53905668D01*
X96853553Y-54074026D01*
X96853553Y-54208713D01*
X96819881Y-54309729D01*
X100083164Y-59191286D02*
X99982148Y-59224957D01*
X99847461Y-59224957D01*
X99645431Y-59224957D01*
X99544416Y-59258629D01*
X99477072Y-59325973D01*
X99679103Y-59460660D02*
X99578087Y-59494331D01*
X99443400Y-59494331D01*
X99275042Y-59393316D01*
X99039339Y-59157614D01*
X98938324Y-58989255D01*
X98938324Y-58854568D01*
X98971996Y-58753553D01*
X99106683Y-58618866D01*
X99207698Y-58585194D01*
X99342385Y-58585194D01*
X99510744Y-58686209D01*
X99746446Y-58921912D01*
X99847461Y-59090270D01*
X99847461Y-59224957D01*
X99813790Y-59325973D01*
X99679103Y-59460660D01*
X99611759Y-58248477D02*
X99611759Y-58181133D01*
X99645431Y-58080118D01*
X99813790Y-57911759D01*
X99914805Y-57878087D01*
X99982148Y-57878087D01*
X100083164Y-57911759D01*
X100150507Y-57979103D01*
X100217851Y-58113790D01*
X100217851Y-58921912D01*
X100655583Y-58484179D01*
X100285194Y-57575042D02*
X100285194Y-57507698D01*
X100318866Y-57406683D01*
X100487225Y-57238324D01*
X100588240Y-57204652D01*
X100655583Y-57204652D01*
X100756599Y-57238324D01*
X100823942Y-57305668D01*
X100891286Y-57440355D01*
X100891286Y-58248477D01*
X101329018Y-57810744D01*
X103483164Y-62791286D02*
X103382148Y-62824957D01*
X103247461Y-62824957D01*
X103045431Y-62824957D01*
X102944416Y-62858629D01*
X102877072Y-62925973D01*
X103079103Y-63060660D02*
X102978087Y-63094331D01*
X102843400Y-63094331D01*
X102675042Y-62993316D01*
X102439339Y-62757614D01*
X102338324Y-62589255D01*
X102338324Y-62454568D01*
X102371996Y-62353553D01*
X102506683Y-62218866D01*
X102607698Y-62185194D01*
X102742385Y-62185194D01*
X102910744Y-62286209D01*
X103146446Y-62521912D01*
X103247461Y-62690270D01*
X103247461Y-62824957D01*
X103213790Y-62925973D01*
X103079103Y-63060660D01*
X103011759Y-61848477D02*
X103011759Y-61781133D01*
X103045431Y-61680118D01*
X103213790Y-61511759D01*
X103314805Y-61478087D01*
X103382148Y-61478087D01*
X103483164Y-61511759D01*
X103550507Y-61579103D01*
X103617851Y-61713790D01*
X103617851Y-62521912D01*
X104055583Y-62084179D01*
X103584179Y-61141370D02*
X104021912Y-60703637D01*
X104055583Y-61208713D01*
X104156599Y-61107698D01*
X104257614Y-61074026D01*
X104324957Y-61074026D01*
X104425973Y-61107698D01*
X104594331Y-61276057D01*
X104628003Y-61377072D01*
X104628003Y-61444416D01*
X104594331Y-61545431D01*
X104392301Y-61747461D01*
X104291286Y-61781133D01*
X104223942Y-61781133D01*
X107083164Y-66191286D02*
X106982148Y-66224957D01*
X106847461Y-66224957D01*
X106645431Y-66224957D01*
X106544416Y-66258629D01*
X106477072Y-66325973D01*
X106679103Y-66460660D02*
X106578087Y-66494331D01*
X106443400Y-66494331D01*
X106275042Y-66393316D01*
X106039339Y-66157614D01*
X105938324Y-65989255D01*
X105938324Y-65854568D01*
X105971996Y-65753553D01*
X106106683Y-65618866D01*
X106207698Y-65585194D01*
X106342385Y-65585194D01*
X106510744Y-65686209D01*
X106746446Y-65921912D01*
X106847461Y-66090270D01*
X106847461Y-66224957D01*
X106813790Y-66325973D01*
X106679103Y-66460660D01*
X106611759Y-65248477D02*
X106611759Y-65181133D01*
X106645431Y-65080118D01*
X106813790Y-64911759D01*
X106914805Y-64878087D01*
X106982148Y-64878087D01*
X107083164Y-64911759D01*
X107150507Y-64979103D01*
X107217851Y-65113790D01*
X107217851Y-65921912D01*
X107655583Y-65484179D01*
X107790270Y-64406683D02*
X108261675Y-64878087D01*
X107352538Y-64305668D02*
X107689255Y-64979103D01*
X108126988Y-64541370D01*
X107083164Y-55691286D02*
X106982148Y-55724957D01*
X106847461Y-55724957D01*
X106645431Y-55724957D01*
X106544416Y-55758629D01*
X106477072Y-55825973D01*
X106679103Y-55960660D02*
X106578087Y-55994331D01*
X106443400Y-55994331D01*
X106275042Y-55893316D01*
X106039339Y-55657614D01*
X105938324Y-55489255D01*
X105938324Y-55354568D01*
X105971996Y-55253553D01*
X106106683Y-55118866D01*
X106207698Y-55085194D01*
X106342385Y-55085194D01*
X106510744Y-55186209D01*
X106746446Y-55421912D01*
X106847461Y-55590270D01*
X106847461Y-55724957D01*
X106813790Y-55825973D01*
X106679103Y-55960660D01*
X106611759Y-54748477D02*
X106611759Y-54681133D01*
X106645431Y-54580118D01*
X106813790Y-54411759D01*
X106914805Y-54378087D01*
X106982148Y-54378087D01*
X107083164Y-54411759D01*
X107150507Y-54479103D01*
X107217851Y-54613790D01*
X107217851Y-55421912D01*
X107655583Y-54984179D01*
X107588240Y-53637309D02*
X107251522Y-53974026D01*
X107554568Y-54344416D01*
X107554568Y-54277072D01*
X107588240Y-54176057D01*
X107756599Y-54007698D01*
X107857614Y-53974026D01*
X107924957Y-53974026D01*
X108025973Y-54007698D01*
X108194331Y-54176057D01*
X108228003Y-54277072D01*
X108228003Y-54344416D01*
X108194331Y-54445431D01*
X108025973Y-54613790D01*
X107924957Y-54647461D01*
X107857614Y-54647461D01*
X110583164Y-59191286D02*
X110482148Y-59224957D01*
X110347461Y-59224957D01*
X110145431Y-59224957D01*
X110044416Y-59258629D01*
X109977072Y-59325973D01*
X110179103Y-59460660D02*
X110078087Y-59494331D01*
X109943400Y-59494331D01*
X109775042Y-59393316D01*
X109539339Y-59157614D01*
X109438324Y-58989255D01*
X109438324Y-58854568D01*
X109471996Y-58753553D01*
X109606683Y-58618866D01*
X109707698Y-58585194D01*
X109842385Y-58585194D01*
X110010744Y-58686209D01*
X110246446Y-58921912D01*
X110347461Y-59090270D01*
X110347461Y-59224957D01*
X110313790Y-59325973D01*
X110179103Y-59460660D01*
X110111759Y-58248477D02*
X110111759Y-58181133D01*
X110145431Y-58080118D01*
X110313790Y-57911759D01*
X110414805Y-57878087D01*
X110482148Y-57878087D01*
X110583164Y-57911759D01*
X110650507Y-57979103D01*
X110717851Y-58113790D01*
X110717851Y-58921912D01*
X111155583Y-58484179D01*
X111054568Y-57170981D02*
X110919881Y-57305668D01*
X110886209Y-57406683D01*
X110886209Y-57474026D01*
X110919881Y-57642385D01*
X111020896Y-57810744D01*
X111290270Y-58080118D01*
X111391286Y-58113790D01*
X111458629Y-58113790D01*
X111559644Y-58080118D01*
X111694331Y-57945431D01*
X111728003Y-57844416D01*
X111728003Y-57777072D01*
X111694331Y-57676057D01*
X111525973Y-57507698D01*
X111424957Y-57474026D01*
X111357614Y-57474026D01*
X111256599Y-57507698D01*
X111121912Y-57642385D01*
X111088240Y-57743400D01*
X111088240Y-57810744D01*
X111121912Y-57911759D01*
X113983164Y-62791286D02*
X113882148Y-62824957D01*
X113747461Y-62824957D01*
X113545431Y-62824957D01*
X113444416Y-62858629D01*
X113377072Y-62925973D01*
X113579103Y-63060660D02*
X113478087Y-63094331D01*
X113343400Y-63094331D01*
X113175042Y-62993316D01*
X112939339Y-62757614D01*
X112838324Y-62589255D01*
X112838324Y-62454568D01*
X112871996Y-62353553D01*
X113006683Y-62218866D01*
X113107698Y-62185194D01*
X113242385Y-62185194D01*
X113410744Y-62286209D01*
X113646446Y-62521912D01*
X113747461Y-62690270D01*
X113747461Y-62824957D01*
X113713790Y-62925973D01*
X113579103Y-63060660D01*
X113511759Y-61848477D02*
X113511759Y-61781133D01*
X113545431Y-61680118D01*
X113713790Y-61511759D01*
X113814805Y-61478087D01*
X113882148Y-61478087D01*
X113983164Y-61511759D01*
X114050507Y-61579103D01*
X114117851Y-61713790D01*
X114117851Y-62521912D01*
X114555583Y-62084179D01*
X114084179Y-61141370D02*
X114555583Y-60669965D01*
X114959644Y-61680118D01*
X117583164Y-66191286D02*
X117482148Y-66224957D01*
X117347461Y-66224957D01*
X117145431Y-66224957D01*
X117044416Y-66258629D01*
X116977072Y-66325973D01*
X117179103Y-66460660D02*
X117078087Y-66494331D01*
X116943400Y-66494331D01*
X116775042Y-66393316D01*
X116539339Y-66157614D01*
X116438324Y-65989255D01*
X116438324Y-65854568D01*
X116471996Y-65753553D01*
X116606683Y-65618866D01*
X116707698Y-65585194D01*
X116842385Y-65585194D01*
X117010744Y-65686209D01*
X117246446Y-65921912D01*
X117347461Y-66090270D01*
X117347461Y-66224957D01*
X117313790Y-66325973D01*
X117179103Y-66460660D01*
X117111759Y-65248477D02*
X117111759Y-65181133D01*
X117145431Y-65080118D01*
X117313790Y-64911759D01*
X117414805Y-64878087D01*
X117482148Y-64878087D01*
X117583164Y-64911759D01*
X117650507Y-64979103D01*
X117717851Y-65113790D01*
X117717851Y-65921912D01*
X118155583Y-65484179D01*
X118155583Y-64676057D02*
X118054568Y-64709729D01*
X117987225Y-64709729D01*
X117886209Y-64676057D01*
X117852538Y-64642385D01*
X117818866Y-64541370D01*
X117818866Y-64474026D01*
X117852538Y-64373011D01*
X117987225Y-64238324D01*
X118088240Y-64204652D01*
X118155583Y-64204652D01*
X118256599Y-64238324D01*
X118290270Y-64271996D01*
X118323942Y-64373011D01*
X118323942Y-64440355D01*
X118290270Y-64541370D01*
X118155583Y-64676057D01*
X118121912Y-64777072D01*
X118121912Y-64844416D01*
X118155583Y-64945431D01*
X118290270Y-65080118D01*
X118391286Y-65113790D01*
X118458629Y-65113790D01*
X118559644Y-65080118D01*
X118694331Y-64945431D01*
X118728003Y-64844416D01*
X118728003Y-64777072D01*
X118694331Y-64676057D01*
X118559644Y-64541370D01*
X118458629Y-64507698D01*
X118391286Y-64507698D01*
X118290270Y-64541370D01*
X117583164Y-55691286D02*
X117482148Y-55724957D01*
X117347461Y-55724957D01*
X117145431Y-55724957D01*
X117044416Y-55758629D01*
X116977072Y-55825973D01*
X117179103Y-55960660D02*
X117078087Y-55994331D01*
X116943400Y-55994331D01*
X116775042Y-55893316D01*
X116539339Y-55657614D01*
X116438324Y-55489255D01*
X116438324Y-55354568D01*
X116471996Y-55253553D01*
X116606683Y-55118866D01*
X116707698Y-55085194D01*
X116842385Y-55085194D01*
X117010744Y-55186209D01*
X117246446Y-55421912D01*
X117347461Y-55590270D01*
X117347461Y-55724957D01*
X117313790Y-55825973D01*
X117179103Y-55960660D01*
X117111759Y-54748477D02*
X117111759Y-54681133D01*
X117145431Y-54580118D01*
X117313790Y-54411759D01*
X117414805Y-54378087D01*
X117482148Y-54378087D01*
X117583164Y-54411759D01*
X117650507Y-54479103D01*
X117717851Y-54613790D01*
X117717851Y-55421912D01*
X118155583Y-54984179D01*
X118492301Y-54647461D02*
X118626988Y-54512774D01*
X118660660Y-54411759D01*
X118660660Y-54344416D01*
X118626988Y-54176057D01*
X118525973Y-54007698D01*
X118256599Y-53738324D01*
X118155583Y-53704652D01*
X118088240Y-53704652D01*
X117987225Y-53738324D01*
X117852538Y-53873011D01*
X117818866Y-53974026D01*
X117818866Y-54041370D01*
X117852538Y-54142385D01*
X118020896Y-54310744D01*
X118121912Y-54344416D01*
X118189255Y-54344416D01*
X118290270Y-54310744D01*
X118424957Y-54176057D01*
X118458629Y-54075042D01*
X118458629Y-54007698D01*
X118424957Y-53906683D01*
X128083164Y-55691286D02*
X127982148Y-55724957D01*
X127847461Y-55724957D01*
X127645431Y-55724957D01*
X127544416Y-55758629D01*
X127477072Y-55825973D01*
X127679103Y-55960660D02*
X127578087Y-55994331D01*
X127443400Y-55994331D01*
X127275042Y-55893316D01*
X127039339Y-55657614D01*
X126938324Y-55489255D01*
X126938324Y-55354568D01*
X126971996Y-55253553D01*
X127106683Y-55118866D01*
X127207698Y-55085194D01*
X127342385Y-55085194D01*
X127510744Y-55186209D01*
X127746446Y-55421912D01*
X127847461Y-55590270D01*
X127847461Y-55724957D01*
X127813790Y-55825973D01*
X127679103Y-55960660D01*
X127510744Y-54714805D02*
X127948477Y-54277072D01*
X127982148Y-54782148D01*
X128083164Y-54681133D01*
X128184179Y-54647461D01*
X128251522Y-54647461D01*
X128352538Y-54681133D01*
X128520896Y-54849492D01*
X128554568Y-54950507D01*
X128554568Y-55017851D01*
X128520896Y-55118866D01*
X128318866Y-55320896D01*
X128217851Y-55354568D01*
X128150507Y-55354568D01*
X129329018Y-54310744D02*
X128924957Y-54714805D01*
X129126988Y-54512774D02*
X128419881Y-53805668D01*
X128453553Y-53974026D01*
X128453553Y-54108713D01*
X128419881Y-54209729D01*
X131483164Y-59291286D02*
X131382148Y-59324957D01*
X131247461Y-59324957D01*
X131045431Y-59324957D01*
X130944416Y-59358629D01*
X130877072Y-59425973D01*
X131079103Y-59560660D02*
X130978087Y-59594331D01*
X130843400Y-59594331D01*
X130675042Y-59493316D01*
X130439339Y-59257614D01*
X130338324Y-59089255D01*
X130338324Y-58954568D01*
X130371996Y-58853553D01*
X130506683Y-58718866D01*
X130607698Y-58685194D01*
X130742385Y-58685194D01*
X130910744Y-58786209D01*
X131146446Y-59021912D01*
X131247461Y-59190270D01*
X131247461Y-59324957D01*
X131213790Y-59425973D01*
X131079103Y-59560660D01*
X130910744Y-58314805D02*
X131348477Y-57877072D01*
X131382148Y-58382148D01*
X131483164Y-58281133D01*
X131584179Y-58247461D01*
X131651522Y-58247461D01*
X131752538Y-58281133D01*
X131920896Y-58449492D01*
X131954568Y-58550507D01*
X131954568Y-58617851D01*
X131920896Y-58718866D01*
X131718866Y-58920896D01*
X131617851Y-58954568D01*
X131550507Y-58954568D01*
X131685194Y-57675042D02*
X131685194Y-57607698D01*
X131718866Y-57506683D01*
X131887225Y-57338324D01*
X131988240Y-57304652D01*
X132055583Y-57304652D01*
X132156599Y-57338324D01*
X132223942Y-57405668D01*
X132291286Y-57540355D01*
X132291286Y-58348477D01*
X132729018Y-57910744D01*
X135083164Y-62691286D02*
X134982148Y-62724957D01*
X134847461Y-62724957D01*
X134645431Y-62724957D01*
X134544416Y-62758629D01*
X134477072Y-62825973D01*
X134679103Y-62960660D02*
X134578087Y-62994331D01*
X134443400Y-62994331D01*
X134275042Y-62893316D01*
X134039339Y-62657614D01*
X133938324Y-62489255D01*
X133938324Y-62354568D01*
X133971996Y-62253553D01*
X134106683Y-62118866D01*
X134207698Y-62085194D01*
X134342385Y-62085194D01*
X134510744Y-62186209D01*
X134746446Y-62421912D01*
X134847461Y-62590270D01*
X134847461Y-62724957D01*
X134813790Y-62825973D01*
X134679103Y-62960660D01*
X134510744Y-61714805D02*
X134948477Y-61277072D01*
X134982148Y-61782148D01*
X135083164Y-61681133D01*
X135184179Y-61647461D01*
X135251522Y-61647461D01*
X135352538Y-61681133D01*
X135520896Y-61849492D01*
X135554568Y-61950507D01*
X135554568Y-62017851D01*
X135520896Y-62118866D01*
X135318866Y-62320896D01*
X135217851Y-62354568D01*
X135150507Y-62354568D01*
X135184179Y-61041370D02*
X135621912Y-60603637D01*
X135655583Y-61108713D01*
X135756599Y-61007698D01*
X135857614Y-60974026D01*
X135924957Y-60974026D01*
X136025973Y-61007698D01*
X136194331Y-61176057D01*
X136228003Y-61277072D01*
X136228003Y-61344416D01*
X136194331Y-61445431D01*
X135992301Y-61647461D01*
X135891286Y-61681133D01*
X135823942Y-61681133D01*
X142083164Y-59191286D02*
X141982148Y-59224957D01*
X141847461Y-59224957D01*
X141645431Y-59224957D01*
X141544416Y-59258629D01*
X141477072Y-59325973D01*
X141679103Y-59460660D02*
X141578087Y-59494331D01*
X141443400Y-59494331D01*
X141275042Y-59393316D01*
X141039339Y-59157614D01*
X140938324Y-58989255D01*
X140938324Y-58854568D01*
X140971996Y-58753553D01*
X141106683Y-58618866D01*
X141207698Y-58585194D01*
X141342385Y-58585194D01*
X141510744Y-58686209D01*
X141746446Y-58921912D01*
X141847461Y-59090270D01*
X141847461Y-59224957D01*
X141813790Y-59325973D01*
X141679103Y-59460660D01*
X141510744Y-58214805D02*
X141948477Y-57777072D01*
X141982148Y-58282148D01*
X142083164Y-58181133D01*
X142184179Y-58147461D01*
X142251522Y-58147461D01*
X142352538Y-58181133D01*
X142520896Y-58349492D01*
X142554568Y-58450507D01*
X142554568Y-58517851D01*
X142520896Y-58618866D01*
X142318866Y-58820896D01*
X142217851Y-58854568D01*
X142150507Y-58854568D01*
X142554568Y-57170981D02*
X142419881Y-57305668D01*
X142386209Y-57406683D01*
X142386209Y-57474026D01*
X142419881Y-57642385D01*
X142520896Y-57810744D01*
X142790270Y-58080118D01*
X142891286Y-58113790D01*
X142958629Y-58113790D01*
X143059644Y-58080118D01*
X143194331Y-57945431D01*
X143228003Y-57844416D01*
X143228003Y-57777072D01*
X143194331Y-57676057D01*
X143025973Y-57507698D01*
X142924957Y-57474026D01*
X142857614Y-57474026D01*
X142756599Y-57507698D01*
X142621912Y-57642385D01*
X142588240Y-57743400D01*
X142588240Y-57810744D01*
X142621912Y-57911759D01*
X149083164Y-66191286D02*
X148982148Y-66224957D01*
X148847461Y-66224957D01*
X148645431Y-66224957D01*
X148544416Y-66258629D01*
X148477072Y-66325973D01*
X148679103Y-66460660D02*
X148578087Y-66494331D01*
X148443400Y-66494331D01*
X148275042Y-66393316D01*
X148039339Y-66157614D01*
X147938324Y-65989255D01*
X147938324Y-65854568D01*
X147971996Y-65753553D01*
X148106683Y-65618866D01*
X148207698Y-65585194D01*
X148342385Y-65585194D01*
X148510744Y-65686209D01*
X148746446Y-65921912D01*
X148847461Y-66090270D01*
X148847461Y-66224957D01*
X148813790Y-66325973D01*
X148679103Y-66460660D01*
X148510744Y-65214805D02*
X148948477Y-64777072D01*
X148982148Y-65282148D01*
X149083164Y-65181133D01*
X149184179Y-65147461D01*
X149251522Y-65147461D01*
X149352538Y-65181133D01*
X149520896Y-65349492D01*
X149554568Y-65450507D01*
X149554568Y-65517851D01*
X149520896Y-65618866D01*
X149318866Y-65820896D01*
X149217851Y-65854568D01*
X149150507Y-65854568D01*
X149655583Y-64676057D02*
X149554568Y-64709729D01*
X149487225Y-64709729D01*
X149386209Y-64676057D01*
X149352538Y-64642385D01*
X149318866Y-64541370D01*
X149318866Y-64474026D01*
X149352538Y-64373011D01*
X149487225Y-64238324D01*
X149588240Y-64204652D01*
X149655583Y-64204652D01*
X149756599Y-64238324D01*
X149790270Y-64271996D01*
X149823942Y-64373011D01*
X149823942Y-64440355D01*
X149790270Y-64541370D01*
X149655583Y-64676057D01*
X149621912Y-64777072D01*
X149621912Y-64844416D01*
X149655583Y-64945431D01*
X149790270Y-65080118D01*
X149891286Y-65113790D01*
X149958629Y-65113790D01*
X150059644Y-65080118D01*
X150194331Y-64945431D01*
X150228003Y-64844416D01*
X150228003Y-64777072D01*
X150194331Y-64676057D01*
X150059644Y-64541370D01*
X149958629Y-64507698D01*
X149891286Y-64507698D01*
X149790270Y-64541370D01*
X148983164Y-55791286D02*
X148882148Y-55824957D01*
X148747461Y-55824957D01*
X148545431Y-55824957D01*
X148444416Y-55858629D01*
X148377072Y-55925973D01*
X148579103Y-56060660D02*
X148478087Y-56094331D01*
X148343400Y-56094331D01*
X148175042Y-55993316D01*
X147939339Y-55757614D01*
X147838324Y-55589255D01*
X147838324Y-55454568D01*
X147871996Y-55353553D01*
X148006683Y-55218866D01*
X148107698Y-55185194D01*
X148242385Y-55185194D01*
X148410744Y-55286209D01*
X148646446Y-55521912D01*
X148747461Y-55690270D01*
X148747461Y-55824957D01*
X148713790Y-55925973D01*
X148579103Y-56060660D01*
X148410744Y-54814805D02*
X148848477Y-54377072D01*
X148882148Y-54882148D01*
X148983164Y-54781133D01*
X149084179Y-54747461D01*
X149151522Y-54747461D01*
X149252538Y-54781133D01*
X149420896Y-54949492D01*
X149454568Y-55050507D01*
X149454568Y-55117851D01*
X149420896Y-55218866D01*
X149218866Y-55420896D01*
X149117851Y-55454568D01*
X149050507Y-55454568D01*
X149892301Y-54747461D02*
X150026988Y-54612774D01*
X150060660Y-54511759D01*
X150060660Y-54444416D01*
X150026988Y-54276057D01*
X149925973Y-54107698D01*
X149656599Y-53838324D01*
X149555583Y-53804652D01*
X149488240Y-53804652D01*
X149387225Y-53838324D01*
X149252538Y-53973011D01*
X149218866Y-54074026D01*
X149218866Y-54141370D01*
X149252538Y-54242385D01*
X149420896Y-54410744D01*
X149521912Y-54444416D01*
X149589255Y-54444416D01*
X149690270Y-54410744D01*
X149824957Y-54276057D01*
X149858629Y-54175042D01*
X149858629Y-54107698D01*
X149824957Y-54006683D01*
X159483164Y-55791286D02*
X159382148Y-55824957D01*
X159247461Y-55824957D01*
X159045431Y-55824957D01*
X158944416Y-55858629D01*
X158877072Y-55925973D01*
X159079103Y-56060660D02*
X158978087Y-56094331D01*
X158843400Y-56094331D01*
X158675042Y-55993316D01*
X158439339Y-55757614D01*
X158338324Y-55589255D01*
X158338324Y-55454568D01*
X158371996Y-55353553D01*
X158506683Y-55218866D01*
X158607698Y-55185194D01*
X158742385Y-55185194D01*
X158910744Y-55286209D01*
X159146446Y-55521912D01*
X159247461Y-55690270D01*
X159247461Y-55824957D01*
X159213790Y-55925973D01*
X159079103Y-56060660D01*
X159516835Y-54680118D02*
X159988240Y-55151522D01*
X159079103Y-54579103D02*
X159415820Y-55252538D01*
X159853553Y-54814805D01*
X160729018Y-54410744D02*
X160324957Y-54814805D01*
X160526988Y-54612774D02*
X159819881Y-53905668D01*
X159853553Y-54074026D01*
X159853553Y-54208713D01*
X159819881Y-54309729D01*
X166483164Y-62791286D02*
X166382148Y-62824957D01*
X166247461Y-62824957D01*
X166045431Y-62824957D01*
X165944416Y-62858629D01*
X165877072Y-62925973D01*
X166079103Y-63060660D02*
X165978087Y-63094331D01*
X165843400Y-63094331D01*
X165675042Y-62993316D01*
X165439339Y-62757614D01*
X165338324Y-62589255D01*
X165338324Y-62454568D01*
X165371996Y-62353553D01*
X165506683Y-62218866D01*
X165607698Y-62185194D01*
X165742385Y-62185194D01*
X165910744Y-62286209D01*
X166146446Y-62521912D01*
X166247461Y-62690270D01*
X166247461Y-62824957D01*
X166213790Y-62925973D01*
X166079103Y-63060660D01*
X166516835Y-61680118D02*
X166988240Y-62151522D01*
X166079103Y-61579103D02*
X166415820Y-62252538D01*
X166853553Y-61814805D01*
X166584179Y-61141370D02*
X167021912Y-60703637D01*
X167055583Y-61208713D01*
X167156599Y-61107698D01*
X167257614Y-61074026D01*
X167324957Y-61074026D01*
X167425973Y-61107698D01*
X167594331Y-61276057D01*
X167628003Y-61377072D01*
X167628003Y-61444416D01*
X167594331Y-61545431D01*
X167392301Y-61747461D01*
X167291286Y-61781133D01*
X167223942Y-61781133D01*
X170083164Y-66191286D02*
X169982148Y-66224957D01*
X169847461Y-66224957D01*
X169645431Y-66224957D01*
X169544416Y-66258629D01*
X169477072Y-66325973D01*
X169679103Y-66460660D02*
X169578087Y-66494331D01*
X169443400Y-66494331D01*
X169275042Y-66393316D01*
X169039339Y-66157614D01*
X168938324Y-65989255D01*
X168938324Y-65854568D01*
X168971996Y-65753553D01*
X169106683Y-65618866D01*
X169207698Y-65585194D01*
X169342385Y-65585194D01*
X169510744Y-65686209D01*
X169746446Y-65921912D01*
X169847461Y-66090270D01*
X169847461Y-66224957D01*
X169813790Y-66325973D01*
X169679103Y-66460660D01*
X170116835Y-65080118D02*
X170588240Y-65551522D01*
X169679103Y-64979103D02*
X170015820Y-65652538D01*
X170453553Y-65214805D01*
X170790270Y-64406683D02*
X171261675Y-64878087D01*
X170352538Y-64305668D02*
X170689255Y-64979103D01*
X171126988Y-64541370D01*
X170083164Y-55691286D02*
X169982148Y-55724957D01*
X169847461Y-55724957D01*
X169645431Y-55724957D01*
X169544416Y-55758629D01*
X169477072Y-55825973D01*
X169679103Y-55960660D02*
X169578087Y-55994331D01*
X169443400Y-55994331D01*
X169275042Y-55893316D01*
X169039339Y-55657614D01*
X168938324Y-55489255D01*
X168938324Y-55354568D01*
X168971996Y-55253553D01*
X169106683Y-55118866D01*
X169207698Y-55085194D01*
X169342385Y-55085194D01*
X169510744Y-55186209D01*
X169746446Y-55421912D01*
X169847461Y-55590270D01*
X169847461Y-55724957D01*
X169813790Y-55825973D01*
X169679103Y-55960660D01*
X170116835Y-54580118D02*
X170588240Y-55051522D01*
X169679103Y-54479103D02*
X170015820Y-55152538D01*
X170453553Y-54714805D01*
X170588240Y-53637309D02*
X170251522Y-53974026D01*
X170554568Y-54344416D01*
X170554568Y-54277072D01*
X170588240Y-54176057D01*
X170756599Y-54007698D01*
X170857614Y-53974026D01*
X170924957Y-53974026D01*
X171025973Y-54007698D01*
X171194331Y-54176057D01*
X171228003Y-54277072D01*
X171228003Y-54344416D01*
X171194331Y-54445431D01*
X171025973Y-54613790D01*
X170924957Y-54647461D01*
X170857614Y-54647461D01*
X177083164Y-62691286D02*
X176982148Y-62724957D01*
X176847461Y-62724957D01*
X176645431Y-62724957D01*
X176544416Y-62758629D01*
X176477072Y-62825973D01*
X176679103Y-62960660D02*
X176578087Y-62994331D01*
X176443400Y-62994331D01*
X176275042Y-62893316D01*
X176039339Y-62657614D01*
X175938324Y-62489255D01*
X175938324Y-62354568D01*
X175971996Y-62253553D01*
X176106683Y-62118866D01*
X176207698Y-62085194D01*
X176342385Y-62085194D01*
X176510744Y-62186209D01*
X176746446Y-62421912D01*
X176847461Y-62590270D01*
X176847461Y-62724957D01*
X176813790Y-62825973D01*
X176679103Y-62960660D01*
X177116835Y-61580118D02*
X177588240Y-62051522D01*
X176679103Y-61479103D02*
X177015820Y-62152538D01*
X177453553Y-61714805D01*
X177184179Y-61041370D02*
X177655583Y-60569965D01*
X178059644Y-61580118D01*
X180583164Y-66191286D02*
X180482148Y-66224957D01*
X180347461Y-66224957D01*
X180145431Y-66224957D01*
X180044416Y-66258629D01*
X179977072Y-66325973D01*
X180179103Y-66460660D02*
X180078087Y-66494331D01*
X179943400Y-66494331D01*
X179775042Y-66393316D01*
X179539339Y-66157614D01*
X179438324Y-65989255D01*
X179438324Y-65854568D01*
X179471996Y-65753553D01*
X179606683Y-65618866D01*
X179707698Y-65585194D01*
X179842385Y-65585194D01*
X180010744Y-65686209D01*
X180246446Y-65921912D01*
X180347461Y-66090270D01*
X180347461Y-66224957D01*
X180313790Y-66325973D01*
X180179103Y-66460660D01*
X180616835Y-65080118D02*
X181088240Y-65551522D01*
X180179103Y-64979103D02*
X180515820Y-65652538D01*
X180953553Y-65214805D01*
X181155583Y-64676057D02*
X181054568Y-64709729D01*
X180987225Y-64709729D01*
X180886209Y-64676057D01*
X180852538Y-64642385D01*
X180818866Y-64541370D01*
X180818866Y-64474026D01*
X180852538Y-64373011D01*
X180987225Y-64238324D01*
X181088240Y-64204652D01*
X181155583Y-64204652D01*
X181256599Y-64238324D01*
X181290270Y-64271996D01*
X181323942Y-64373011D01*
X181323942Y-64440355D01*
X181290270Y-64541370D01*
X181155583Y-64676057D01*
X181121912Y-64777072D01*
X181121912Y-64844416D01*
X181155583Y-64945431D01*
X181290270Y-65080118D01*
X181391286Y-65113790D01*
X181458629Y-65113790D01*
X181559644Y-65080118D01*
X181694331Y-64945431D01*
X181728003Y-64844416D01*
X181728003Y-64777072D01*
X181694331Y-64676057D01*
X181559644Y-64541370D01*
X181458629Y-64507698D01*
X181391286Y-64507698D01*
X181290270Y-64541370D01*
X180483164Y-55791286D02*
X180382148Y-55824957D01*
X180247461Y-55824957D01*
X180045431Y-55824957D01*
X179944416Y-55858629D01*
X179877072Y-55925973D01*
X180079103Y-56060660D02*
X179978087Y-56094331D01*
X179843400Y-56094331D01*
X179675042Y-55993316D01*
X179439339Y-55757614D01*
X179338324Y-55589255D01*
X179338324Y-55454568D01*
X179371996Y-55353553D01*
X179506683Y-55218866D01*
X179607698Y-55185194D01*
X179742385Y-55185194D01*
X179910744Y-55286209D01*
X180146446Y-55521912D01*
X180247461Y-55690270D01*
X180247461Y-55824957D01*
X180213790Y-55925973D01*
X180079103Y-56060660D01*
X180516835Y-54680118D02*
X180988240Y-55151522D01*
X180079103Y-54579103D02*
X180415820Y-55252538D01*
X180853553Y-54814805D01*
X181392301Y-54747461D02*
X181526988Y-54612774D01*
X181560660Y-54511759D01*
X181560660Y-54444416D01*
X181526988Y-54276057D01*
X181425973Y-54107698D01*
X181156599Y-53838324D01*
X181055583Y-53804652D01*
X180988240Y-53804652D01*
X180887225Y-53838324D01*
X180752538Y-53973011D01*
X180718866Y-54074026D01*
X180718866Y-54141370D01*
X180752538Y-54242385D01*
X180920896Y-54410744D01*
X181021912Y-54444416D01*
X181089255Y-54444416D01*
X181190270Y-54410744D01*
X181324957Y-54276057D01*
X181358629Y-54175042D01*
X181358629Y-54107698D01*
X181324957Y-54006683D01*
X184083164Y-59191286D02*
X183982148Y-59224957D01*
X183847461Y-59224957D01*
X183645431Y-59224957D01*
X183544416Y-59258629D01*
X183477072Y-59325973D01*
X183679103Y-59460660D02*
X183578087Y-59494331D01*
X183443400Y-59494331D01*
X183275042Y-59393316D01*
X183039339Y-59157614D01*
X182938324Y-58989255D01*
X182938324Y-58854568D01*
X182971996Y-58753553D01*
X183106683Y-58618866D01*
X183207698Y-58585194D01*
X183342385Y-58585194D01*
X183510744Y-58686209D01*
X183746446Y-58921912D01*
X183847461Y-59090270D01*
X183847461Y-59224957D01*
X183813790Y-59325973D01*
X183679103Y-59460660D01*
X183914805Y-57810744D02*
X183578087Y-58147461D01*
X183881133Y-58517851D01*
X183881133Y-58450507D01*
X183914805Y-58349492D01*
X184083164Y-58181133D01*
X184184179Y-58147461D01*
X184251522Y-58147461D01*
X184352538Y-58181133D01*
X184520896Y-58349492D01*
X184554568Y-58450507D01*
X184554568Y-58517851D01*
X184520896Y-58618866D01*
X184352538Y-58787225D01*
X184251522Y-58820896D01*
X184184179Y-58820896D01*
X184386209Y-57339339D02*
X184453553Y-57271996D01*
X184554568Y-57238324D01*
X184621912Y-57238324D01*
X184722927Y-57271996D01*
X184891286Y-57373011D01*
X185059644Y-57541370D01*
X185160660Y-57709729D01*
X185194331Y-57810744D01*
X185194331Y-57878087D01*
X185160660Y-57979103D01*
X185093316Y-58046446D01*
X184992301Y-58080118D01*
X184924957Y-58080118D01*
X184823942Y-58046446D01*
X184655583Y-57945431D01*
X184487225Y-57777072D01*
X184386209Y-57608713D01*
X184352538Y-57507698D01*
X184352538Y-57440355D01*
X184386209Y-57339339D01*
X191083164Y-55691286D02*
X190982148Y-55724957D01*
X190847461Y-55724957D01*
X190645431Y-55724957D01*
X190544416Y-55758629D01*
X190477072Y-55825973D01*
X190679103Y-55960660D02*
X190578087Y-55994331D01*
X190443400Y-55994331D01*
X190275042Y-55893316D01*
X190039339Y-55657614D01*
X189938324Y-55489255D01*
X189938324Y-55354568D01*
X189971996Y-55253553D01*
X190106683Y-55118866D01*
X190207698Y-55085194D01*
X190342385Y-55085194D01*
X190510744Y-55186209D01*
X190746446Y-55421912D01*
X190847461Y-55590270D01*
X190847461Y-55724957D01*
X190813790Y-55825973D01*
X190679103Y-55960660D01*
X190914805Y-54310744D02*
X190578087Y-54647461D01*
X190881133Y-55017851D01*
X190881133Y-54950507D01*
X190914805Y-54849492D01*
X191083164Y-54681133D01*
X191184179Y-54647461D01*
X191251522Y-54647461D01*
X191352538Y-54681133D01*
X191520896Y-54849492D01*
X191554568Y-54950507D01*
X191554568Y-55017851D01*
X191520896Y-55118866D01*
X191352538Y-55287225D01*
X191251522Y-55320896D01*
X191184179Y-55320896D01*
X192329018Y-54310744D02*
X191924957Y-54714805D01*
X192126988Y-54512774D02*
X191419881Y-53805668D01*
X191453553Y-53974026D01*
X191453553Y-54108713D01*
X191419881Y-54209729D01*
X194583164Y-59191286D02*
X194482148Y-59224957D01*
X194347461Y-59224957D01*
X194145431Y-59224957D01*
X194044416Y-59258629D01*
X193977072Y-59325973D01*
X194179103Y-59460660D02*
X194078087Y-59494331D01*
X193943400Y-59494331D01*
X193775042Y-59393316D01*
X193539339Y-59157614D01*
X193438324Y-58989255D01*
X193438324Y-58854568D01*
X193471996Y-58753553D01*
X193606683Y-58618866D01*
X193707698Y-58585194D01*
X193842385Y-58585194D01*
X194010744Y-58686209D01*
X194246446Y-58921912D01*
X194347461Y-59090270D01*
X194347461Y-59224957D01*
X194313790Y-59325973D01*
X194179103Y-59460660D01*
X194414805Y-57810744D02*
X194078087Y-58147461D01*
X194381133Y-58517851D01*
X194381133Y-58450507D01*
X194414805Y-58349492D01*
X194583164Y-58181133D01*
X194684179Y-58147461D01*
X194751522Y-58147461D01*
X194852538Y-58181133D01*
X195020896Y-58349492D01*
X195054568Y-58450507D01*
X195054568Y-58517851D01*
X195020896Y-58618866D01*
X194852538Y-58787225D01*
X194751522Y-58820896D01*
X194684179Y-58820896D01*
X194785194Y-57575042D02*
X194785194Y-57507698D01*
X194818866Y-57406683D01*
X194987225Y-57238324D01*
X195088240Y-57204652D01*
X195155583Y-57204652D01*
X195256599Y-57238324D01*
X195323942Y-57305668D01*
X195391286Y-57440355D01*
X195391286Y-58248477D01*
X195829018Y-57810744D01*
X197983164Y-62791286D02*
X197882148Y-62824957D01*
X197747461Y-62824957D01*
X197545431Y-62824957D01*
X197444416Y-62858629D01*
X197377072Y-62925973D01*
X197579103Y-63060660D02*
X197478087Y-63094331D01*
X197343400Y-63094331D01*
X197175042Y-62993316D01*
X196939339Y-62757614D01*
X196838324Y-62589255D01*
X196838324Y-62454568D01*
X196871996Y-62353553D01*
X197006683Y-62218866D01*
X197107698Y-62185194D01*
X197242385Y-62185194D01*
X197410744Y-62286209D01*
X197646446Y-62521912D01*
X197747461Y-62690270D01*
X197747461Y-62824957D01*
X197713790Y-62925973D01*
X197579103Y-63060660D01*
X197814805Y-61410744D02*
X197478087Y-61747461D01*
X197781133Y-62117851D01*
X197781133Y-62050507D01*
X197814805Y-61949492D01*
X197983164Y-61781133D01*
X198084179Y-61747461D01*
X198151522Y-61747461D01*
X198252538Y-61781133D01*
X198420896Y-61949492D01*
X198454568Y-62050507D01*
X198454568Y-62117851D01*
X198420896Y-62218866D01*
X198252538Y-62387225D01*
X198151522Y-62420896D01*
X198084179Y-62420896D01*
X198084179Y-61141370D02*
X198521912Y-60703637D01*
X198555583Y-61208713D01*
X198656599Y-61107698D01*
X198757614Y-61074026D01*
X198824957Y-61074026D01*
X198925973Y-61107698D01*
X199094331Y-61276057D01*
X199128003Y-61377072D01*
X199128003Y-61444416D01*
X199094331Y-61545431D01*
X198892301Y-61747461D01*
X198791286Y-61781133D01*
X198723942Y-61781133D01*
X201583164Y-66191286D02*
X201482148Y-66224957D01*
X201347461Y-66224957D01*
X201145431Y-66224957D01*
X201044416Y-66258629D01*
X200977072Y-66325973D01*
X201179103Y-66460660D02*
X201078087Y-66494331D01*
X200943400Y-66494331D01*
X200775042Y-66393316D01*
X200539339Y-66157614D01*
X200438324Y-65989255D01*
X200438324Y-65854568D01*
X200471996Y-65753553D01*
X200606683Y-65618866D01*
X200707698Y-65585194D01*
X200842385Y-65585194D01*
X201010744Y-65686209D01*
X201246446Y-65921912D01*
X201347461Y-66090270D01*
X201347461Y-66224957D01*
X201313790Y-66325973D01*
X201179103Y-66460660D01*
X201414805Y-64810744D02*
X201078087Y-65147461D01*
X201381133Y-65517851D01*
X201381133Y-65450507D01*
X201414805Y-65349492D01*
X201583164Y-65181133D01*
X201684179Y-65147461D01*
X201751522Y-65147461D01*
X201852538Y-65181133D01*
X202020896Y-65349492D01*
X202054568Y-65450507D01*
X202054568Y-65517851D01*
X202020896Y-65618866D01*
X201852538Y-65787225D01*
X201751522Y-65820896D01*
X201684179Y-65820896D01*
X202290270Y-64406683D02*
X202761675Y-64878087D01*
X201852538Y-64305668D02*
X202189255Y-64979103D01*
X202626988Y-64541370D01*
X201483164Y-55791286D02*
X201382148Y-55824957D01*
X201247461Y-55824957D01*
X201045431Y-55824957D01*
X200944416Y-55858629D01*
X200877072Y-55925973D01*
X201079103Y-56060660D02*
X200978087Y-56094331D01*
X200843400Y-56094331D01*
X200675042Y-55993316D01*
X200439339Y-55757614D01*
X200338324Y-55589255D01*
X200338324Y-55454568D01*
X200371996Y-55353553D01*
X200506683Y-55218866D01*
X200607698Y-55185194D01*
X200742385Y-55185194D01*
X200910744Y-55286209D01*
X201146446Y-55521912D01*
X201247461Y-55690270D01*
X201247461Y-55824957D01*
X201213790Y-55925973D01*
X201079103Y-56060660D01*
X201314805Y-54410744D02*
X200978087Y-54747461D01*
X201281133Y-55117851D01*
X201281133Y-55050507D01*
X201314805Y-54949492D01*
X201483164Y-54781133D01*
X201584179Y-54747461D01*
X201651522Y-54747461D01*
X201752538Y-54781133D01*
X201920896Y-54949492D01*
X201954568Y-55050507D01*
X201954568Y-55117851D01*
X201920896Y-55218866D01*
X201752538Y-55387225D01*
X201651522Y-55420896D01*
X201584179Y-55420896D01*
X201988240Y-53737309D02*
X201651522Y-54074026D01*
X201954568Y-54444416D01*
X201954568Y-54377072D01*
X201988240Y-54276057D01*
X202156599Y-54107698D01*
X202257614Y-54074026D01*
X202324957Y-54074026D01*
X202425973Y-54107698D01*
X202594331Y-54276057D01*
X202628003Y-54377072D01*
X202628003Y-54444416D01*
X202594331Y-54545431D01*
X202425973Y-54713790D01*
X202324957Y-54747461D01*
X202257614Y-54747461D01*
X205083164Y-59191286D02*
X204982148Y-59224957D01*
X204847461Y-59224957D01*
X204645431Y-59224957D01*
X204544416Y-59258629D01*
X204477072Y-59325973D01*
X204679103Y-59460660D02*
X204578087Y-59494331D01*
X204443400Y-59494331D01*
X204275042Y-59393316D01*
X204039339Y-59157614D01*
X203938324Y-58989255D01*
X203938324Y-58854568D01*
X203971996Y-58753553D01*
X204106683Y-58618866D01*
X204207698Y-58585194D01*
X204342385Y-58585194D01*
X204510744Y-58686209D01*
X204746446Y-58921912D01*
X204847461Y-59090270D01*
X204847461Y-59224957D01*
X204813790Y-59325973D01*
X204679103Y-59460660D01*
X204914805Y-57810744D02*
X204578087Y-58147461D01*
X204881133Y-58517851D01*
X204881133Y-58450507D01*
X204914805Y-58349492D01*
X205083164Y-58181133D01*
X205184179Y-58147461D01*
X205251522Y-58147461D01*
X205352538Y-58181133D01*
X205520896Y-58349492D01*
X205554568Y-58450507D01*
X205554568Y-58517851D01*
X205520896Y-58618866D01*
X205352538Y-58787225D01*
X205251522Y-58820896D01*
X205184179Y-58820896D01*
X205554568Y-57170981D02*
X205419881Y-57305668D01*
X205386209Y-57406683D01*
X205386209Y-57474026D01*
X205419881Y-57642385D01*
X205520896Y-57810744D01*
X205790270Y-58080118D01*
X205891286Y-58113790D01*
X205958629Y-58113790D01*
X206059644Y-58080118D01*
X206194331Y-57945431D01*
X206228003Y-57844416D01*
X206228003Y-57777072D01*
X206194331Y-57676057D01*
X206025973Y-57507698D01*
X205924957Y-57474026D01*
X205857614Y-57474026D01*
X205756599Y-57507698D01*
X205621912Y-57642385D01*
X205588240Y-57743400D01*
X205588240Y-57810744D01*
X205621912Y-57911759D01*
X208583164Y-62691286D02*
X208482148Y-62724957D01*
X208347461Y-62724957D01*
X208145431Y-62724957D01*
X208044416Y-62758629D01*
X207977072Y-62825973D01*
X208179103Y-62960660D02*
X208078087Y-62994331D01*
X207943400Y-62994331D01*
X207775042Y-62893316D01*
X207539339Y-62657614D01*
X207438324Y-62489255D01*
X207438324Y-62354568D01*
X207471996Y-62253553D01*
X207606683Y-62118866D01*
X207707698Y-62085194D01*
X207842385Y-62085194D01*
X208010744Y-62186209D01*
X208246446Y-62421912D01*
X208347461Y-62590270D01*
X208347461Y-62724957D01*
X208313790Y-62825973D01*
X208179103Y-62960660D01*
X208414805Y-61310744D02*
X208078087Y-61647461D01*
X208381133Y-62017851D01*
X208381133Y-61950507D01*
X208414805Y-61849492D01*
X208583164Y-61681133D01*
X208684179Y-61647461D01*
X208751522Y-61647461D01*
X208852538Y-61681133D01*
X209020896Y-61849492D01*
X209054568Y-61950507D01*
X209054568Y-62017851D01*
X209020896Y-62118866D01*
X208852538Y-62287225D01*
X208751522Y-62320896D01*
X208684179Y-62320896D01*
X208684179Y-61041370D02*
X209155583Y-60569965D01*
X209559644Y-61580118D01*
X212083164Y-66191286D02*
X211982148Y-66224957D01*
X211847461Y-66224957D01*
X211645431Y-66224957D01*
X211544416Y-66258629D01*
X211477072Y-66325973D01*
X211679103Y-66460660D02*
X211578087Y-66494331D01*
X211443400Y-66494331D01*
X211275042Y-66393316D01*
X211039339Y-66157614D01*
X210938324Y-65989255D01*
X210938324Y-65854568D01*
X210971996Y-65753553D01*
X211106683Y-65618866D01*
X211207698Y-65585194D01*
X211342385Y-65585194D01*
X211510744Y-65686209D01*
X211746446Y-65921912D01*
X211847461Y-66090270D01*
X211847461Y-66224957D01*
X211813790Y-66325973D01*
X211679103Y-66460660D01*
X211914805Y-64810744D02*
X211578087Y-65147461D01*
X211881133Y-65517851D01*
X211881133Y-65450507D01*
X211914805Y-65349492D01*
X212083164Y-65181133D01*
X212184179Y-65147461D01*
X212251522Y-65147461D01*
X212352538Y-65181133D01*
X212520896Y-65349492D01*
X212554568Y-65450507D01*
X212554568Y-65517851D01*
X212520896Y-65618866D01*
X212352538Y-65787225D01*
X212251522Y-65820896D01*
X212184179Y-65820896D01*
X212655583Y-64676057D02*
X212554568Y-64709729D01*
X212487225Y-64709729D01*
X212386209Y-64676057D01*
X212352538Y-64642385D01*
X212318866Y-64541370D01*
X212318866Y-64474026D01*
X212352538Y-64373011D01*
X212487225Y-64238324D01*
X212588240Y-64204652D01*
X212655583Y-64204652D01*
X212756599Y-64238324D01*
X212790270Y-64271996D01*
X212823942Y-64373011D01*
X212823942Y-64440355D01*
X212790270Y-64541370D01*
X212655583Y-64676057D01*
X212621912Y-64777072D01*
X212621912Y-64844416D01*
X212655583Y-64945431D01*
X212790270Y-65080118D01*
X212891286Y-65113790D01*
X212958629Y-65113790D01*
X213059644Y-65080118D01*
X213194331Y-64945431D01*
X213228003Y-64844416D01*
X213228003Y-64777072D01*
X213194331Y-64676057D01*
X213059644Y-64541370D01*
X212958629Y-64507698D01*
X212891286Y-64507698D01*
X212790270Y-64541370D01*
X212083164Y-55691286D02*
X211982148Y-55724957D01*
X211847461Y-55724957D01*
X211645431Y-55724957D01*
X211544416Y-55758629D01*
X211477072Y-55825973D01*
X211679103Y-55960660D02*
X211578087Y-55994331D01*
X211443400Y-55994331D01*
X211275042Y-55893316D01*
X211039339Y-55657614D01*
X210938324Y-55489255D01*
X210938324Y-55354568D01*
X210971996Y-55253553D01*
X211106683Y-55118866D01*
X211207698Y-55085194D01*
X211342385Y-55085194D01*
X211510744Y-55186209D01*
X211746446Y-55421912D01*
X211847461Y-55590270D01*
X211847461Y-55724957D01*
X211813790Y-55825973D01*
X211679103Y-55960660D01*
X211914805Y-54310744D02*
X211578087Y-54647461D01*
X211881133Y-55017851D01*
X211881133Y-54950507D01*
X211914805Y-54849492D01*
X212083164Y-54681133D01*
X212184179Y-54647461D01*
X212251522Y-54647461D01*
X212352538Y-54681133D01*
X212520896Y-54849492D01*
X212554568Y-54950507D01*
X212554568Y-55017851D01*
X212520896Y-55118866D01*
X212352538Y-55287225D01*
X212251522Y-55320896D01*
X212184179Y-55320896D01*
X212992301Y-54647461D02*
X213126988Y-54512774D01*
X213160660Y-54411759D01*
X213160660Y-54344416D01*
X213126988Y-54176057D01*
X213025973Y-54007698D01*
X212756599Y-53738324D01*
X212655583Y-53704652D01*
X212588240Y-53704652D01*
X212487225Y-53738324D01*
X212352538Y-53873011D01*
X212318866Y-53974026D01*
X212318866Y-54041370D01*
X212352538Y-54142385D01*
X212520896Y-54310744D01*
X212621912Y-54344416D01*
X212689255Y-54344416D01*
X212790270Y-54310744D01*
X212924957Y-54176057D01*
X212958629Y-54075042D01*
X212958629Y-54007698D01*
X212924957Y-53906683D01*
X215583164Y-59191286D02*
X215482148Y-59224957D01*
X215347461Y-59224957D01*
X215145431Y-59224957D01*
X215044416Y-59258629D01*
X214977072Y-59325973D01*
X215179103Y-59460660D02*
X215078087Y-59494331D01*
X214943400Y-59494331D01*
X214775042Y-59393316D01*
X214539339Y-59157614D01*
X214438324Y-58989255D01*
X214438324Y-58854568D01*
X214471996Y-58753553D01*
X214606683Y-58618866D01*
X214707698Y-58585194D01*
X214842385Y-58585194D01*
X215010744Y-58686209D01*
X215246446Y-58921912D01*
X215347461Y-59090270D01*
X215347461Y-59224957D01*
X215313790Y-59325973D01*
X215179103Y-59460660D01*
X215381133Y-57844416D02*
X215246446Y-57979103D01*
X215212774Y-58080118D01*
X215212774Y-58147461D01*
X215246446Y-58315820D01*
X215347461Y-58484179D01*
X215616835Y-58753553D01*
X215717851Y-58787225D01*
X215785194Y-58787225D01*
X215886209Y-58753553D01*
X216020896Y-58618866D01*
X216054568Y-58517851D01*
X216054568Y-58450507D01*
X216020896Y-58349492D01*
X215852538Y-58181133D01*
X215751522Y-58147461D01*
X215684179Y-58147461D01*
X215583164Y-58181133D01*
X215448477Y-58315820D01*
X215414805Y-58416835D01*
X215414805Y-58484179D01*
X215448477Y-58585194D01*
X215886209Y-57339339D02*
X215953553Y-57271996D01*
X216054568Y-57238324D01*
X216121912Y-57238324D01*
X216222927Y-57271996D01*
X216391286Y-57373011D01*
X216559644Y-57541370D01*
X216660660Y-57709729D01*
X216694331Y-57810744D01*
X216694331Y-57878087D01*
X216660660Y-57979103D01*
X216593316Y-58046446D01*
X216492301Y-58080118D01*
X216424957Y-58080118D01*
X216323942Y-58046446D01*
X216155583Y-57945431D01*
X215987225Y-57777072D01*
X215886209Y-57608713D01*
X215852538Y-57507698D01*
X215852538Y-57440355D01*
X215886209Y-57339339D01*
X45483164Y-30291286D02*
X45382148Y-30324957D01*
X45247461Y-30324957D01*
X45045431Y-30324957D01*
X44944416Y-30358629D01*
X44877072Y-30425973D01*
X45079103Y-30560660D02*
X44978087Y-30594331D01*
X44843400Y-30594331D01*
X44675042Y-30493316D01*
X44439339Y-30257614D01*
X44338324Y-30089255D01*
X44338324Y-29954568D01*
X44371996Y-29853553D01*
X44506683Y-29718866D01*
X44607698Y-29685194D01*
X44742385Y-29685194D01*
X44910744Y-29786209D01*
X45146446Y-30021912D01*
X45247461Y-30190270D01*
X45247461Y-30324957D01*
X45213790Y-30425973D01*
X45079103Y-30560660D01*
X45281133Y-28944416D02*
X45146446Y-29079103D01*
X45112774Y-29180118D01*
X45112774Y-29247461D01*
X45146446Y-29415820D01*
X45247461Y-29584179D01*
X45516835Y-29853553D01*
X45617851Y-29887225D01*
X45685194Y-29887225D01*
X45786209Y-29853553D01*
X45920896Y-29718866D01*
X45954568Y-29617851D01*
X45954568Y-29550507D01*
X45920896Y-29449492D01*
X45752538Y-29281133D01*
X45651522Y-29247461D01*
X45584179Y-29247461D01*
X45483164Y-29281133D01*
X45348477Y-29415820D01*
X45314805Y-29516835D01*
X45314805Y-29584179D01*
X45348477Y-29685194D01*
X46729018Y-28910744D02*
X46324957Y-29314805D01*
X46526988Y-29112774D02*
X45819881Y-28405668D01*
X45853553Y-28574026D01*
X45853553Y-28708713D01*
X45819881Y-28809729D01*
X35452380Y-72166666D02*
X34976190Y-72500000D01*
X35452380Y-72738095D02*
X34452380Y-72738095D01*
X34452380Y-72357142D01*
X34500000Y-72261904D01*
X34547619Y-72214285D01*
X34642857Y-72166666D01*
X34785714Y-72166666D01*
X34880952Y-72214285D01*
X34928571Y-72261904D01*
X34976190Y-72357142D01*
X34976190Y-72738095D01*
X35452380Y-71214285D02*
X35452380Y-71785714D01*
X35452380Y-71500000D02*
X34452380Y-71500000D01*
X34595238Y-71595238D01*
X34690476Y-71690476D01*
X34738095Y-71785714D01*
X37952380Y-72166666D02*
X37476190Y-72500000D01*
X37952380Y-72738095D02*
X36952380Y-72738095D01*
X36952380Y-72357142D01*
X37000000Y-72261904D01*
X37047619Y-72214285D01*
X37142857Y-72166666D01*
X37285714Y-72166666D01*
X37380952Y-72214285D01*
X37428571Y-72261904D01*
X37476190Y-72357142D01*
X37476190Y-72738095D01*
X37047619Y-71785714D02*
X37000000Y-71738095D01*
X36952380Y-71642857D01*
X36952380Y-71404761D01*
X37000000Y-71309523D01*
X37047619Y-71261904D01*
X37142857Y-71214285D01*
X37238095Y-71214285D01*
X37380952Y-71261904D01*
X37952380Y-71833333D01*
X37952380Y-71214285D01*
X40452380Y-72166666D02*
X39976190Y-72500000D01*
X40452380Y-72738095D02*
X39452380Y-72738095D01*
X39452380Y-72357142D01*
X39500000Y-72261904D01*
X39547619Y-72214285D01*
X39642857Y-72166666D01*
X39785714Y-72166666D01*
X39880952Y-72214285D01*
X39928571Y-72261904D01*
X39976190Y-72357142D01*
X39976190Y-72738095D01*
X39452380Y-71833333D02*
X39452380Y-71214285D01*
X39833333Y-71547619D01*
X39833333Y-71404761D01*
X39880952Y-71309523D01*
X39928571Y-71261904D01*
X40023809Y-71214285D01*
X40261904Y-71214285D01*
X40357142Y-71261904D01*
X40404761Y-71309523D01*
X40452380Y-71404761D01*
X40452380Y-71690476D01*
X40404761Y-71785714D01*
X40357142Y-71833333D01*
X42952380Y-72166666D02*
X42476190Y-72500000D01*
X42952380Y-72738095D02*
X41952380Y-72738095D01*
X41952380Y-72357142D01*
X42000000Y-72261904D01*
X42047619Y-72214285D01*
X42142857Y-72166666D01*
X42285714Y-72166666D01*
X42380952Y-72214285D01*
X42428571Y-72261904D01*
X42476190Y-72357142D01*
X42476190Y-72738095D01*
X42285714Y-71309523D02*
X42952380Y-71309523D01*
X41904761Y-71547619D02*
X42619047Y-71785714D01*
X42619047Y-71166666D01*
X45452380Y-72166666D02*
X44976190Y-72500000D01*
X45452380Y-72738095D02*
X44452380Y-72738095D01*
X44452380Y-72357142D01*
X44500000Y-72261904D01*
X44547619Y-72214285D01*
X44642857Y-72166666D01*
X44785714Y-72166666D01*
X44880952Y-72214285D01*
X44928571Y-72261904D01*
X44976190Y-72357142D01*
X44976190Y-72738095D01*
X44452380Y-71261904D02*
X44452380Y-71738095D01*
X44928571Y-71785714D01*
X44880952Y-71738095D01*
X44833333Y-71642857D01*
X44833333Y-71404761D01*
X44880952Y-71309523D01*
X44928571Y-71261904D01*
X45023809Y-71214285D01*
X45261904Y-71214285D01*
X45357142Y-71261904D01*
X45404761Y-71309523D01*
X45452380Y-71404761D01*
X45452380Y-71642857D01*
X45404761Y-71738095D01*
X45357142Y-71785714D01*
X47952380Y-72166666D02*
X47476190Y-72500000D01*
X47952380Y-72738095D02*
X46952380Y-72738095D01*
X46952380Y-72357142D01*
X47000000Y-72261904D01*
X47047619Y-72214285D01*
X47142857Y-72166666D01*
X47285714Y-72166666D01*
X47380952Y-72214285D01*
X47428571Y-72261904D01*
X47476190Y-72357142D01*
X47476190Y-72738095D01*
X46952380Y-71309523D02*
X46952380Y-71500000D01*
X47000000Y-71595238D01*
X47047619Y-71642857D01*
X47190476Y-71738095D01*
X47380952Y-71785714D01*
X47761904Y-71785714D01*
X47857142Y-71738095D01*
X47904761Y-71690476D01*
X47952380Y-71595238D01*
X47952380Y-71404761D01*
X47904761Y-71309523D01*
X47857142Y-71261904D01*
X47761904Y-71214285D01*
X47523809Y-71214285D01*
X47428571Y-71261904D01*
X47380952Y-71309523D01*
X47333333Y-71404761D01*
X47333333Y-71595238D01*
X47380952Y-71690476D01*
X47428571Y-71738095D01*
X47523809Y-71785714D01*
X50452380Y-72166666D02*
X49976190Y-72500000D01*
X50452380Y-72738095D02*
X49452380Y-72738095D01*
X49452380Y-72357142D01*
X49500000Y-72261904D01*
X49547619Y-72214285D01*
X49642857Y-72166666D01*
X49785714Y-72166666D01*
X49880952Y-72214285D01*
X49928571Y-72261904D01*
X49976190Y-72357142D01*
X49976190Y-72738095D01*
X49452380Y-71833333D02*
X49452380Y-71166666D01*
X50452380Y-71595238D01*
X52952380Y-72166666D02*
X52476190Y-72500000D01*
X52952380Y-72738095D02*
X51952380Y-72738095D01*
X51952380Y-72357142D01*
X52000000Y-72261904D01*
X52047619Y-72214285D01*
X52142857Y-72166666D01*
X52285714Y-72166666D01*
X52380952Y-72214285D01*
X52428571Y-72261904D01*
X52476190Y-72357142D01*
X52476190Y-72738095D01*
X52380952Y-71595238D02*
X52333333Y-71690476D01*
X52285714Y-71738095D01*
X52190476Y-71785714D01*
X52142857Y-71785714D01*
X52047619Y-71738095D01*
X52000000Y-71690476D01*
X51952380Y-71595238D01*
X51952380Y-71404761D01*
X52000000Y-71309523D01*
X52047619Y-71261904D01*
X52142857Y-71214285D01*
X52190476Y-71214285D01*
X52285714Y-71261904D01*
X52333333Y-71309523D01*
X52380952Y-71404761D01*
X52380952Y-71595238D01*
X52428571Y-71690476D01*
X52476190Y-71738095D01*
X52571428Y-71785714D01*
X52761904Y-71785714D01*
X52857142Y-71738095D01*
X52904761Y-71690476D01*
X52952380Y-71595238D01*
X52952380Y-71404761D01*
X52904761Y-71309523D01*
X52857142Y-71261904D01*
X52761904Y-71214285D01*
X52571428Y-71214285D01*
X52476190Y-71261904D01*
X52428571Y-71309523D01*
X52380952Y-71404761D01*
X55452380Y-72166666D02*
X54976190Y-72500000D01*
X55452380Y-72738095D02*
X54452380Y-72738095D01*
X54452380Y-72357142D01*
X54500000Y-72261904D01*
X54547619Y-72214285D01*
X54642857Y-72166666D01*
X54785714Y-72166666D01*
X54880952Y-72214285D01*
X54928571Y-72261904D01*
X54976190Y-72357142D01*
X54976190Y-72738095D01*
X55452380Y-71690476D02*
X55452380Y-71500000D01*
X55404761Y-71404761D01*
X55357142Y-71357142D01*
X55214285Y-71261904D01*
X55023809Y-71214285D01*
X54642857Y-71214285D01*
X54547619Y-71261904D01*
X54500000Y-71309523D01*
X54452380Y-71404761D01*
X54452380Y-71595238D01*
X54500000Y-71690476D01*
X54547619Y-71738095D01*
X54642857Y-71785714D01*
X54880952Y-71785714D01*
X54976190Y-71738095D01*
X55023809Y-71690476D01*
X55071428Y-71595238D01*
X55071428Y-71404761D01*
X55023809Y-71309523D01*
X54976190Y-71261904D01*
X54880952Y-71214285D01*
X57952380Y-72142857D02*
X57476190Y-72476190D01*
X57952380Y-72714285D02*
X56952380Y-72714285D01*
X56952380Y-72333333D01*
X57000000Y-72238095D01*
X57047619Y-72190476D01*
X57142857Y-72142857D01*
X57285714Y-72142857D01*
X57380952Y-72190476D01*
X57428571Y-72238095D01*
X57476190Y-72333333D01*
X57476190Y-72714285D01*
X57952380Y-71190476D02*
X57952380Y-71761904D01*
X57952380Y-71476190D02*
X56952380Y-71476190D01*
X57095238Y-71571428D01*
X57190476Y-71666666D01*
X57238095Y-71761904D01*
X56952380Y-70571428D02*
X56952380Y-70476190D01*
X57000000Y-70380952D01*
X57047619Y-70333333D01*
X57142857Y-70285714D01*
X57333333Y-70238095D01*
X57571428Y-70238095D01*
X57761904Y-70285714D01*
X57857142Y-70333333D01*
X57904761Y-70380952D01*
X57952380Y-70476190D01*
X57952380Y-70571428D01*
X57904761Y-70666666D01*
X57857142Y-70714285D01*
X57761904Y-70761904D01*
X57571428Y-70809523D01*
X57333333Y-70809523D01*
X57142857Y-70761904D01*
X57047619Y-70714285D01*
X57000000Y-70666666D01*
X56952380Y-70571428D01*
X63452380Y-39142857D02*
X62976190Y-39476190D01*
X63452380Y-39714285D02*
X62452380Y-39714285D01*
X62452380Y-39333333D01*
X62500000Y-39238095D01*
X62547619Y-39190476D01*
X62642857Y-39142857D01*
X62785714Y-39142857D01*
X62880952Y-39190476D01*
X62928571Y-39238095D01*
X62976190Y-39333333D01*
X62976190Y-39714285D01*
X63452380Y-38190476D02*
X63452380Y-38761904D01*
X63452380Y-38476190D02*
X62452380Y-38476190D01*
X62595238Y-38571428D01*
X62690476Y-38666666D01*
X62738095Y-38761904D01*
X63452380Y-37238095D02*
X63452380Y-37809523D01*
X63452380Y-37523809D02*
X62452380Y-37523809D01*
X62595238Y-37619047D01*
X62690476Y-37714285D01*
X62738095Y-37809523D01*
X66952380Y-95642857D02*
X66476190Y-95976190D01*
X66952380Y-96214285D02*
X65952380Y-96214285D01*
X65952380Y-95833333D01*
X66000000Y-95738095D01*
X66047619Y-95690476D01*
X66142857Y-95642857D01*
X66285714Y-95642857D01*
X66380952Y-95690476D01*
X66428571Y-95738095D01*
X66476190Y-95833333D01*
X66476190Y-96214285D01*
X66952380Y-94690476D02*
X66952380Y-95261904D01*
X66952380Y-94976190D02*
X65952380Y-94976190D01*
X66095238Y-95071428D01*
X66190476Y-95166666D01*
X66238095Y-95261904D01*
X66047619Y-94309523D02*
X66000000Y-94261904D01*
X65952380Y-94166666D01*
X65952380Y-93928571D01*
X66000000Y-93833333D01*
X66047619Y-93785714D01*
X66142857Y-93738095D01*
X66238095Y-93738095D01*
X66380952Y-93785714D01*
X66952380Y-94357142D01*
X66952380Y-93738095D01*
X66952380Y-72142857D02*
X66476190Y-72476190D01*
X66952380Y-72714285D02*
X65952380Y-72714285D01*
X65952380Y-72333333D01*
X66000000Y-72238095D01*
X66047619Y-72190476D01*
X66142857Y-72142857D01*
X66285714Y-72142857D01*
X66380952Y-72190476D01*
X66428571Y-72238095D01*
X66476190Y-72333333D01*
X66476190Y-72714285D01*
X66952380Y-71190476D02*
X66952380Y-71761904D01*
X66952380Y-71476190D02*
X65952380Y-71476190D01*
X66095238Y-71571428D01*
X66190476Y-71666666D01*
X66238095Y-71761904D01*
X65952380Y-70857142D02*
X65952380Y-70238095D01*
X66333333Y-70571428D01*
X66333333Y-70428571D01*
X66380952Y-70333333D01*
X66428571Y-70285714D01*
X66523809Y-70238095D01*
X66761904Y-70238095D01*
X66857142Y-70285714D01*
X66904761Y-70333333D01*
X66952380Y-70428571D01*
X66952380Y-70714285D01*
X66904761Y-70809523D01*
X66857142Y-70857142D01*
X69452380Y-72142857D02*
X68976190Y-72476190D01*
X69452380Y-72714285D02*
X68452380Y-72714285D01*
X68452380Y-72333333D01*
X68500000Y-72238095D01*
X68547619Y-72190476D01*
X68642857Y-72142857D01*
X68785714Y-72142857D01*
X68880952Y-72190476D01*
X68928571Y-72238095D01*
X68976190Y-72333333D01*
X68976190Y-72714285D01*
X69452380Y-71190476D02*
X69452380Y-71761904D01*
X69452380Y-71476190D02*
X68452380Y-71476190D01*
X68595238Y-71571428D01*
X68690476Y-71666666D01*
X68738095Y-71761904D01*
X68785714Y-70333333D02*
X69452380Y-70333333D01*
X68404761Y-70571428D02*
X69119047Y-70809523D01*
X69119047Y-70190476D01*
X71952380Y-72142857D02*
X71476190Y-72476190D01*
X71952380Y-72714285D02*
X70952380Y-72714285D01*
X70952380Y-72333333D01*
X71000000Y-72238095D01*
X71047619Y-72190476D01*
X71142857Y-72142857D01*
X71285714Y-72142857D01*
X71380952Y-72190476D01*
X71428571Y-72238095D01*
X71476190Y-72333333D01*
X71476190Y-72714285D01*
X71952380Y-71190476D02*
X71952380Y-71761904D01*
X71952380Y-71476190D02*
X70952380Y-71476190D01*
X71095238Y-71571428D01*
X71190476Y-71666666D01*
X71238095Y-71761904D01*
X70952380Y-70285714D02*
X70952380Y-70761904D01*
X71428571Y-70809523D01*
X71380952Y-70761904D01*
X71333333Y-70666666D01*
X71333333Y-70428571D01*
X71380952Y-70333333D01*
X71428571Y-70285714D01*
X71523809Y-70238095D01*
X71761904Y-70238095D01*
X71857142Y-70285714D01*
X71904761Y-70333333D01*
X71952380Y-70428571D01*
X71952380Y-70666666D01*
X71904761Y-70761904D01*
X71857142Y-70809523D01*
X74452380Y-72142857D02*
X73976190Y-72476190D01*
X74452380Y-72714285D02*
X73452380Y-72714285D01*
X73452380Y-72333333D01*
X73500000Y-72238095D01*
X73547619Y-72190476D01*
X73642857Y-72142857D01*
X73785714Y-72142857D01*
X73880952Y-72190476D01*
X73928571Y-72238095D01*
X73976190Y-72333333D01*
X73976190Y-72714285D01*
X74452380Y-71190476D02*
X74452380Y-71761904D01*
X74452380Y-71476190D02*
X73452380Y-71476190D01*
X73595238Y-71571428D01*
X73690476Y-71666666D01*
X73738095Y-71761904D01*
X73452380Y-70333333D02*
X73452380Y-70523809D01*
X73500000Y-70619047D01*
X73547619Y-70666666D01*
X73690476Y-70761904D01*
X73880952Y-70809523D01*
X74261904Y-70809523D01*
X74357142Y-70761904D01*
X74404761Y-70714285D01*
X74452380Y-70619047D01*
X74452380Y-70428571D01*
X74404761Y-70333333D01*
X74357142Y-70285714D01*
X74261904Y-70238095D01*
X74023809Y-70238095D01*
X73928571Y-70285714D01*
X73880952Y-70333333D01*
X73833333Y-70428571D01*
X73833333Y-70619047D01*
X73880952Y-70714285D01*
X73928571Y-70761904D01*
X74023809Y-70809523D01*
X76952380Y-72142857D02*
X76476190Y-72476190D01*
X76952380Y-72714285D02*
X75952380Y-72714285D01*
X75952380Y-72333333D01*
X76000000Y-72238095D01*
X76047619Y-72190476D01*
X76142857Y-72142857D01*
X76285714Y-72142857D01*
X76380952Y-72190476D01*
X76428571Y-72238095D01*
X76476190Y-72333333D01*
X76476190Y-72714285D01*
X76952380Y-71190476D02*
X76952380Y-71761904D01*
X76952380Y-71476190D02*
X75952380Y-71476190D01*
X76095238Y-71571428D01*
X76190476Y-71666666D01*
X76238095Y-71761904D01*
X75952380Y-70857142D02*
X75952380Y-70190476D01*
X76952380Y-70619047D01*
X79452380Y-72142857D02*
X78976190Y-72476190D01*
X79452380Y-72714285D02*
X78452380Y-72714285D01*
X78452380Y-72333333D01*
X78500000Y-72238095D01*
X78547619Y-72190476D01*
X78642857Y-72142857D01*
X78785714Y-72142857D01*
X78880952Y-72190476D01*
X78928571Y-72238095D01*
X78976190Y-72333333D01*
X78976190Y-72714285D01*
X79452380Y-71190476D02*
X79452380Y-71761904D01*
X79452380Y-71476190D02*
X78452380Y-71476190D01*
X78595238Y-71571428D01*
X78690476Y-71666666D01*
X78738095Y-71761904D01*
X78880952Y-70619047D02*
X78833333Y-70714285D01*
X78785714Y-70761904D01*
X78690476Y-70809523D01*
X78642857Y-70809523D01*
X78547619Y-70761904D01*
X78500000Y-70714285D01*
X78452380Y-70619047D01*
X78452380Y-70428571D01*
X78500000Y-70333333D01*
X78547619Y-70285714D01*
X78642857Y-70238095D01*
X78690476Y-70238095D01*
X78785714Y-70285714D01*
X78833333Y-70333333D01*
X78880952Y-70428571D01*
X78880952Y-70619047D01*
X78928571Y-70714285D01*
X78976190Y-70761904D01*
X79071428Y-70809523D01*
X79261904Y-70809523D01*
X79357142Y-70761904D01*
X79404761Y-70714285D01*
X79452380Y-70619047D01*
X79452380Y-70428571D01*
X79404761Y-70333333D01*
X79357142Y-70285714D01*
X79261904Y-70238095D01*
X79071428Y-70238095D01*
X78976190Y-70285714D01*
X78928571Y-70333333D01*
X78880952Y-70428571D01*
X81952380Y-72142857D02*
X81476190Y-72476190D01*
X81952380Y-72714285D02*
X80952380Y-72714285D01*
X80952380Y-72333333D01*
X81000000Y-72238095D01*
X81047619Y-72190476D01*
X81142857Y-72142857D01*
X81285714Y-72142857D01*
X81380952Y-72190476D01*
X81428571Y-72238095D01*
X81476190Y-72333333D01*
X81476190Y-72714285D01*
X81952380Y-71190476D02*
X81952380Y-71761904D01*
X81952380Y-71476190D02*
X80952380Y-71476190D01*
X81095238Y-71571428D01*
X81190476Y-71666666D01*
X81238095Y-71761904D01*
X81952380Y-70714285D02*
X81952380Y-70523809D01*
X81904761Y-70428571D01*
X81857142Y-70380952D01*
X81714285Y-70285714D01*
X81523809Y-70238095D01*
X81142857Y-70238095D01*
X81047619Y-70285714D01*
X81000000Y-70333333D01*
X80952380Y-70428571D01*
X80952380Y-70619047D01*
X81000000Y-70714285D01*
X81047619Y-70761904D01*
X81142857Y-70809523D01*
X81380952Y-70809523D01*
X81476190Y-70761904D01*
X81523809Y-70714285D01*
X81571428Y-70619047D01*
X81571428Y-70428571D01*
X81523809Y-70333333D01*
X81476190Y-70285714D01*
X81380952Y-70238095D01*
X84452380Y-72142857D02*
X83976190Y-72476190D01*
X84452380Y-72714285D02*
X83452380Y-72714285D01*
X83452380Y-72333333D01*
X83500000Y-72238095D01*
X83547619Y-72190476D01*
X83642857Y-72142857D01*
X83785714Y-72142857D01*
X83880952Y-72190476D01*
X83928571Y-72238095D01*
X83976190Y-72333333D01*
X83976190Y-72714285D01*
X83547619Y-71761904D02*
X83500000Y-71714285D01*
X83452380Y-71619047D01*
X83452380Y-71380952D01*
X83500000Y-71285714D01*
X83547619Y-71238095D01*
X83642857Y-71190476D01*
X83738095Y-71190476D01*
X83880952Y-71238095D01*
X84452380Y-71809523D01*
X84452380Y-71190476D01*
X83452380Y-70571428D02*
X83452380Y-70476190D01*
X83500000Y-70380952D01*
X83547619Y-70333333D01*
X83642857Y-70285714D01*
X83833333Y-70238095D01*
X84071428Y-70238095D01*
X84261904Y-70285714D01*
X84357142Y-70333333D01*
X84404761Y-70380952D01*
X84452380Y-70476190D01*
X84452380Y-70571428D01*
X84404761Y-70666666D01*
X84357142Y-70714285D01*
X84261904Y-70761904D01*
X84071428Y-70809523D01*
X83833333Y-70809523D01*
X83642857Y-70761904D01*
X83547619Y-70714285D01*
X83500000Y-70666666D01*
X83452380Y-70571428D01*
X86952380Y-72142857D02*
X86476190Y-72476190D01*
X86952380Y-72714285D02*
X85952380Y-72714285D01*
X85952380Y-72333333D01*
X86000000Y-72238095D01*
X86047619Y-72190476D01*
X86142857Y-72142857D01*
X86285714Y-72142857D01*
X86380952Y-72190476D01*
X86428571Y-72238095D01*
X86476190Y-72333333D01*
X86476190Y-72714285D01*
X86047619Y-71761904D02*
X86000000Y-71714285D01*
X85952380Y-71619047D01*
X85952380Y-71380952D01*
X86000000Y-71285714D01*
X86047619Y-71238095D01*
X86142857Y-71190476D01*
X86238095Y-71190476D01*
X86380952Y-71238095D01*
X86952380Y-71809523D01*
X86952380Y-71190476D01*
X86952380Y-70238095D02*
X86952380Y-70809523D01*
X86952380Y-70523809D02*
X85952380Y-70523809D01*
X86095238Y-70619047D01*
X86190476Y-70714285D01*
X86238095Y-70809523D01*
X89452380Y-72142857D02*
X88976190Y-72476190D01*
X89452380Y-72714285D02*
X88452380Y-72714285D01*
X88452380Y-72333333D01*
X88500000Y-72238095D01*
X88547619Y-72190476D01*
X88642857Y-72142857D01*
X88785714Y-72142857D01*
X88880952Y-72190476D01*
X88928571Y-72238095D01*
X88976190Y-72333333D01*
X88976190Y-72714285D01*
X88547619Y-71761904D02*
X88500000Y-71714285D01*
X88452380Y-71619047D01*
X88452380Y-71380952D01*
X88500000Y-71285714D01*
X88547619Y-71238095D01*
X88642857Y-71190476D01*
X88738095Y-71190476D01*
X88880952Y-71238095D01*
X89452380Y-71809523D01*
X89452380Y-71190476D01*
X88547619Y-70809523D02*
X88500000Y-70761904D01*
X88452380Y-70666666D01*
X88452380Y-70428571D01*
X88500000Y-70333333D01*
X88547619Y-70285714D01*
X88642857Y-70238095D01*
X88738095Y-70238095D01*
X88880952Y-70285714D01*
X89452380Y-70857142D01*
X89452380Y-70238095D01*
X94452380Y-39142857D02*
X93976190Y-39476190D01*
X94452380Y-39714285D02*
X93452380Y-39714285D01*
X93452380Y-39333333D01*
X93500000Y-39238095D01*
X93547619Y-39190476D01*
X93642857Y-39142857D01*
X93785714Y-39142857D01*
X93880952Y-39190476D01*
X93928571Y-39238095D01*
X93976190Y-39333333D01*
X93976190Y-39714285D01*
X93547619Y-38761904D02*
X93500000Y-38714285D01*
X93452380Y-38619047D01*
X93452380Y-38380952D01*
X93500000Y-38285714D01*
X93547619Y-38238095D01*
X93642857Y-38190476D01*
X93738095Y-38190476D01*
X93880952Y-38238095D01*
X94452380Y-38809523D01*
X94452380Y-38190476D01*
X93452380Y-37857142D02*
X93452380Y-37238095D01*
X93833333Y-37571428D01*
X93833333Y-37428571D01*
X93880952Y-37333333D01*
X93928571Y-37285714D01*
X94023809Y-37238095D01*
X94261904Y-37238095D01*
X94357142Y-37285714D01*
X94404761Y-37333333D01*
X94452380Y-37428571D01*
X94452380Y-37714285D01*
X94404761Y-37809523D01*
X94357142Y-37857142D01*
X98452380Y-72142857D02*
X97976190Y-72476190D01*
X98452380Y-72714285D02*
X97452380Y-72714285D01*
X97452380Y-72333333D01*
X97500000Y-72238095D01*
X97547619Y-72190476D01*
X97642857Y-72142857D01*
X97785714Y-72142857D01*
X97880952Y-72190476D01*
X97928571Y-72238095D01*
X97976190Y-72333333D01*
X97976190Y-72714285D01*
X97547619Y-71761904D02*
X97500000Y-71714285D01*
X97452380Y-71619047D01*
X97452380Y-71380952D01*
X97500000Y-71285714D01*
X97547619Y-71238095D01*
X97642857Y-71190476D01*
X97738095Y-71190476D01*
X97880952Y-71238095D01*
X98452380Y-71809523D01*
X98452380Y-71190476D01*
X97785714Y-70333333D02*
X98452380Y-70333333D01*
X97404761Y-70571428D02*
X98119047Y-70809523D01*
X98119047Y-70190476D01*
X100952380Y-72142857D02*
X100476190Y-72476190D01*
X100952380Y-72714285D02*
X99952380Y-72714285D01*
X99952380Y-72333333D01*
X100000000Y-72238095D01*
X100047619Y-72190476D01*
X100142857Y-72142857D01*
X100285714Y-72142857D01*
X100380952Y-72190476D01*
X100428571Y-72238095D01*
X100476190Y-72333333D01*
X100476190Y-72714285D01*
X100047619Y-71761904D02*
X100000000Y-71714285D01*
X99952380Y-71619047D01*
X99952380Y-71380952D01*
X100000000Y-71285714D01*
X100047619Y-71238095D01*
X100142857Y-71190476D01*
X100238095Y-71190476D01*
X100380952Y-71238095D01*
X100952380Y-71809523D01*
X100952380Y-71190476D01*
X99952380Y-70285714D02*
X99952380Y-70761904D01*
X100428571Y-70809523D01*
X100380952Y-70761904D01*
X100333333Y-70666666D01*
X100333333Y-70428571D01*
X100380952Y-70333333D01*
X100428571Y-70285714D01*
X100523809Y-70238095D01*
X100761904Y-70238095D01*
X100857142Y-70285714D01*
X100904761Y-70333333D01*
X100952380Y-70428571D01*
X100952380Y-70666666D01*
X100904761Y-70761904D01*
X100857142Y-70809523D01*
X103452380Y-72142857D02*
X102976190Y-72476190D01*
X103452380Y-72714285D02*
X102452380Y-72714285D01*
X102452380Y-72333333D01*
X102500000Y-72238095D01*
X102547619Y-72190476D01*
X102642857Y-72142857D01*
X102785714Y-72142857D01*
X102880952Y-72190476D01*
X102928571Y-72238095D01*
X102976190Y-72333333D01*
X102976190Y-72714285D01*
X102547619Y-71761904D02*
X102500000Y-71714285D01*
X102452380Y-71619047D01*
X102452380Y-71380952D01*
X102500000Y-71285714D01*
X102547619Y-71238095D01*
X102642857Y-71190476D01*
X102738095Y-71190476D01*
X102880952Y-71238095D01*
X103452380Y-71809523D01*
X103452380Y-71190476D01*
X102452380Y-70333333D02*
X102452380Y-70523809D01*
X102500000Y-70619047D01*
X102547619Y-70666666D01*
X102690476Y-70761904D01*
X102880952Y-70809523D01*
X103261904Y-70809523D01*
X103357142Y-70761904D01*
X103404761Y-70714285D01*
X103452380Y-70619047D01*
X103452380Y-70428571D01*
X103404761Y-70333333D01*
X103357142Y-70285714D01*
X103261904Y-70238095D01*
X103023809Y-70238095D01*
X102928571Y-70285714D01*
X102880952Y-70333333D01*
X102833333Y-70428571D01*
X102833333Y-70619047D01*
X102880952Y-70714285D01*
X102928571Y-70761904D01*
X103023809Y-70809523D01*
X105952380Y-72142857D02*
X105476190Y-72476190D01*
X105952380Y-72714285D02*
X104952380Y-72714285D01*
X104952380Y-72333333D01*
X105000000Y-72238095D01*
X105047619Y-72190476D01*
X105142857Y-72142857D01*
X105285714Y-72142857D01*
X105380952Y-72190476D01*
X105428571Y-72238095D01*
X105476190Y-72333333D01*
X105476190Y-72714285D01*
X105047619Y-71761904D02*
X105000000Y-71714285D01*
X104952380Y-71619047D01*
X104952380Y-71380952D01*
X105000000Y-71285714D01*
X105047619Y-71238095D01*
X105142857Y-71190476D01*
X105238095Y-71190476D01*
X105380952Y-71238095D01*
X105952380Y-71809523D01*
X105952380Y-71190476D01*
X104952380Y-70857142D02*
X104952380Y-70190476D01*
X105952380Y-70619047D01*
X108452380Y-72142857D02*
X107976190Y-72476190D01*
X108452380Y-72714285D02*
X107452380Y-72714285D01*
X107452380Y-72333333D01*
X107500000Y-72238095D01*
X107547619Y-72190476D01*
X107642857Y-72142857D01*
X107785714Y-72142857D01*
X107880952Y-72190476D01*
X107928571Y-72238095D01*
X107976190Y-72333333D01*
X107976190Y-72714285D01*
X107547619Y-71761904D02*
X107500000Y-71714285D01*
X107452380Y-71619047D01*
X107452380Y-71380952D01*
X107500000Y-71285714D01*
X107547619Y-71238095D01*
X107642857Y-71190476D01*
X107738095Y-71190476D01*
X107880952Y-71238095D01*
X108452380Y-71809523D01*
X108452380Y-71190476D01*
X107880952Y-70619047D02*
X107833333Y-70714285D01*
X107785714Y-70761904D01*
X107690476Y-70809523D01*
X107642857Y-70809523D01*
X107547619Y-70761904D01*
X107500000Y-70714285D01*
X107452380Y-70619047D01*
X107452380Y-70428571D01*
X107500000Y-70333333D01*
X107547619Y-70285714D01*
X107642857Y-70238095D01*
X107690476Y-70238095D01*
X107785714Y-70285714D01*
X107833333Y-70333333D01*
X107880952Y-70428571D01*
X107880952Y-70619047D01*
X107928571Y-70714285D01*
X107976190Y-70761904D01*
X108071428Y-70809523D01*
X108261904Y-70809523D01*
X108357142Y-70761904D01*
X108404761Y-70714285D01*
X108452380Y-70619047D01*
X108452380Y-70428571D01*
X108404761Y-70333333D01*
X108357142Y-70285714D01*
X108261904Y-70238095D01*
X108071428Y-70238095D01*
X107976190Y-70285714D01*
X107928571Y-70333333D01*
X107880952Y-70428571D01*
X110952380Y-72142857D02*
X110476190Y-72476190D01*
X110952380Y-72714285D02*
X109952380Y-72714285D01*
X109952380Y-72333333D01*
X110000000Y-72238095D01*
X110047619Y-72190476D01*
X110142857Y-72142857D01*
X110285714Y-72142857D01*
X110380952Y-72190476D01*
X110428571Y-72238095D01*
X110476190Y-72333333D01*
X110476190Y-72714285D01*
X110047619Y-71761904D02*
X110000000Y-71714285D01*
X109952380Y-71619047D01*
X109952380Y-71380952D01*
X110000000Y-71285714D01*
X110047619Y-71238095D01*
X110142857Y-71190476D01*
X110238095Y-71190476D01*
X110380952Y-71238095D01*
X110952380Y-71809523D01*
X110952380Y-71190476D01*
X110952380Y-70714285D02*
X110952380Y-70523809D01*
X110904761Y-70428571D01*
X110857142Y-70380952D01*
X110714285Y-70285714D01*
X110523809Y-70238095D01*
X110142857Y-70238095D01*
X110047619Y-70285714D01*
X110000000Y-70333333D01*
X109952380Y-70428571D01*
X109952380Y-70619047D01*
X110000000Y-70714285D01*
X110047619Y-70761904D01*
X110142857Y-70809523D01*
X110380952Y-70809523D01*
X110476190Y-70761904D01*
X110523809Y-70714285D01*
X110571428Y-70619047D01*
X110571428Y-70428571D01*
X110523809Y-70333333D01*
X110476190Y-70285714D01*
X110380952Y-70238095D01*
X113452380Y-72142857D02*
X112976190Y-72476190D01*
X113452380Y-72714285D02*
X112452380Y-72714285D01*
X112452380Y-72333333D01*
X112500000Y-72238095D01*
X112547619Y-72190476D01*
X112642857Y-72142857D01*
X112785714Y-72142857D01*
X112880952Y-72190476D01*
X112928571Y-72238095D01*
X112976190Y-72333333D01*
X112976190Y-72714285D01*
X112452380Y-71809523D02*
X112452380Y-71190476D01*
X112833333Y-71523809D01*
X112833333Y-71380952D01*
X112880952Y-71285714D01*
X112928571Y-71238095D01*
X113023809Y-71190476D01*
X113261904Y-71190476D01*
X113357142Y-71238095D01*
X113404761Y-71285714D01*
X113452380Y-71380952D01*
X113452380Y-71666666D01*
X113404761Y-71761904D01*
X113357142Y-71809523D01*
X112452380Y-70571428D02*
X112452380Y-70476190D01*
X112500000Y-70380952D01*
X112547619Y-70333333D01*
X112642857Y-70285714D01*
X112833333Y-70238095D01*
X113071428Y-70238095D01*
X113261904Y-70285714D01*
X113357142Y-70333333D01*
X113404761Y-70380952D01*
X113452380Y-70476190D01*
X113452380Y-70571428D01*
X113404761Y-70666666D01*
X113357142Y-70714285D01*
X113261904Y-70761904D01*
X113071428Y-70809523D01*
X112833333Y-70809523D01*
X112642857Y-70761904D01*
X112547619Y-70714285D01*
X112500000Y-70666666D01*
X112452380Y-70571428D01*
X115952380Y-72142857D02*
X115476190Y-72476190D01*
X115952380Y-72714285D02*
X114952380Y-72714285D01*
X114952380Y-72333333D01*
X115000000Y-72238095D01*
X115047619Y-72190476D01*
X115142857Y-72142857D01*
X115285714Y-72142857D01*
X115380952Y-72190476D01*
X115428571Y-72238095D01*
X115476190Y-72333333D01*
X115476190Y-72714285D01*
X114952380Y-71809523D02*
X114952380Y-71190476D01*
X115333333Y-71523809D01*
X115333333Y-71380952D01*
X115380952Y-71285714D01*
X115428571Y-71238095D01*
X115523809Y-71190476D01*
X115761904Y-71190476D01*
X115857142Y-71238095D01*
X115904761Y-71285714D01*
X115952380Y-71380952D01*
X115952380Y-71666666D01*
X115904761Y-71761904D01*
X115857142Y-71809523D01*
X115952380Y-70238095D02*
X115952380Y-70809523D01*
X115952380Y-70523809D02*
X114952380Y-70523809D01*
X115095238Y-70619047D01*
X115190476Y-70714285D01*
X115238095Y-70809523D01*
X118452380Y-72142857D02*
X117976190Y-72476190D01*
X118452380Y-72714285D02*
X117452380Y-72714285D01*
X117452380Y-72333333D01*
X117500000Y-72238095D01*
X117547619Y-72190476D01*
X117642857Y-72142857D01*
X117785714Y-72142857D01*
X117880952Y-72190476D01*
X117928571Y-72238095D01*
X117976190Y-72333333D01*
X117976190Y-72714285D01*
X117452380Y-71809523D02*
X117452380Y-71190476D01*
X117833333Y-71523809D01*
X117833333Y-71380952D01*
X117880952Y-71285714D01*
X117928571Y-71238095D01*
X118023809Y-71190476D01*
X118261904Y-71190476D01*
X118357142Y-71238095D01*
X118404761Y-71285714D01*
X118452380Y-71380952D01*
X118452380Y-71666666D01*
X118404761Y-71761904D01*
X118357142Y-71809523D01*
X117547619Y-70809523D02*
X117500000Y-70761904D01*
X117452380Y-70666666D01*
X117452380Y-70428571D01*
X117500000Y-70333333D01*
X117547619Y-70285714D01*
X117642857Y-70238095D01*
X117738095Y-70238095D01*
X117880952Y-70285714D01*
X118452380Y-70857142D01*
X118452380Y-70238095D01*
X120952380Y-72142857D02*
X120476190Y-72476190D01*
X120952380Y-72714285D02*
X119952380Y-72714285D01*
X119952380Y-72333333D01*
X120000000Y-72238095D01*
X120047619Y-72190476D01*
X120142857Y-72142857D01*
X120285714Y-72142857D01*
X120380952Y-72190476D01*
X120428571Y-72238095D01*
X120476190Y-72333333D01*
X120476190Y-72714285D01*
X119952380Y-71809523D02*
X119952380Y-71190476D01*
X120333333Y-71523809D01*
X120333333Y-71380952D01*
X120380952Y-71285714D01*
X120428571Y-71238095D01*
X120523809Y-71190476D01*
X120761904Y-71190476D01*
X120857142Y-71238095D01*
X120904761Y-71285714D01*
X120952380Y-71380952D01*
X120952380Y-71666666D01*
X120904761Y-71761904D01*
X120857142Y-71809523D01*
X119952380Y-70857142D02*
X119952380Y-70238095D01*
X120333333Y-70571428D01*
X120333333Y-70428571D01*
X120380952Y-70333333D01*
X120428571Y-70285714D01*
X120523809Y-70238095D01*
X120761904Y-70238095D01*
X120857142Y-70285714D01*
X120904761Y-70333333D01*
X120952380Y-70428571D01*
X120952380Y-70714285D01*
X120904761Y-70809523D01*
X120857142Y-70857142D01*
X125452380Y-39142857D02*
X124976190Y-39476190D01*
X125452380Y-39714285D02*
X124452380Y-39714285D01*
X124452380Y-39333333D01*
X124500000Y-39238095D01*
X124547619Y-39190476D01*
X124642857Y-39142857D01*
X124785714Y-39142857D01*
X124880952Y-39190476D01*
X124928571Y-39238095D01*
X124976190Y-39333333D01*
X124976190Y-39714285D01*
X124452380Y-38809523D02*
X124452380Y-38190476D01*
X124833333Y-38523809D01*
X124833333Y-38380952D01*
X124880952Y-38285714D01*
X124928571Y-38238095D01*
X125023809Y-38190476D01*
X125261904Y-38190476D01*
X125357142Y-38238095D01*
X125404761Y-38285714D01*
X125452380Y-38380952D01*
X125452380Y-38666666D01*
X125404761Y-38761904D01*
X125357142Y-38809523D01*
X124785714Y-37333333D02*
X125452380Y-37333333D01*
X124404761Y-37571428D02*
X125119047Y-37809523D01*
X125119047Y-37190476D01*
X129952380Y-95642857D02*
X129476190Y-95976190D01*
X129952380Y-96214285D02*
X128952380Y-96214285D01*
X128952380Y-95833333D01*
X129000000Y-95738095D01*
X129047619Y-95690476D01*
X129142857Y-95642857D01*
X129285714Y-95642857D01*
X129380952Y-95690476D01*
X129428571Y-95738095D01*
X129476190Y-95833333D01*
X129476190Y-96214285D01*
X128952380Y-95309523D02*
X128952380Y-94690476D01*
X129333333Y-95023809D01*
X129333333Y-94880952D01*
X129380952Y-94785714D01*
X129428571Y-94738095D01*
X129523809Y-94690476D01*
X129761904Y-94690476D01*
X129857142Y-94738095D01*
X129904761Y-94785714D01*
X129952380Y-94880952D01*
X129952380Y-95166666D01*
X129904761Y-95261904D01*
X129857142Y-95309523D01*
X128952380Y-93785714D02*
X128952380Y-94261904D01*
X129428571Y-94309523D01*
X129380952Y-94261904D01*
X129333333Y-94166666D01*
X129333333Y-93928571D01*
X129380952Y-93833333D01*
X129428571Y-93785714D01*
X129523809Y-93738095D01*
X129761904Y-93738095D01*
X129857142Y-93785714D01*
X129904761Y-93833333D01*
X129952380Y-93928571D01*
X129952380Y-94166666D01*
X129904761Y-94261904D01*
X129857142Y-94309523D01*
X129952380Y-72142857D02*
X129476190Y-72476190D01*
X129952380Y-72714285D02*
X128952380Y-72714285D01*
X128952380Y-72333333D01*
X129000000Y-72238095D01*
X129047619Y-72190476D01*
X129142857Y-72142857D01*
X129285714Y-72142857D01*
X129380952Y-72190476D01*
X129428571Y-72238095D01*
X129476190Y-72333333D01*
X129476190Y-72714285D01*
X128952380Y-71809523D02*
X128952380Y-71190476D01*
X129333333Y-71523809D01*
X129333333Y-71380952D01*
X129380952Y-71285714D01*
X129428571Y-71238095D01*
X129523809Y-71190476D01*
X129761904Y-71190476D01*
X129857142Y-71238095D01*
X129904761Y-71285714D01*
X129952380Y-71380952D01*
X129952380Y-71666666D01*
X129904761Y-71761904D01*
X129857142Y-71809523D01*
X128952380Y-70333333D02*
X128952380Y-70523809D01*
X129000000Y-70619047D01*
X129047619Y-70666666D01*
X129190476Y-70761904D01*
X129380952Y-70809523D01*
X129761904Y-70809523D01*
X129857142Y-70761904D01*
X129904761Y-70714285D01*
X129952380Y-70619047D01*
X129952380Y-70428571D01*
X129904761Y-70333333D01*
X129857142Y-70285714D01*
X129761904Y-70238095D01*
X129523809Y-70238095D01*
X129428571Y-70285714D01*
X129380952Y-70333333D01*
X129333333Y-70428571D01*
X129333333Y-70619047D01*
X129380952Y-70714285D01*
X129428571Y-70761904D01*
X129523809Y-70809523D01*
X132452380Y-72142857D02*
X131976190Y-72476190D01*
X132452380Y-72714285D02*
X131452380Y-72714285D01*
X131452380Y-72333333D01*
X131500000Y-72238095D01*
X131547619Y-72190476D01*
X131642857Y-72142857D01*
X131785714Y-72142857D01*
X131880952Y-72190476D01*
X131928571Y-72238095D01*
X131976190Y-72333333D01*
X131976190Y-72714285D01*
X131452380Y-71809523D02*
X131452380Y-71190476D01*
X131833333Y-71523809D01*
X131833333Y-71380952D01*
X131880952Y-71285714D01*
X131928571Y-71238095D01*
X132023809Y-71190476D01*
X132261904Y-71190476D01*
X132357142Y-71238095D01*
X132404761Y-71285714D01*
X132452380Y-71380952D01*
X132452380Y-71666666D01*
X132404761Y-71761904D01*
X132357142Y-71809523D01*
X131452380Y-70857142D02*
X131452380Y-70190476D01*
X132452380Y-70619047D01*
X134952380Y-72142857D02*
X134476190Y-72476190D01*
X134952380Y-72714285D02*
X133952380Y-72714285D01*
X133952380Y-72333333D01*
X134000000Y-72238095D01*
X134047619Y-72190476D01*
X134142857Y-72142857D01*
X134285714Y-72142857D01*
X134380952Y-72190476D01*
X134428571Y-72238095D01*
X134476190Y-72333333D01*
X134476190Y-72714285D01*
X133952380Y-71809523D02*
X133952380Y-71190476D01*
X134333333Y-71523809D01*
X134333333Y-71380952D01*
X134380952Y-71285714D01*
X134428571Y-71238095D01*
X134523809Y-71190476D01*
X134761904Y-71190476D01*
X134857142Y-71238095D01*
X134904761Y-71285714D01*
X134952380Y-71380952D01*
X134952380Y-71666666D01*
X134904761Y-71761904D01*
X134857142Y-71809523D01*
X134380952Y-70619047D02*
X134333333Y-70714285D01*
X134285714Y-70761904D01*
X134190476Y-70809523D01*
X134142857Y-70809523D01*
X134047619Y-70761904D01*
X134000000Y-70714285D01*
X133952380Y-70619047D01*
X133952380Y-70428571D01*
X134000000Y-70333333D01*
X134047619Y-70285714D01*
X134142857Y-70238095D01*
X134190476Y-70238095D01*
X134285714Y-70285714D01*
X134333333Y-70333333D01*
X134380952Y-70428571D01*
X134380952Y-70619047D01*
X134428571Y-70714285D01*
X134476190Y-70761904D01*
X134571428Y-70809523D01*
X134761904Y-70809523D01*
X134857142Y-70761904D01*
X134904761Y-70714285D01*
X134952380Y-70619047D01*
X134952380Y-70428571D01*
X134904761Y-70333333D01*
X134857142Y-70285714D01*
X134761904Y-70238095D01*
X134571428Y-70238095D01*
X134476190Y-70285714D01*
X134428571Y-70333333D01*
X134380952Y-70428571D01*
X137452380Y-72142857D02*
X136976190Y-72476190D01*
X137452380Y-72714285D02*
X136452380Y-72714285D01*
X136452380Y-72333333D01*
X136500000Y-72238095D01*
X136547619Y-72190476D01*
X136642857Y-72142857D01*
X136785714Y-72142857D01*
X136880952Y-72190476D01*
X136928571Y-72238095D01*
X136976190Y-72333333D01*
X136976190Y-72714285D01*
X136452380Y-71809523D02*
X136452380Y-71190476D01*
X136833333Y-71523809D01*
X136833333Y-71380952D01*
X136880952Y-71285714D01*
X136928571Y-71238095D01*
X137023809Y-71190476D01*
X137261904Y-71190476D01*
X137357142Y-71238095D01*
X137404761Y-71285714D01*
X137452380Y-71380952D01*
X137452380Y-71666666D01*
X137404761Y-71761904D01*
X137357142Y-71809523D01*
X137452380Y-70714285D02*
X137452380Y-70523809D01*
X137404761Y-70428571D01*
X137357142Y-70380952D01*
X137214285Y-70285714D01*
X137023809Y-70238095D01*
X136642857Y-70238095D01*
X136547619Y-70285714D01*
X136500000Y-70333333D01*
X136452380Y-70428571D01*
X136452380Y-70619047D01*
X136500000Y-70714285D01*
X136547619Y-70761904D01*
X136642857Y-70809523D01*
X136880952Y-70809523D01*
X136976190Y-70761904D01*
X137023809Y-70714285D01*
X137071428Y-70619047D01*
X137071428Y-70428571D01*
X137023809Y-70333333D01*
X136976190Y-70285714D01*
X136880952Y-70238095D01*
X139952380Y-72142857D02*
X139476190Y-72476190D01*
X139952380Y-72714285D02*
X138952380Y-72714285D01*
X138952380Y-72333333D01*
X139000000Y-72238095D01*
X139047619Y-72190476D01*
X139142857Y-72142857D01*
X139285714Y-72142857D01*
X139380952Y-72190476D01*
X139428571Y-72238095D01*
X139476190Y-72333333D01*
X139476190Y-72714285D01*
X139285714Y-71285714D02*
X139952380Y-71285714D01*
X138904761Y-71523809D02*
X139619047Y-71761904D01*
X139619047Y-71142857D01*
X138952380Y-70571428D02*
X138952380Y-70476190D01*
X139000000Y-70380952D01*
X139047619Y-70333333D01*
X139142857Y-70285714D01*
X139333333Y-70238095D01*
X139571428Y-70238095D01*
X139761904Y-70285714D01*
X139857142Y-70333333D01*
X139904761Y-70380952D01*
X139952380Y-70476190D01*
X139952380Y-70571428D01*
X139904761Y-70666666D01*
X139857142Y-70714285D01*
X139761904Y-70761904D01*
X139571428Y-70809523D01*
X139333333Y-70809523D01*
X139142857Y-70761904D01*
X139047619Y-70714285D01*
X139000000Y-70666666D01*
X138952380Y-70571428D01*
X142452380Y-72142857D02*
X141976190Y-72476190D01*
X142452380Y-72714285D02*
X141452380Y-72714285D01*
X141452380Y-72333333D01*
X141500000Y-72238095D01*
X141547619Y-72190476D01*
X141642857Y-72142857D01*
X141785714Y-72142857D01*
X141880952Y-72190476D01*
X141928571Y-72238095D01*
X141976190Y-72333333D01*
X141976190Y-72714285D01*
X141785714Y-71285714D02*
X142452380Y-71285714D01*
X141404761Y-71523809D02*
X142119047Y-71761904D01*
X142119047Y-71142857D01*
X142452380Y-70238095D02*
X142452380Y-70809523D01*
X142452380Y-70523809D02*
X141452380Y-70523809D01*
X141595238Y-70619047D01*
X141690476Y-70714285D01*
X141738095Y-70809523D01*
X144952380Y-72142857D02*
X144476190Y-72476190D01*
X144952380Y-72714285D02*
X143952380Y-72714285D01*
X143952380Y-72333333D01*
X144000000Y-72238095D01*
X144047619Y-72190476D01*
X144142857Y-72142857D01*
X144285714Y-72142857D01*
X144380952Y-72190476D01*
X144428571Y-72238095D01*
X144476190Y-72333333D01*
X144476190Y-72714285D01*
X144285714Y-71285714D02*
X144952380Y-71285714D01*
X143904761Y-71523809D02*
X144619047Y-71761904D01*
X144619047Y-71142857D01*
X144047619Y-70809523D02*
X144000000Y-70761904D01*
X143952380Y-70666666D01*
X143952380Y-70428571D01*
X144000000Y-70333333D01*
X144047619Y-70285714D01*
X144142857Y-70238095D01*
X144238095Y-70238095D01*
X144380952Y-70285714D01*
X144952380Y-70857142D01*
X144952380Y-70238095D01*
X147452380Y-72142857D02*
X146976190Y-72476190D01*
X147452380Y-72714285D02*
X146452380Y-72714285D01*
X146452380Y-72333333D01*
X146500000Y-72238095D01*
X146547619Y-72190476D01*
X146642857Y-72142857D01*
X146785714Y-72142857D01*
X146880952Y-72190476D01*
X146928571Y-72238095D01*
X146976190Y-72333333D01*
X146976190Y-72714285D01*
X146785714Y-71285714D02*
X147452380Y-71285714D01*
X146404761Y-71523809D02*
X147119047Y-71761904D01*
X147119047Y-71142857D01*
X146452380Y-70857142D02*
X146452380Y-70238095D01*
X146833333Y-70571428D01*
X146833333Y-70428571D01*
X146880952Y-70333333D01*
X146928571Y-70285714D01*
X147023809Y-70238095D01*
X147261904Y-70238095D01*
X147357142Y-70285714D01*
X147404761Y-70333333D01*
X147452380Y-70428571D01*
X147452380Y-70714285D01*
X147404761Y-70809523D01*
X147357142Y-70857142D01*
X149952380Y-72142857D02*
X149476190Y-72476190D01*
X149952380Y-72714285D02*
X148952380Y-72714285D01*
X148952380Y-72333333D01*
X149000000Y-72238095D01*
X149047619Y-72190476D01*
X149142857Y-72142857D01*
X149285714Y-72142857D01*
X149380952Y-72190476D01*
X149428571Y-72238095D01*
X149476190Y-72333333D01*
X149476190Y-72714285D01*
X149285714Y-71285714D02*
X149952380Y-71285714D01*
X148904761Y-71523809D02*
X149619047Y-71761904D01*
X149619047Y-71142857D01*
X149285714Y-70333333D02*
X149952380Y-70333333D01*
X148904761Y-70571428D02*
X149619047Y-70809523D01*
X149619047Y-70190476D01*
X152452380Y-72142857D02*
X151976190Y-72476190D01*
X152452380Y-72714285D02*
X151452380Y-72714285D01*
X151452380Y-72333333D01*
X151500000Y-72238095D01*
X151547619Y-72190476D01*
X151642857Y-72142857D01*
X151785714Y-72142857D01*
X151880952Y-72190476D01*
X151928571Y-72238095D01*
X151976190Y-72333333D01*
X151976190Y-72714285D01*
X151785714Y-71285714D02*
X152452380Y-71285714D01*
X151404761Y-71523809D02*
X152119047Y-71761904D01*
X152119047Y-71142857D01*
X151452380Y-70285714D02*
X151452380Y-70761904D01*
X151928571Y-70809523D01*
X151880952Y-70761904D01*
X151833333Y-70666666D01*
X151833333Y-70428571D01*
X151880952Y-70333333D01*
X151928571Y-70285714D01*
X152023809Y-70238095D01*
X152261904Y-70238095D01*
X152357142Y-70285714D01*
X152404761Y-70333333D01*
X152452380Y-70428571D01*
X152452380Y-70666666D01*
X152404761Y-70761904D01*
X152357142Y-70809523D01*
X156452380Y-39142857D02*
X155976190Y-39476190D01*
X156452380Y-39714285D02*
X155452380Y-39714285D01*
X155452380Y-39333333D01*
X155500000Y-39238095D01*
X155547619Y-39190476D01*
X155642857Y-39142857D01*
X155785714Y-39142857D01*
X155880952Y-39190476D01*
X155928571Y-39238095D01*
X155976190Y-39333333D01*
X155976190Y-39714285D01*
X155785714Y-38285714D02*
X156452380Y-38285714D01*
X155404761Y-38523809D02*
X156119047Y-38761904D01*
X156119047Y-38142857D01*
X155452380Y-37333333D02*
X155452380Y-37523809D01*
X155500000Y-37619047D01*
X155547619Y-37666666D01*
X155690476Y-37761904D01*
X155880952Y-37809523D01*
X156261904Y-37809523D01*
X156357142Y-37761904D01*
X156404761Y-37714285D01*
X156452380Y-37619047D01*
X156452380Y-37428571D01*
X156404761Y-37333333D01*
X156357142Y-37285714D01*
X156261904Y-37238095D01*
X156023809Y-37238095D01*
X155928571Y-37285714D01*
X155880952Y-37333333D01*
X155833333Y-37428571D01*
X155833333Y-37619047D01*
X155880952Y-37714285D01*
X155928571Y-37761904D01*
X156023809Y-37809523D01*
X161452380Y-72142857D02*
X160976190Y-72476190D01*
X161452380Y-72714285D02*
X160452380Y-72714285D01*
X160452380Y-72333333D01*
X160500000Y-72238095D01*
X160547619Y-72190476D01*
X160642857Y-72142857D01*
X160785714Y-72142857D01*
X160880952Y-72190476D01*
X160928571Y-72238095D01*
X160976190Y-72333333D01*
X160976190Y-72714285D01*
X160785714Y-71285714D02*
X161452380Y-71285714D01*
X160404761Y-71523809D02*
X161119047Y-71761904D01*
X161119047Y-71142857D01*
X160452380Y-70857142D02*
X160452380Y-70190476D01*
X161452380Y-70619047D01*
X163952380Y-72142857D02*
X163476190Y-72476190D01*
X163952380Y-72714285D02*
X162952380Y-72714285D01*
X162952380Y-72333333D01*
X163000000Y-72238095D01*
X163047619Y-72190476D01*
X163142857Y-72142857D01*
X163285714Y-72142857D01*
X163380952Y-72190476D01*
X163428571Y-72238095D01*
X163476190Y-72333333D01*
X163476190Y-72714285D01*
X163285714Y-71285714D02*
X163952380Y-71285714D01*
X162904761Y-71523809D02*
X163619047Y-71761904D01*
X163619047Y-71142857D01*
X163380952Y-70619047D02*
X163333333Y-70714285D01*
X163285714Y-70761904D01*
X163190476Y-70809523D01*
X163142857Y-70809523D01*
X163047619Y-70761904D01*
X163000000Y-70714285D01*
X162952380Y-70619047D01*
X162952380Y-70428571D01*
X163000000Y-70333333D01*
X163047619Y-70285714D01*
X163142857Y-70238095D01*
X163190476Y-70238095D01*
X163285714Y-70285714D01*
X163333333Y-70333333D01*
X163380952Y-70428571D01*
X163380952Y-70619047D01*
X163428571Y-70714285D01*
X163476190Y-70761904D01*
X163571428Y-70809523D01*
X163761904Y-70809523D01*
X163857142Y-70761904D01*
X163904761Y-70714285D01*
X163952380Y-70619047D01*
X163952380Y-70428571D01*
X163904761Y-70333333D01*
X163857142Y-70285714D01*
X163761904Y-70238095D01*
X163571428Y-70238095D01*
X163476190Y-70285714D01*
X163428571Y-70333333D01*
X163380952Y-70428571D01*
X166452380Y-72142857D02*
X165976190Y-72476190D01*
X166452380Y-72714285D02*
X165452380Y-72714285D01*
X165452380Y-72333333D01*
X165500000Y-72238095D01*
X165547619Y-72190476D01*
X165642857Y-72142857D01*
X165785714Y-72142857D01*
X165880952Y-72190476D01*
X165928571Y-72238095D01*
X165976190Y-72333333D01*
X165976190Y-72714285D01*
X165785714Y-71285714D02*
X166452380Y-71285714D01*
X165404761Y-71523809D02*
X166119047Y-71761904D01*
X166119047Y-71142857D01*
X166452380Y-70714285D02*
X166452380Y-70523809D01*
X166404761Y-70428571D01*
X166357142Y-70380952D01*
X166214285Y-70285714D01*
X166023809Y-70238095D01*
X165642857Y-70238095D01*
X165547619Y-70285714D01*
X165500000Y-70333333D01*
X165452380Y-70428571D01*
X165452380Y-70619047D01*
X165500000Y-70714285D01*
X165547619Y-70761904D01*
X165642857Y-70809523D01*
X165880952Y-70809523D01*
X165976190Y-70761904D01*
X166023809Y-70714285D01*
X166071428Y-70619047D01*
X166071428Y-70428571D01*
X166023809Y-70333333D01*
X165976190Y-70285714D01*
X165880952Y-70238095D01*
X168952380Y-72142857D02*
X168476190Y-72476190D01*
X168952380Y-72714285D02*
X167952380Y-72714285D01*
X167952380Y-72333333D01*
X168000000Y-72238095D01*
X168047619Y-72190476D01*
X168142857Y-72142857D01*
X168285714Y-72142857D01*
X168380952Y-72190476D01*
X168428571Y-72238095D01*
X168476190Y-72333333D01*
X168476190Y-72714285D01*
X167952380Y-71238095D02*
X167952380Y-71714285D01*
X168428571Y-71761904D01*
X168380952Y-71714285D01*
X168333333Y-71619047D01*
X168333333Y-71380952D01*
X168380952Y-71285714D01*
X168428571Y-71238095D01*
X168523809Y-71190476D01*
X168761904Y-71190476D01*
X168857142Y-71238095D01*
X168904761Y-71285714D01*
X168952380Y-71380952D01*
X168952380Y-71619047D01*
X168904761Y-71714285D01*
X168857142Y-71761904D01*
X167952380Y-70571428D02*
X167952380Y-70476190D01*
X168000000Y-70380952D01*
X168047619Y-70333333D01*
X168142857Y-70285714D01*
X168333333Y-70238095D01*
X168571428Y-70238095D01*
X168761904Y-70285714D01*
X168857142Y-70333333D01*
X168904761Y-70380952D01*
X168952380Y-70476190D01*
X168952380Y-70571428D01*
X168904761Y-70666666D01*
X168857142Y-70714285D01*
X168761904Y-70761904D01*
X168571428Y-70809523D01*
X168333333Y-70809523D01*
X168142857Y-70761904D01*
X168047619Y-70714285D01*
X168000000Y-70666666D01*
X167952380Y-70571428D01*
X171452380Y-72142857D02*
X170976190Y-72476190D01*
X171452380Y-72714285D02*
X170452380Y-72714285D01*
X170452380Y-72333333D01*
X170500000Y-72238095D01*
X170547619Y-72190476D01*
X170642857Y-72142857D01*
X170785714Y-72142857D01*
X170880952Y-72190476D01*
X170928571Y-72238095D01*
X170976190Y-72333333D01*
X170976190Y-72714285D01*
X170452380Y-71238095D02*
X170452380Y-71714285D01*
X170928571Y-71761904D01*
X170880952Y-71714285D01*
X170833333Y-71619047D01*
X170833333Y-71380952D01*
X170880952Y-71285714D01*
X170928571Y-71238095D01*
X171023809Y-71190476D01*
X171261904Y-71190476D01*
X171357142Y-71238095D01*
X171404761Y-71285714D01*
X171452380Y-71380952D01*
X171452380Y-71619047D01*
X171404761Y-71714285D01*
X171357142Y-71761904D01*
X171452380Y-70238095D02*
X171452380Y-70809523D01*
X171452380Y-70523809D02*
X170452380Y-70523809D01*
X170595238Y-70619047D01*
X170690476Y-70714285D01*
X170738095Y-70809523D01*
X173952380Y-72142857D02*
X173476190Y-72476190D01*
X173952380Y-72714285D02*
X172952380Y-72714285D01*
X172952380Y-72333333D01*
X173000000Y-72238095D01*
X173047619Y-72190476D01*
X173142857Y-72142857D01*
X173285714Y-72142857D01*
X173380952Y-72190476D01*
X173428571Y-72238095D01*
X173476190Y-72333333D01*
X173476190Y-72714285D01*
X172952380Y-71238095D02*
X172952380Y-71714285D01*
X173428571Y-71761904D01*
X173380952Y-71714285D01*
X173333333Y-71619047D01*
X173333333Y-71380952D01*
X173380952Y-71285714D01*
X173428571Y-71238095D01*
X173523809Y-71190476D01*
X173761904Y-71190476D01*
X173857142Y-71238095D01*
X173904761Y-71285714D01*
X173952380Y-71380952D01*
X173952380Y-71619047D01*
X173904761Y-71714285D01*
X173857142Y-71761904D01*
X173047619Y-70809523D02*
X173000000Y-70761904D01*
X172952380Y-70666666D01*
X172952380Y-70428571D01*
X173000000Y-70333333D01*
X173047619Y-70285714D01*
X173142857Y-70238095D01*
X173238095Y-70238095D01*
X173380952Y-70285714D01*
X173952380Y-70857142D01*
X173952380Y-70238095D01*
X176452380Y-72142857D02*
X175976190Y-72476190D01*
X176452380Y-72714285D02*
X175452380Y-72714285D01*
X175452380Y-72333333D01*
X175500000Y-72238095D01*
X175547619Y-72190476D01*
X175642857Y-72142857D01*
X175785714Y-72142857D01*
X175880952Y-72190476D01*
X175928571Y-72238095D01*
X175976190Y-72333333D01*
X175976190Y-72714285D01*
X175452380Y-71238095D02*
X175452380Y-71714285D01*
X175928571Y-71761904D01*
X175880952Y-71714285D01*
X175833333Y-71619047D01*
X175833333Y-71380952D01*
X175880952Y-71285714D01*
X175928571Y-71238095D01*
X176023809Y-71190476D01*
X176261904Y-71190476D01*
X176357142Y-71238095D01*
X176404761Y-71285714D01*
X176452380Y-71380952D01*
X176452380Y-71619047D01*
X176404761Y-71714285D01*
X176357142Y-71761904D01*
X175452380Y-70857142D02*
X175452380Y-70238095D01*
X175833333Y-70571428D01*
X175833333Y-70428571D01*
X175880952Y-70333333D01*
X175928571Y-70285714D01*
X176023809Y-70238095D01*
X176261904Y-70238095D01*
X176357142Y-70285714D01*
X176404761Y-70333333D01*
X176452380Y-70428571D01*
X176452380Y-70714285D01*
X176404761Y-70809523D01*
X176357142Y-70857142D01*
X178952380Y-72142857D02*
X178476190Y-72476190D01*
X178952380Y-72714285D02*
X177952380Y-72714285D01*
X177952380Y-72333333D01*
X178000000Y-72238095D01*
X178047619Y-72190476D01*
X178142857Y-72142857D01*
X178285714Y-72142857D01*
X178380952Y-72190476D01*
X178428571Y-72238095D01*
X178476190Y-72333333D01*
X178476190Y-72714285D01*
X177952380Y-71238095D02*
X177952380Y-71714285D01*
X178428571Y-71761904D01*
X178380952Y-71714285D01*
X178333333Y-71619047D01*
X178333333Y-71380952D01*
X178380952Y-71285714D01*
X178428571Y-71238095D01*
X178523809Y-71190476D01*
X178761904Y-71190476D01*
X178857142Y-71238095D01*
X178904761Y-71285714D01*
X178952380Y-71380952D01*
X178952380Y-71619047D01*
X178904761Y-71714285D01*
X178857142Y-71761904D01*
X178285714Y-70333333D02*
X178952380Y-70333333D01*
X177904761Y-70571428D02*
X178619047Y-70809523D01*
X178619047Y-70190476D01*
X181452380Y-72142857D02*
X180976190Y-72476190D01*
X181452380Y-72714285D02*
X180452380Y-72714285D01*
X180452380Y-72333333D01*
X180500000Y-72238095D01*
X180547619Y-72190476D01*
X180642857Y-72142857D01*
X180785714Y-72142857D01*
X180880952Y-72190476D01*
X180928571Y-72238095D01*
X180976190Y-72333333D01*
X180976190Y-72714285D01*
X180452380Y-71238095D02*
X180452380Y-71714285D01*
X180928571Y-71761904D01*
X180880952Y-71714285D01*
X180833333Y-71619047D01*
X180833333Y-71380952D01*
X180880952Y-71285714D01*
X180928571Y-71238095D01*
X181023809Y-71190476D01*
X181261904Y-71190476D01*
X181357142Y-71238095D01*
X181404761Y-71285714D01*
X181452380Y-71380952D01*
X181452380Y-71619047D01*
X181404761Y-71714285D01*
X181357142Y-71761904D01*
X180452380Y-70285714D02*
X180452380Y-70761904D01*
X180928571Y-70809523D01*
X180880952Y-70761904D01*
X180833333Y-70666666D01*
X180833333Y-70428571D01*
X180880952Y-70333333D01*
X180928571Y-70285714D01*
X181023809Y-70238095D01*
X181261904Y-70238095D01*
X181357142Y-70285714D01*
X181404761Y-70333333D01*
X181452380Y-70428571D01*
X181452380Y-70666666D01*
X181404761Y-70761904D01*
X181357142Y-70809523D01*
X183952380Y-72142857D02*
X183476190Y-72476190D01*
X183952380Y-72714285D02*
X182952380Y-72714285D01*
X182952380Y-72333333D01*
X183000000Y-72238095D01*
X183047619Y-72190476D01*
X183142857Y-72142857D01*
X183285714Y-72142857D01*
X183380952Y-72190476D01*
X183428571Y-72238095D01*
X183476190Y-72333333D01*
X183476190Y-72714285D01*
X182952380Y-71238095D02*
X182952380Y-71714285D01*
X183428571Y-71761904D01*
X183380952Y-71714285D01*
X183333333Y-71619047D01*
X183333333Y-71380952D01*
X183380952Y-71285714D01*
X183428571Y-71238095D01*
X183523809Y-71190476D01*
X183761904Y-71190476D01*
X183857142Y-71238095D01*
X183904761Y-71285714D01*
X183952380Y-71380952D01*
X183952380Y-71619047D01*
X183904761Y-71714285D01*
X183857142Y-71761904D01*
X182952380Y-70333333D02*
X182952380Y-70523809D01*
X183000000Y-70619047D01*
X183047619Y-70666666D01*
X183190476Y-70761904D01*
X183380952Y-70809523D01*
X183761904Y-70809523D01*
X183857142Y-70761904D01*
X183904761Y-70714285D01*
X183952380Y-70619047D01*
X183952380Y-70428571D01*
X183904761Y-70333333D01*
X183857142Y-70285714D01*
X183761904Y-70238095D01*
X183523809Y-70238095D01*
X183428571Y-70285714D01*
X183380952Y-70333333D01*
X183333333Y-70428571D01*
X183333333Y-70619047D01*
X183380952Y-70714285D01*
X183428571Y-70761904D01*
X183523809Y-70809523D01*
X187452380Y-39142857D02*
X186976190Y-39476190D01*
X187452380Y-39714285D02*
X186452380Y-39714285D01*
X186452380Y-39333333D01*
X186500000Y-39238095D01*
X186547619Y-39190476D01*
X186642857Y-39142857D01*
X186785714Y-39142857D01*
X186880952Y-39190476D01*
X186928571Y-39238095D01*
X186976190Y-39333333D01*
X186976190Y-39714285D01*
X186452380Y-38238095D02*
X186452380Y-38714285D01*
X186928571Y-38761904D01*
X186880952Y-38714285D01*
X186833333Y-38619047D01*
X186833333Y-38380952D01*
X186880952Y-38285714D01*
X186928571Y-38238095D01*
X187023809Y-38190476D01*
X187261904Y-38190476D01*
X187357142Y-38238095D01*
X187404761Y-38285714D01*
X187452380Y-38380952D01*
X187452380Y-38619047D01*
X187404761Y-38714285D01*
X187357142Y-38761904D01*
X186452380Y-37857142D02*
X186452380Y-37190476D01*
X187452380Y-37619047D01*
X192952380Y-95642857D02*
X192476190Y-95976190D01*
X192952380Y-96214285D02*
X191952380Y-96214285D01*
X191952380Y-95833333D01*
X192000000Y-95738095D01*
X192047619Y-95690476D01*
X192142857Y-95642857D01*
X192285714Y-95642857D01*
X192380952Y-95690476D01*
X192428571Y-95738095D01*
X192476190Y-95833333D01*
X192476190Y-96214285D01*
X191952380Y-94738095D02*
X191952380Y-95214285D01*
X192428571Y-95261904D01*
X192380952Y-95214285D01*
X192333333Y-95119047D01*
X192333333Y-94880952D01*
X192380952Y-94785714D01*
X192428571Y-94738095D01*
X192523809Y-94690476D01*
X192761904Y-94690476D01*
X192857142Y-94738095D01*
X192904761Y-94785714D01*
X192952380Y-94880952D01*
X192952380Y-95119047D01*
X192904761Y-95214285D01*
X192857142Y-95261904D01*
X192380952Y-94119047D02*
X192333333Y-94214285D01*
X192285714Y-94261904D01*
X192190476Y-94309523D01*
X192142857Y-94309523D01*
X192047619Y-94261904D01*
X192000000Y-94214285D01*
X191952380Y-94119047D01*
X191952380Y-93928571D01*
X192000000Y-93833333D01*
X192047619Y-93785714D01*
X192142857Y-93738095D01*
X192190476Y-93738095D01*
X192285714Y-93785714D01*
X192333333Y-93833333D01*
X192380952Y-93928571D01*
X192380952Y-94119047D01*
X192428571Y-94214285D01*
X192476190Y-94261904D01*
X192571428Y-94309523D01*
X192761904Y-94309523D01*
X192857142Y-94261904D01*
X192904761Y-94214285D01*
X192952380Y-94119047D01*
X192952380Y-93928571D01*
X192904761Y-93833333D01*
X192857142Y-93785714D01*
X192761904Y-93738095D01*
X192571428Y-93738095D01*
X192476190Y-93785714D01*
X192428571Y-93833333D01*
X192380952Y-93928571D01*
X192952380Y-72142857D02*
X192476190Y-72476190D01*
X192952380Y-72714285D02*
X191952380Y-72714285D01*
X191952380Y-72333333D01*
X192000000Y-72238095D01*
X192047619Y-72190476D01*
X192142857Y-72142857D01*
X192285714Y-72142857D01*
X192380952Y-72190476D01*
X192428571Y-72238095D01*
X192476190Y-72333333D01*
X192476190Y-72714285D01*
X191952380Y-71238095D02*
X191952380Y-71714285D01*
X192428571Y-71761904D01*
X192380952Y-71714285D01*
X192333333Y-71619047D01*
X192333333Y-71380952D01*
X192380952Y-71285714D01*
X192428571Y-71238095D01*
X192523809Y-71190476D01*
X192761904Y-71190476D01*
X192857142Y-71238095D01*
X192904761Y-71285714D01*
X192952380Y-71380952D01*
X192952380Y-71619047D01*
X192904761Y-71714285D01*
X192857142Y-71761904D01*
X192952380Y-70714285D02*
X192952380Y-70523809D01*
X192904761Y-70428571D01*
X192857142Y-70380952D01*
X192714285Y-70285714D01*
X192523809Y-70238095D01*
X192142857Y-70238095D01*
X192047619Y-70285714D01*
X192000000Y-70333333D01*
X191952380Y-70428571D01*
X191952380Y-70619047D01*
X192000000Y-70714285D01*
X192047619Y-70761904D01*
X192142857Y-70809523D01*
X192380952Y-70809523D01*
X192476190Y-70761904D01*
X192523809Y-70714285D01*
X192571428Y-70619047D01*
X192571428Y-70428571D01*
X192523809Y-70333333D01*
X192476190Y-70285714D01*
X192380952Y-70238095D01*
X195452380Y-72142857D02*
X194976190Y-72476190D01*
X195452380Y-72714285D02*
X194452380Y-72714285D01*
X194452380Y-72333333D01*
X194500000Y-72238095D01*
X194547619Y-72190476D01*
X194642857Y-72142857D01*
X194785714Y-72142857D01*
X194880952Y-72190476D01*
X194928571Y-72238095D01*
X194976190Y-72333333D01*
X194976190Y-72714285D01*
X194452380Y-71285714D02*
X194452380Y-71476190D01*
X194500000Y-71571428D01*
X194547619Y-71619047D01*
X194690476Y-71714285D01*
X194880952Y-71761904D01*
X195261904Y-71761904D01*
X195357142Y-71714285D01*
X195404761Y-71666666D01*
X195452380Y-71571428D01*
X195452380Y-71380952D01*
X195404761Y-71285714D01*
X195357142Y-71238095D01*
X195261904Y-71190476D01*
X195023809Y-71190476D01*
X194928571Y-71238095D01*
X194880952Y-71285714D01*
X194833333Y-71380952D01*
X194833333Y-71571428D01*
X194880952Y-71666666D01*
X194928571Y-71714285D01*
X195023809Y-71761904D01*
X194452380Y-70571428D02*
X194452380Y-70476190D01*
X194500000Y-70380952D01*
X194547619Y-70333333D01*
X194642857Y-70285714D01*
X194833333Y-70238095D01*
X195071428Y-70238095D01*
X195261904Y-70285714D01*
X195357142Y-70333333D01*
X195404761Y-70380952D01*
X195452380Y-70476190D01*
X195452380Y-70571428D01*
X195404761Y-70666666D01*
X195357142Y-70714285D01*
X195261904Y-70761904D01*
X195071428Y-70809523D01*
X194833333Y-70809523D01*
X194642857Y-70761904D01*
X194547619Y-70714285D01*
X194500000Y-70666666D01*
X194452380Y-70571428D01*
X197952380Y-72142857D02*
X197476190Y-72476190D01*
X197952380Y-72714285D02*
X196952380Y-72714285D01*
X196952380Y-72333333D01*
X197000000Y-72238095D01*
X197047619Y-72190476D01*
X197142857Y-72142857D01*
X197285714Y-72142857D01*
X197380952Y-72190476D01*
X197428571Y-72238095D01*
X197476190Y-72333333D01*
X197476190Y-72714285D01*
X196952380Y-71285714D02*
X196952380Y-71476190D01*
X197000000Y-71571428D01*
X197047619Y-71619047D01*
X197190476Y-71714285D01*
X197380952Y-71761904D01*
X197761904Y-71761904D01*
X197857142Y-71714285D01*
X197904761Y-71666666D01*
X197952380Y-71571428D01*
X197952380Y-71380952D01*
X197904761Y-71285714D01*
X197857142Y-71238095D01*
X197761904Y-71190476D01*
X197523809Y-71190476D01*
X197428571Y-71238095D01*
X197380952Y-71285714D01*
X197333333Y-71380952D01*
X197333333Y-71571428D01*
X197380952Y-71666666D01*
X197428571Y-71714285D01*
X197523809Y-71761904D01*
X197952380Y-70238095D02*
X197952380Y-70809523D01*
X197952380Y-70523809D02*
X196952380Y-70523809D01*
X197095238Y-70619047D01*
X197190476Y-70714285D01*
X197238095Y-70809523D01*
X200452380Y-72142857D02*
X199976190Y-72476190D01*
X200452380Y-72714285D02*
X199452380Y-72714285D01*
X199452380Y-72333333D01*
X199500000Y-72238095D01*
X199547619Y-72190476D01*
X199642857Y-72142857D01*
X199785714Y-72142857D01*
X199880952Y-72190476D01*
X199928571Y-72238095D01*
X199976190Y-72333333D01*
X199976190Y-72714285D01*
X199452380Y-71285714D02*
X199452380Y-71476190D01*
X199500000Y-71571428D01*
X199547619Y-71619047D01*
X199690476Y-71714285D01*
X199880952Y-71761904D01*
X200261904Y-71761904D01*
X200357142Y-71714285D01*
X200404761Y-71666666D01*
X200452380Y-71571428D01*
X200452380Y-71380952D01*
X200404761Y-71285714D01*
X200357142Y-71238095D01*
X200261904Y-71190476D01*
X200023809Y-71190476D01*
X199928571Y-71238095D01*
X199880952Y-71285714D01*
X199833333Y-71380952D01*
X199833333Y-71571428D01*
X199880952Y-71666666D01*
X199928571Y-71714285D01*
X200023809Y-71761904D01*
X199547619Y-70809523D02*
X199500000Y-70761904D01*
X199452380Y-70666666D01*
X199452380Y-70428571D01*
X199500000Y-70333333D01*
X199547619Y-70285714D01*
X199642857Y-70238095D01*
X199738095Y-70238095D01*
X199880952Y-70285714D01*
X200452380Y-70857142D01*
X200452380Y-70238095D01*
X202952380Y-72142857D02*
X202476190Y-72476190D01*
X202952380Y-72714285D02*
X201952380Y-72714285D01*
X201952380Y-72333333D01*
X202000000Y-72238095D01*
X202047619Y-72190476D01*
X202142857Y-72142857D01*
X202285714Y-72142857D01*
X202380952Y-72190476D01*
X202428571Y-72238095D01*
X202476190Y-72333333D01*
X202476190Y-72714285D01*
X201952380Y-71285714D02*
X201952380Y-71476190D01*
X202000000Y-71571428D01*
X202047619Y-71619047D01*
X202190476Y-71714285D01*
X202380952Y-71761904D01*
X202761904Y-71761904D01*
X202857142Y-71714285D01*
X202904761Y-71666666D01*
X202952380Y-71571428D01*
X202952380Y-71380952D01*
X202904761Y-71285714D01*
X202857142Y-71238095D01*
X202761904Y-71190476D01*
X202523809Y-71190476D01*
X202428571Y-71238095D01*
X202380952Y-71285714D01*
X202333333Y-71380952D01*
X202333333Y-71571428D01*
X202380952Y-71666666D01*
X202428571Y-71714285D01*
X202523809Y-71761904D01*
X201952380Y-70857142D02*
X201952380Y-70238095D01*
X202333333Y-70571428D01*
X202333333Y-70428571D01*
X202380952Y-70333333D01*
X202428571Y-70285714D01*
X202523809Y-70238095D01*
X202761904Y-70238095D01*
X202857142Y-70285714D01*
X202904761Y-70333333D01*
X202952380Y-70428571D01*
X202952380Y-70714285D01*
X202904761Y-70809523D01*
X202857142Y-70857142D01*
X205452380Y-72142857D02*
X204976190Y-72476190D01*
X205452380Y-72714285D02*
X204452380Y-72714285D01*
X204452380Y-72333333D01*
X204500000Y-72238095D01*
X204547619Y-72190476D01*
X204642857Y-72142857D01*
X204785714Y-72142857D01*
X204880952Y-72190476D01*
X204928571Y-72238095D01*
X204976190Y-72333333D01*
X204976190Y-72714285D01*
X204452380Y-71285714D02*
X204452380Y-71476190D01*
X204500000Y-71571428D01*
X204547619Y-71619047D01*
X204690476Y-71714285D01*
X204880952Y-71761904D01*
X205261904Y-71761904D01*
X205357142Y-71714285D01*
X205404761Y-71666666D01*
X205452380Y-71571428D01*
X205452380Y-71380952D01*
X205404761Y-71285714D01*
X205357142Y-71238095D01*
X205261904Y-71190476D01*
X205023809Y-71190476D01*
X204928571Y-71238095D01*
X204880952Y-71285714D01*
X204833333Y-71380952D01*
X204833333Y-71571428D01*
X204880952Y-71666666D01*
X204928571Y-71714285D01*
X205023809Y-71761904D01*
X204785714Y-70333333D02*
X205452380Y-70333333D01*
X204404761Y-70571428D02*
X205119047Y-70809523D01*
X205119047Y-70190476D01*
X207952380Y-72142857D02*
X207476190Y-72476190D01*
X207952380Y-72714285D02*
X206952380Y-72714285D01*
X206952380Y-72333333D01*
X207000000Y-72238095D01*
X207047619Y-72190476D01*
X207142857Y-72142857D01*
X207285714Y-72142857D01*
X207380952Y-72190476D01*
X207428571Y-72238095D01*
X207476190Y-72333333D01*
X207476190Y-72714285D01*
X206952380Y-71285714D02*
X206952380Y-71476190D01*
X207000000Y-71571428D01*
X207047619Y-71619047D01*
X207190476Y-71714285D01*
X207380952Y-71761904D01*
X207761904Y-71761904D01*
X207857142Y-71714285D01*
X207904761Y-71666666D01*
X207952380Y-71571428D01*
X207952380Y-71380952D01*
X207904761Y-71285714D01*
X207857142Y-71238095D01*
X207761904Y-71190476D01*
X207523809Y-71190476D01*
X207428571Y-71238095D01*
X207380952Y-71285714D01*
X207333333Y-71380952D01*
X207333333Y-71571428D01*
X207380952Y-71666666D01*
X207428571Y-71714285D01*
X207523809Y-71761904D01*
X206952380Y-70285714D02*
X206952380Y-70761904D01*
X207428571Y-70809523D01*
X207380952Y-70761904D01*
X207333333Y-70666666D01*
X207333333Y-70428571D01*
X207380952Y-70333333D01*
X207428571Y-70285714D01*
X207523809Y-70238095D01*
X207761904Y-70238095D01*
X207857142Y-70285714D01*
X207904761Y-70333333D01*
X207952380Y-70428571D01*
X207952380Y-70666666D01*
X207904761Y-70761904D01*
X207857142Y-70809523D01*
X210452380Y-72142857D02*
X209976190Y-72476190D01*
X210452380Y-72714285D02*
X209452380Y-72714285D01*
X209452380Y-72333333D01*
X209500000Y-72238095D01*
X209547619Y-72190476D01*
X209642857Y-72142857D01*
X209785714Y-72142857D01*
X209880952Y-72190476D01*
X209928571Y-72238095D01*
X209976190Y-72333333D01*
X209976190Y-72714285D01*
X209452380Y-71285714D02*
X209452380Y-71476190D01*
X209500000Y-71571428D01*
X209547619Y-71619047D01*
X209690476Y-71714285D01*
X209880952Y-71761904D01*
X210261904Y-71761904D01*
X210357142Y-71714285D01*
X210404761Y-71666666D01*
X210452380Y-71571428D01*
X210452380Y-71380952D01*
X210404761Y-71285714D01*
X210357142Y-71238095D01*
X210261904Y-71190476D01*
X210023809Y-71190476D01*
X209928571Y-71238095D01*
X209880952Y-71285714D01*
X209833333Y-71380952D01*
X209833333Y-71571428D01*
X209880952Y-71666666D01*
X209928571Y-71714285D01*
X210023809Y-71761904D01*
X209452380Y-70333333D02*
X209452380Y-70523809D01*
X209500000Y-70619047D01*
X209547619Y-70666666D01*
X209690476Y-70761904D01*
X209880952Y-70809523D01*
X210261904Y-70809523D01*
X210357142Y-70761904D01*
X210404761Y-70714285D01*
X210452380Y-70619047D01*
X210452380Y-70428571D01*
X210404761Y-70333333D01*
X210357142Y-70285714D01*
X210261904Y-70238095D01*
X210023809Y-70238095D01*
X209928571Y-70285714D01*
X209880952Y-70333333D01*
X209833333Y-70428571D01*
X209833333Y-70619047D01*
X209880952Y-70714285D01*
X209928571Y-70761904D01*
X210023809Y-70809523D01*
X212952380Y-72142857D02*
X212476190Y-72476190D01*
X212952380Y-72714285D02*
X211952380Y-72714285D01*
X211952380Y-72333333D01*
X212000000Y-72238095D01*
X212047619Y-72190476D01*
X212142857Y-72142857D01*
X212285714Y-72142857D01*
X212380952Y-72190476D01*
X212428571Y-72238095D01*
X212476190Y-72333333D01*
X212476190Y-72714285D01*
X211952380Y-71285714D02*
X211952380Y-71476190D01*
X212000000Y-71571428D01*
X212047619Y-71619047D01*
X212190476Y-71714285D01*
X212380952Y-71761904D01*
X212761904Y-71761904D01*
X212857142Y-71714285D01*
X212904761Y-71666666D01*
X212952380Y-71571428D01*
X212952380Y-71380952D01*
X212904761Y-71285714D01*
X212857142Y-71238095D01*
X212761904Y-71190476D01*
X212523809Y-71190476D01*
X212428571Y-71238095D01*
X212380952Y-71285714D01*
X212333333Y-71380952D01*
X212333333Y-71571428D01*
X212380952Y-71666666D01*
X212428571Y-71714285D01*
X212523809Y-71761904D01*
X211952380Y-70857142D02*
X211952380Y-70190476D01*
X212952380Y-70619047D01*
X215452380Y-72142857D02*
X214976190Y-72476190D01*
X215452380Y-72714285D02*
X214452380Y-72714285D01*
X214452380Y-72333333D01*
X214500000Y-72238095D01*
X214547619Y-72190476D01*
X214642857Y-72142857D01*
X214785714Y-72142857D01*
X214880952Y-72190476D01*
X214928571Y-72238095D01*
X214976190Y-72333333D01*
X214976190Y-72714285D01*
X214452380Y-71285714D02*
X214452380Y-71476190D01*
X214500000Y-71571428D01*
X214547619Y-71619047D01*
X214690476Y-71714285D01*
X214880952Y-71761904D01*
X215261904Y-71761904D01*
X215357142Y-71714285D01*
X215404761Y-71666666D01*
X215452380Y-71571428D01*
X215452380Y-71380952D01*
X215404761Y-71285714D01*
X215357142Y-71238095D01*
X215261904Y-71190476D01*
X215023809Y-71190476D01*
X214928571Y-71238095D01*
X214880952Y-71285714D01*
X214833333Y-71380952D01*
X214833333Y-71571428D01*
X214880952Y-71666666D01*
X214928571Y-71714285D01*
X215023809Y-71761904D01*
X214880952Y-70619047D02*
X214833333Y-70714285D01*
X214785714Y-70761904D01*
X214690476Y-70809523D01*
X214642857Y-70809523D01*
X214547619Y-70761904D01*
X214500000Y-70714285D01*
X214452380Y-70619047D01*
X214452380Y-70428571D01*
X214500000Y-70333333D01*
X214547619Y-70285714D01*
X214642857Y-70238095D01*
X214690476Y-70238095D01*
X214785714Y-70285714D01*
X214833333Y-70333333D01*
X214880952Y-70428571D01*
X214880952Y-70619047D01*
X214928571Y-70714285D01*
X214976190Y-70761904D01*
X215071428Y-70809523D01*
X215261904Y-70809523D01*
X215357142Y-70761904D01*
X215404761Y-70714285D01*
X215452380Y-70619047D01*
X215452380Y-70428571D01*
X215404761Y-70333333D01*
X215357142Y-70285714D01*
X215261904Y-70238095D01*
X215071428Y-70238095D01*
X214976190Y-70285714D01*
X214928571Y-70333333D01*
X214880952Y-70428571D01*
X218452380Y-39142857D02*
X217976190Y-39476190D01*
X218452380Y-39714285D02*
X217452380Y-39714285D01*
X217452380Y-39333333D01*
X217500000Y-39238095D01*
X217547619Y-39190476D01*
X217642857Y-39142857D01*
X217785714Y-39142857D01*
X217880952Y-39190476D01*
X217928571Y-39238095D01*
X217976190Y-39333333D01*
X217976190Y-39714285D01*
X217452380Y-38285714D02*
X217452380Y-38476190D01*
X217500000Y-38571428D01*
X217547619Y-38619047D01*
X217690476Y-38714285D01*
X217880952Y-38761904D01*
X218261904Y-38761904D01*
X218357142Y-38714285D01*
X218404761Y-38666666D01*
X218452380Y-38571428D01*
X218452380Y-38380952D01*
X218404761Y-38285714D01*
X218357142Y-38238095D01*
X218261904Y-38190476D01*
X218023809Y-38190476D01*
X217928571Y-38238095D01*
X217880952Y-38285714D01*
X217833333Y-38380952D01*
X217833333Y-38571428D01*
X217880952Y-38666666D01*
X217928571Y-38714285D01*
X218023809Y-38761904D01*
X218452380Y-37714285D02*
X218452380Y-37523809D01*
X218404761Y-37428571D01*
X218357142Y-37380952D01*
X218214285Y-37285714D01*
X218023809Y-37238095D01*
X217642857Y-37238095D01*
X217547619Y-37285714D01*
X217500000Y-37333333D01*
X217452380Y-37428571D01*
X217452380Y-37619047D01*
X217500000Y-37714285D01*
X217547619Y-37761904D01*
X217642857Y-37809523D01*
X217880952Y-37809523D01*
X217976190Y-37761904D01*
X218023809Y-37714285D01*
X218071428Y-37619047D01*
X218071428Y-37428571D01*
X218023809Y-37333333D01*
X217976190Y-37285714D01*
X217880952Y-37238095D01*
X38357142Y-24352380D02*
X38023809Y-23876190D01*
X37785714Y-24352380D02*
X37785714Y-23352380D01*
X38166666Y-23352380D01*
X38261904Y-23400000D01*
X38309523Y-23447619D01*
X38357142Y-23542857D01*
X38357142Y-23685714D01*
X38309523Y-23780952D01*
X38261904Y-23828571D01*
X38166666Y-23876190D01*
X37785714Y-23876190D01*
X38690476Y-23352380D02*
X39357142Y-23352380D01*
X38928571Y-24352380D01*
X39928571Y-23352380D02*
X40023809Y-23352380D01*
X40119047Y-23400000D01*
X40166666Y-23447619D01*
X40214285Y-23542857D01*
X40261904Y-23733333D01*
X40261904Y-23971428D01*
X40214285Y-24161904D01*
X40166666Y-24257142D01*
X40119047Y-24304761D01*
X40023809Y-24352380D01*
X39928571Y-24352380D01*
X39833333Y-24304761D01*
X39785714Y-24257142D01*
X39738095Y-24161904D01*
X39690476Y-23971428D01*
X39690476Y-23733333D01*
X39738095Y-23542857D01*
X39785714Y-23447619D01*
X39833333Y-23400000D01*
X39928571Y-23352380D01*
X40882380Y-38642857D02*
X40406190Y-38976190D01*
X40882380Y-39214285D02*
X39882380Y-39214285D01*
X39882380Y-38833333D01*
X39930000Y-38738095D01*
X39977619Y-38690476D01*
X40072857Y-38642857D01*
X40215714Y-38642857D01*
X40310952Y-38690476D01*
X40358571Y-38738095D01*
X40406190Y-38833333D01*
X40406190Y-39214285D01*
X39882380Y-38309523D02*
X39882380Y-37642857D01*
X40882380Y-38071428D01*
X40882380Y-36738095D02*
X40882380Y-37309523D01*
X40882380Y-37023809D02*
X39882380Y-37023809D01*
X40025238Y-37119047D01*
X40120476Y-37214285D01*
X40168095Y-37309523D01*
X40882380Y-33142857D02*
X40406190Y-33476190D01*
X40882380Y-33714285D02*
X39882380Y-33714285D01*
X39882380Y-33333333D01*
X39930000Y-33238095D01*
X39977619Y-33190476D01*
X40072857Y-33142857D01*
X40215714Y-33142857D01*
X40310952Y-33190476D01*
X40358571Y-33238095D01*
X40406190Y-33333333D01*
X40406190Y-33714285D01*
X39882380Y-32809523D02*
X39882380Y-32142857D01*
X40882380Y-32571428D01*
X39977619Y-31809523D02*
X39930000Y-31761904D01*
X39882380Y-31666666D01*
X39882380Y-31428571D01*
X39930000Y-31333333D01*
X39977619Y-31285714D01*
X40072857Y-31238095D01*
X40168095Y-31238095D01*
X40310952Y-31285714D01*
X40882380Y-31857142D01*
X40882380Y-31238095D01*
X35552380Y-45833333D02*
X36266666Y-45833333D01*
X36409523Y-45880952D01*
X36504761Y-45976190D01*
X36552380Y-46119047D01*
X36552380Y-46214285D01*
X36552380Y-44833333D02*
X36552380Y-45404761D01*
X36552380Y-45119047D02*
X35552380Y-45119047D01*
X35695238Y-45214285D01*
X35790476Y-45309523D01*
X35838095Y-45404761D01*
X62452380Y-45833333D02*
X63166666Y-45833333D01*
X63309523Y-45880952D01*
X63404761Y-45976190D01*
X63452380Y-46119047D01*
X63452380Y-46214285D01*
X62547619Y-45404761D02*
X62500000Y-45357142D01*
X62452380Y-45261904D01*
X62452380Y-45023809D01*
X62500000Y-44928571D01*
X62547619Y-44880952D01*
X62642857Y-44833333D01*
X62738095Y-44833333D01*
X62880952Y-44880952D01*
X63452380Y-45452380D01*
X63452380Y-44833333D01*
X66552380Y-45833333D02*
X67266666Y-45833333D01*
X67409523Y-45880952D01*
X67504761Y-45976190D01*
X67552380Y-46119047D01*
X67552380Y-46214285D01*
X66552380Y-45452380D02*
X66552380Y-44833333D01*
X66933333Y-45166666D01*
X66933333Y-45023809D01*
X66980952Y-44928571D01*
X67028571Y-44880952D01*
X67123809Y-44833333D01*
X67361904Y-44833333D01*
X67457142Y-44880952D01*
X67504761Y-44928571D01*
X67552380Y-45023809D01*
X67552380Y-45309523D01*
X67504761Y-45404761D01*
X67457142Y-45452380D01*
X93452380Y-45783333D02*
X94166666Y-45783333D01*
X94309523Y-45830952D01*
X94404761Y-45926190D01*
X94452380Y-46069047D01*
X94452380Y-46164285D01*
X93785714Y-44878571D02*
X94452380Y-44878571D01*
X93404761Y-45116666D02*
X94119047Y-45354761D01*
X94119047Y-44735714D01*
X97552380Y-45833333D02*
X98266666Y-45833333D01*
X98409523Y-45880952D01*
X98504761Y-45976190D01*
X98552380Y-46119047D01*
X98552380Y-46214285D01*
X97552380Y-44880952D02*
X97552380Y-45357142D01*
X98028571Y-45404761D01*
X97980952Y-45357142D01*
X97933333Y-45261904D01*
X97933333Y-45023809D01*
X97980952Y-44928571D01*
X98028571Y-44880952D01*
X98123809Y-44833333D01*
X98361904Y-44833333D01*
X98457142Y-44880952D01*
X98504761Y-44928571D01*
X98552380Y-45023809D01*
X98552380Y-45261904D01*
X98504761Y-45357142D01*
X98457142Y-45404761D01*
X124452380Y-45833333D02*
X125166666Y-45833333D01*
X125309523Y-45880952D01*
X125404761Y-45976190D01*
X125452380Y-46119047D01*
X125452380Y-46214285D01*
X124452380Y-44928571D02*
X124452380Y-45119047D01*
X124500000Y-45214285D01*
X124547619Y-45261904D01*
X124690476Y-45357142D01*
X124880952Y-45404761D01*
X125261904Y-45404761D01*
X125357142Y-45357142D01*
X125404761Y-45309523D01*
X125452380Y-45214285D01*
X125452380Y-45023809D01*
X125404761Y-44928571D01*
X125357142Y-44880952D01*
X125261904Y-44833333D01*
X125023809Y-44833333D01*
X124928571Y-44880952D01*
X124880952Y-44928571D01*
X124833333Y-45023809D01*
X124833333Y-45214285D01*
X124880952Y-45309523D01*
X124928571Y-45357142D01*
X125023809Y-45404761D01*
X128552380Y-45833333D02*
X129266666Y-45833333D01*
X129409523Y-45880952D01*
X129504761Y-45976190D01*
X129552380Y-46119047D01*
X129552380Y-46214285D01*
X128552380Y-45452380D02*
X128552380Y-44785714D01*
X129552380Y-45214285D01*
X155452380Y-45833333D02*
X156166666Y-45833333D01*
X156309523Y-45880952D01*
X156404761Y-45976190D01*
X156452380Y-46119047D01*
X156452380Y-46214285D01*
X155880952Y-45214285D02*
X155833333Y-45309523D01*
X155785714Y-45357142D01*
X155690476Y-45404761D01*
X155642857Y-45404761D01*
X155547619Y-45357142D01*
X155500000Y-45309523D01*
X155452380Y-45214285D01*
X155452380Y-45023809D01*
X155500000Y-44928571D01*
X155547619Y-44880952D01*
X155642857Y-44833333D01*
X155690476Y-44833333D01*
X155785714Y-44880952D01*
X155833333Y-44928571D01*
X155880952Y-45023809D01*
X155880952Y-45214285D01*
X155928571Y-45309523D01*
X155976190Y-45357142D01*
X156071428Y-45404761D01*
X156261904Y-45404761D01*
X156357142Y-45357142D01*
X156404761Y-45309523D01*
X156452380Y-45214285D01*
X156452380Y-45023809D01*
X156404761Y-44928571D01*
X156357142Y-44880952D01*
X156261904Y-44833333D01*
X156071428Y-44833333D01*
X155976190Y-44880952D01*
X155928571Y-44928571D01*
X155880952Y-45023809D01*
X159552380Y-45833333D02*
X160266666Y-45833333D01*
X160409523Y-45880952D01*
X160504761Y-45976190D01*
X160552380Y-46119047D01*
X160552380Y-46214285D01*
X160552380Y-45309523D02*
X160552380Y-45119047D01*
X160504761Y-45023809D01*
X160457142Y-44976190D01*
X160314285Y-44880952D01*
X160123809Y-44833333D01*
X159742857Y-44833333D01*
X159647619Y-44880952D01*
X159600000Y-44928571D01*
X159552380Y-45023809D01*
X159552380Y-45214285D01*
X159600000Y-45309523D01*
X159647619Y-45357142D01*
X159742857Y-45404761D01*
X159980952Y-45404761D01*
X160076190Y-45357142D01*
X160123809Y-45309523D01*
X160171428Y-45214285D01*
X160171428Y-45023809D01*
X160123809Y-44928571D01*
X160076190Y-44880952D01*
X159980952Y-44833333D01*
X186452380Y-46309523D02*
X187166666Y-46309523D01*
X187309523Y-46357142D01*
X187404761Y-46452380D01*
X187452380Y-46595238D01*
X187452380Y-46690476D01*
X187452380Y-45309523D02*
X187452380Y-45880952D01*
X187452380Y-45595238D02*
X186452380Y-45595238D01*
X186595238Y-45690476D01*
X186690476Y-45785714D01*
X186738095Y-45880952D01*
X186452380Y-44690476D02*
X186452380Y-44595238D01*
X186500000Y-44500000D01*
X186547619Y-44452380D01*
X186642857Y-44404761D01*
X186833333Y-44357142D01*
X187071428Y-44357142D01*
X187261904Y-44404761D01*
X187357142Y-44452380D01*
X187404761Y-44500000D01*
X187452380Y-44595238D01*
X187452380Y-44690476D01*
X187404761Y-44785714D01*
X187357142Y-44833333D01*
X187261904Y-44880952D01*
X187071428Y-44928571D01*
X186833333Y-44928571D01*
X186642857Y-44880952D01*
X186547619Y-44833333D01*
X186500000Y-44785714D01*
X186452380Y-44690476D01*
X190552380Y-46309523D02*
X191266666Y-46309523D01*
X191409523Y-46357142D01*
X191504761Y-46452380D01*
X191552380Y-46595238D01*
X191552380Y-46690476D01*
X191552380Y-45309523D02*
X191552380Y-45880952D01*
X191552380Y-45595238D02*
X190552380Y-45595238D01*
X190695238Y-45690476D01*
X190790476Y-45785714D01*
X190838095Y-45880952D01*
X191552380Y-44357142D02*
X191552380Y-44928571D01*
X191552380Y-44642857D02*
X190552380Y-44642857D01*
X190695238Y-44738095D01*
X190790476Y-44833333D01*
X190838095Y-44928571D01*
X217452380Y-46309523D02*
X218166666Y-46309523D01*
X218309523Y-46357142D01*
X218404761Y-46452380D01*
X218452380Y-46595238D01*
X218452380Y-46690476D01*
X218452380Y-45309523D02*
X218452380Y-45880952D01*
X218452380Y-45595238D02*
X217452380Y-45595238D01*
X217595238Y-45690476D01*
X217690476Y-45785714D01*
X217738095Y-45880952D01*
X217547619Y-44928571D02*
X217500000Y-44880952D01*
X217452380Y-44785714D01*
X217452380Y-44547619D01*
X217500000Y-44452380D01*
X217547619Y-44404761D01*
X217642857Y-44357142D01*
X217738095Y-44357142D01*
X217880952Y-44404761D01*
X218452380Y-44976190D01*
X218452380Y-44357142D01*
X39452380Y-83761904D02*
X40261904Y-83761904D01*
X40357142Y-83714285D01*
X40404761Y-83666666D01*
X40452380Y-83571428D01*
X40452380Y-83380952D01*
X40404761Y-83285714D01*
X40357142Y-83238095D01*
X40261904Y-83190476D01*
X39452380Y-83190476D01*
X40452380Y-82190476D02*
X40452380Y-82761904D01*
X40452380Y-82476190D02*
X39452380Y-82476190D01*
X39595238Y-82571428D01*
X39690476Y-82666666D01*
X39738095Y-82761904D01*
X102452380Y-83761904D02*
X103261904Y-83761904D01*
X103357142Y-83714285D01*
X103404761Y-83666666D01*
X103452380Y-83571428D01*
X103452380Y-83380952D01*
X103404761Y-83285714D01*
X103357142Y-83238095D01*
X103261904Y-83190476D01*
X102452380Y-83190476D01*
X102785714Y-82285714D02*
X103452380Y-82285714D01*
X102404761Y-82523809D02*
X103119047Y-82761904D01*
X103119047Y-82142857D01*
X133952380Y-83761904D02*
X134761904Y-83761904D01*
X134857142Y-83714285D01*
X134904761Y-83666666D01*
X134952380Y-83571428D01*
X134952380Y-83380952D01*
X134904761Y-83285714D01*
X134857142Y-83238095D01*
X134761904Y-83190476D01*
X133952380Y-83190476D01*
X133952380Y-82285714D02*
X133952380Y-82476190D01*
X134000000Y-82571428D01*
X134047619Y-82619047D01*
X134190476Y-82714285D01*
X134380952Y-82761904D01*
X134761904Y-82761904D01*
X134857142Y-82714285D01*
X134904761Y-82666666D01*
X134952380Y-82571428D01*
X134952380Y-82380952D01*
X134904761Y-82285714D01*
X134857142Y-82238095D01*
X134761904Y-82190476D01*
X134523809Y-82190476D01*
X134428571Y-82238095D01*
X134380952Y-82285714D01*
X134333333Y-82380952D01*
X134333333Y-82571428D01*
X134380952Y-82666666D01*
X134428571Y-82714285D01*
X134523809Y-82761904D01*
X165452380Y-83761904D02*
X166261904Y-83761904D01*
X166357142Y-83714285D01*
X166404761Y-83666666D01*
X166452380Y-83571428D01*
X166452380Y-83380952D01*
X166404761Y-83285714D01*
X166357142Y-83238095D01*
X166261904Y-83190476D01*
X165452380Y-83190476D01*
X165452380Y-82809523D02*
X165452380Y-82142857D01*
X166452380Y-82571428D01*
X196952380Y-83761904D02*
X197761904Y-83761904D01*
X197857142Y-83714285D01*
X197904761Y-83666666D01*
X197952380Y-83571428D01*
X197952380Y-83380952D01*
X197904761Y-83285714D01*
X197857142Y-83238095D01*
X197761904Y-83190476D01*
X196952380Y-83190476D01*
X197952380Y-82666666D02*
X197952380Y-82476190D01*
X197904761Y-82380952D01*
X197857142Y-82333333D01*
X197714285Y-82238095D01*
X197523809Y-82190476D01*
X197142857Y-82190476D01*
X197047619Y-82238095D01*
X197000000Y-82285714D01*
X196952380Y-82380952D01*
X196952380Y-82571428D01*
X197000000Y-82666666D01*
X197047619Y-82714285D01*
X197142857Y-82761904D01*
X197380952Y-82761904D01*
X197476190Y-82714285D01*
X197523809Y-82666666D01*
X197571428Y-82571428D01*
X197571428Y-82380952D01*
X197523809Y-82285714D01*
X197476190Y-82238095D01*
X197380952Y-82190476D01*
X55452380Y-103761904D02*
X56261904Y-103761904D01*
X56357142Y-103714285D01*
X56404761Y-103666666D01*
X56452380Y-103571428D01*
X56452380Y-103380952D01*
X56404761Y-103285714D01*
X56357142Y-103238095D01*
X56261904Y-103190476D01*
X55452380Y-103190476D01*
X55547619Y-102761904D02*
X55500000Y-102714285D01*
X55452380Y-102619047D01*
X55452380Y-102380952D01*
X55500000Y-102285714D01*
X55547619Y-102238095D01*
X55642857Y-102190476D01*
X55738095Y-102190476D01*
X55880952Y-102238095D01*
X56452380Y-102809523D01*
X56452380Y-102190476D01*
X118452380Y-103761904D02*
X119261904Y-103761904D01*
X119357142Y-103714285D01*
X119404761Y-103666666D01*
X119452380Y-103571428D01*
X119452380Y-103380952D01*
X119404761Y-103285714D01*
X119357142Y-103238095D01*
X119261904Y-103190476D01*
X118452380Y-103190476D01*
X118452380Y-102238095D02*
X118452380Y-102714285D01*
X118928571Y-102761904D01*
X118880952Y-102714285D01*
X118833333Y-102619047D01*
X118833333Y-102380952D01*
X118880952Y-102285714D01*
X118928571Y-102238095D01*
X119023809Y-102190476D01*
X119261904Y-102190476D01*
X119357142Y-102238095D01*
X119404761Y-102285714D01*
X119452380Y-102380952D01*
X119452380Y-102619047D01*
X119404761Y-102714285D01*
X119357142Y-102761904D01*
X181452380Y-103761904D02*
X182261904Y-103761904D01*
X182357142Y-103714285D01*
X182404761Y-103666666D01*
X182452380Y-103571428D01*
X182452380Y-103380952D01*
X182404761Y-103285714D01*
X182357142Y-103238095D01*
X182261904Y-103190476D01*
X181452380Y-103190476D01*
X181880952Y-102571428D02*
X181833333Y-102666666D01*
X181785714Y-102714285D01*
X181690476Y-102761904D01*
X181642857Y-102761904D01*
X181547619Y-102714285D01*
X181500000Y-102666666D01*
X181452380Y-102571428D01*
X181452380Y-102380952D01*
X181500000Y-102285714D01*
X181547619Y-102238095D01*
X181642857Y-102190476D01*
X181690476Y-102190476D01*
X181785714Y-102238095D01*
X181833333Y-102285714D01*
X181880952Y-102380952D01*
X181880952Y-102571428D01*
X181928571Y-102666666D01*
X181976190Y-102714285D01*
X182071428Y-102761904D01*
X182261904Y-102761904D01*
X182357142Y-102714285D01*
X182404761Y-102666666D01*
X182452380Y-102571428D01*
X182452380Y-102380952D01*
X182404761Y-102285714D01*
X182357142Y-102238095D01*
X182261904Y-102190476D01*
X182071428Y-102190476D01*
X181976190Y-102238095D01*
X181928571Y-102285714D01*
X181880952Y-102380952D01*
M02*
